G04*
G04 #@! TF.GenerationSoftware,Altium Limited,Altium Designer,26.1.1 (7)*
G04*
G04 Layer_Physical_Order=2*
G04 Layer_Color=16711680*
%FSLAX44Y44*%
%MOMM*%
G71*
G04*
G04 #@! TF.SameCoordinates,FB23F88C-E865-406B-BE6F-A8DC1CEE19A6*
G04*
G04*
G04 #@! TF.FilePolarity,Positive*
G04*
G01*
G75*
%ADD16R,1.5001X1.2400*%
%ADD19R,1.0000X1.1001*%
G04:AMPARAMS|DCode=26|XSize=1.5001mm|YSize=1.5001mm|CornerRadius=0.7501mm|HoleSize=0mm|Usage=FLASHONLY|Rotation=0.000|XOffset=0mm|YOffset=0mm|HoleType=Round|Shape=RoundedRectangle|*
%AMROUNDEDRECTD26*
21,1,1.5001,0.0000,0,0,0.0*
21,1,0.0000,1.5001,0,0,0.0*
1,1,1.5001,0.0000,0.0000*
1,1,1.5001,0.0000,0.0000*
1,1,1.5001,0.0000,0.0000*
1,1,1.5001,0.0000,0.0000*
%
%ADD26ROUNDEDRECTD26*%
%ADD74C,0.1524*%
%ADD76C,0.4064*%
%ADD77C,0.2032*%
%ADD78C,1.6251*%
%ADD79C,1.9304*%
%ADD80O,1.3208X2.6416*%
%ADD81C,0.6500*%
%ADD82C,2.1999*%
%ADD83C,1.5080*%
%ADD84O,2.2159X1.1080*%
%ADD85C,0.8001*%
%ADD86C,0.8890*%
%ADD87R,0.3000X0.8001*%
%ADD88R,0.4001X0.8001*%
%ADD89R,0.9500X0.9500*%
G36*
X531254Y250589D02*
X531887D01*
Y250378D01*
X532309D01*
Y249957D01*
X532519D01*
Y249746D01*
X532730D01*
Y249535D01*
X532941D01*
Y249114D01*
X533152D01*
Y246794D01*
X532941D01*
Y244897D01*
X532730D01*
Y243210D01*
X532519D01*
Y242577D01*
X532309D01*
Y240891D01*
X532098D01*
Y238993D01*
X531887D01*
Y237306D01*
X531676D01*
Y235831D01*
X531465D01*
Y234776D01*
X531254D01*
Y234144D01*
X531044D01*
Y233933D01*
X530833D01*
Y233722D01*
X530622D01*
Y233511D01*
X530411D01*
Y233300D01*
X529989D01*
Y233090D01*
X529779D01*
Y232879D01*
X528303D01*
Y233090D01*
X527670D01*
Y233300D01*
X527248D01*
Y233511D01*
X527038D01*
Y233722D01*
X526827D01*
Y234144D01*
X526616D01*
Y234776D01*
X526405D01*
Y236885D01*
X526616D01*
Y237939D01*
X526827D01*
Y239204D01*
X527038D01*
Y240680D01*
X526616D01*
Y240469D01*
X526405D01*
Y240258D01*
X526194D01*
Y239837D01*
X525983D01*
Y239626D01*
X525562D01*
Y239415D01*
X525351D01*
Y238993D01*
X524929D01*
Y238571D01*
X524718D01*
Y238361D01*
X524507D01*
Y238150D01*
X524297D01*
Y237939D01*
X524086D01*
Y237728D01*
X523875D01*
Y237517D01*
X523664D01*
Y237306D01*
X523453D01*
Y237096D01*
X523242D01*
Y236885D01*
X523032D01*
Y236674D01*
X522821D01*
Y236463D01*
X522610D01*
Y236252D01*
X522399D01*
Y236041D01*
X522188D01*
Y235831D01*
X521977D01*
Y235620D01*
X521767D01*
Y235409D01*
X521556D01*
Y235198D01*
X521345D01*
Y234987D01*
X521134D01*
Y234776D01*
X520923D01*
Y234566D01*
X520712D01*
Y234355D01*
X520502D01*
Y234144D01*
X520291D01*
Y233933D01*
X520080D01*
Y233722D01*
X519869D01*
Y233511D01*
X519658D01*
Y233300D01*
X519447D01*
Y233090D01*
X519236D01*
Y232879D01*
X519026D01*
Y232668D01*
X518815D01*
Y232457D01*
X518604D01*
Y232246D01*
X518393D01*
Y232036D01*
X518182D01*
Y231825D01*
X517971D01*
Y231614D01*
X517761D01*
Y231403D01*
X517550D01*
Y231192D01*
X517339D01*
Y230981D01*
X517128D01*
Y230770D01*
X516917D01*
Y230560D01*
X516707D01*
Y230349D01*
X516496D01*
Y230138D01*
X516285D01*
Y229927D01*
X516074D01*
Y229716D01*
X515863D01*
Y229294D01*
X524086D01*
Y229084D01*
X525351D01*
Y228873D01*
X525983D01*
Y228662D01*
X526405D01*
Y228451D01*
X527038D01*
Y228240D01*
X527248D01*
Y228029D01*
X527881D01*
Y227819D01*
X528092D01*
Y227608D01*
X528513D01*
Y227397D01*
X528724D01*
Y227186D01*
X528935D01*
Y226975D01*
X529146D01*
Y226764D01*
X529357D01*
Y226554D01*
X529568D01*
Y226343D01*
X529989D01*
Y225921D01*
X530200D01*
Y225710D01*
X530411D01*
Y225499D01*
X530622D01*
Y225078D01*
X530833D01*
Y224867D01*
X531044D01*
Y224445D01*
X531254D01*
Y224023D01*
X531465D01*
Y223602D01*
X531676D01*
Y223180D01*
X531887D01*
Y222548D01*
X532098D01*
Y221493D01*
X532309D01*
Y221072D01*
X532519D01*
Y220228D01*
X532309D01*
Y220018D01*
X532519D01*
Y203150D01*
X532309D01*
Y201464D01*
X532519D01*
Y195560D01*
X532309D01*
Y187970D01*
X532519D01*
Y183542D01*
X532309D01*
Y183331D01*
X532519D01*
Y183121D01*
X532309D01*
Y182910D01*
X532519D01*
Y182488D01*
X532309D01*
Y182066D01*
X532519D01*
Y156976D01*
X532309D01*
Y155922D01*
X532519D01*
Y150862D01*
X532309D01*
Y149597D01*
X532098D01*
Y148543D01*
X531887D01*
Y147910D01*
X531676D01*
Y147489D01*
X531465D01*
Y147067D01*
X531254D01*
Y146645D01*
X531044D01*
Y146224D01*
X530833D01*
Y145802D01*
X530622D01*
Y145591D01*
X530411D01*
Y145380D01*
X530200D01*
Y145169D01*
X529989D01*
Y144959D01*
X529779D01*
Y144748D01*
X529568D01*
Y144537D01*
X529357D01*
Y144326D01*
X529146D01*
Y144115D01*
X528935D01*
Y143904D01*
X528724D01*
Y143694D01*
X528513D01*
Y143483D01*
X528303D01*
Y143272D01*
X527881D01*
Y143061D01*
X527670D01*
Y142850D01*
X527038D01*
Y142639D01*
X526616D01*
Y142429D01*
X526194D01*
Y142218D01*
X525351D01*
Y142007D01*
X524297D01*
Y141796D01*
X523664D01*
Y141585D01*
X523453D01*
Y141796D01*
X523032D01*
Y141585D01*
X520080D01*
Y141796D01*
X428364D01*
Y141585D01*
X428154D01*
Y141374D01*
X427943D01*
Y141164D01*
X427732D01*
Y140953D01*
X427521D01*
Y140742D01*
X427310D01*
Y140531D01*
X427099D01*
Y140320D01*
X426889D01*
Y140109D01*
X426678D01*
Y139898D01*
X426467D01*
Y139688D01*
X426256D01*
Y139477D01*
X426045D01*
Y139266D01*
X425835D01*
Y139055D01*
X425624D01*
Y138844D01*
X425413D01*
Y138633D01*
X425202D01*
Y138423D01*
X424991D01*
Y138212D01*
X424780D01*
Y138001D01*
X424569D01*
Y137790D01*
X424359D01*
Y137579D01*
X424148D01*
Y137368D01*
X423937D01*
Y137157D01*
X423726D01*
Y136947D01*
X423515D01*
Y136736D01*
X423304D01*
Y136525D01*
X423094D01*
Y136103D01*
X422672D01*
Y135892D01*
X422461D01*
Y135682D01*
X422250D01*
Y135471D01*
X422039D01*
Y135260D01*
X421828D01*
Y135049D01*
X421618D01*
Y134838D01*
X421407D01*
Y134627D01*
X421196D01*
Y134417D01*
X420985D01*
Y134206D01*
X420774D01*
Y133995D01*
X420564D01*
Y133784D01*
X420353D01*
Y133573D01*
X420142D01*
Y133362D01*
X419931D01*
Y133152D01*
X419720D01*
Y132941D01*
X419509D01*
Y132730D01*
X419299D01*
Y132519D01*
X419088D01*
Y132308D01*
X418877D01*
Y132097D01*
X418666D01*
Y131887D01*
X418455D01*
Y131676D01*
X418244D01*
Y131465D01*
X418033D01*
Y131254D01*
X417823D01*
Y131043D01*
X417612D01*
Y130832D01*
X417401D01*
Y130622D01*
X417190D01*
Y130411D01*
X416979D01*
Y130200D01*
X416768D01*
Y129989D01*
X416558D01*
Y129778D01*
X416347D01*
Y129567D01*
X416136D01*
Y129356D01*
X415925D01*
Y129146D01*
X415714D01*
Y128935D01*
X415503D01*
Y128724D01*
X415293D01*
Y128935D01*
X415082D01*
Y129146D01*
X414871D01*
Y129356D01*
X414660D01*
Y129567D01*
X414449D01*
Y129778D01*
X414238D01*
Y129989D01*
X414027D01*
Y130200D01*
X413817D01*
Y130411D01*
X413606D01*
Y130622D01*
X413395D01*
Y130832D01*
X413184D01*
Y131043D01*
X412973D01*
Y131254D01*
X412762D01*
Y131465D01*
X412552D01*
Y131676D01*
X412341D01*
Y131887D01*
X412130D01*
Y132097D01*
X411919D01*
Y132308D01*
X412130D01*
Y132519D01*
X412341D01*
Y132730D01*
X412552D01*
Y132941D01*
X412762D01*
Y133152D01*
X412973D01*
Y133362D01*
X413184D01*
Y133573D01*
X413395D01*
Y133784D01*
X413606D01*
Y133995D01*
X413817D01*
Y134206D01*
X414027D01*
Y134417D01*
X414238D01*
Y134627D01*
X414449D01*
Y134838D01*
X414660D01*
Y135049D01*
X414871D01*
Y135260D01*
X415082D01*
Y135471D01*
X415293D01*
Y135682D01*
X415503D01*
Y135892D01*
X415714D01*
Y136103D01*
X415925D01*
Y136314D01*
X416136D01*
Y136525D01*
X416347D01*
Y136736D01*
X416558D01*
Y136947D01*
X416768D01*
Y137157D01*
X416979D01*
Y137368D01*
X417190D01*
Y137579D01*
X417401D01*
Y137790D01*
X417612D01*
Y138001D01*
X417823D01*
Y138212D01*
X418033D01*
Y138423D01*
X418244D01*
Y138633D01*
X418455D01*
Y138844D01*
X418666D01*
Y139055D01*
X418877D01*
Y139266D01*
X419088D01*
Y139477D01*
X419299D01*
Y139688D01*
X419509D01*
Y139898D01*
X419720D01*
Y140109D01*
X419931D01*
Y140320D01*
X420142D01*
Y140531D01*
X420353D01*
Y140742D01*
X420564D01*
Y140953D01*
X420774D01*
Y141164D01*
X420985D01*
Y141374D01*
X421196D01*
Y141796D01*
X410022D01*
Y141585D01*
X409600D01*
Y141796D01*
X408756D01*
Y142007D01*
X407491D01*
Y142218D01*
X406859D01*
Y142429D01*
X406226D01*
Y142639D01*
X405805D01*
Y142850D01*
X405383D01*
Y143061D01*
X404961D01*
Y143272D01*
X404751D01*
Y143483D01*
X404329D01*
Y143694D01*
X404118D01*
Y143904D01*
X403907D01*
Y144115D01*
X403696D01*
Y144326D01*
X403275D01*
Y144748D01*
X403064D01*
Y144959D01*
X402853D01*
Y145169D01*
X402642D01*
Y145380D01*
X402431D01*
Y145802D01*
X402220D01*
Y146013D01*
X402010D01*
Y146434D01*
X401799D01*
Y146645D01*
X401588D01*
Y147278D01*
X401377D01*
Y147489D01*
X401166D01*
Y148121D01*
X400955D01*
Y148543D01*
X400745D01*
Y149597D01*
X400534D01*
Y150651D01*
X400323D01*
Y150862D01*
X400534D01*
Y152549D01*
X400323D01*
Y155922D01*
X400534D01*
Y160982D01*
X400323D01*
Y162669D01*
X400534D01*
Y174476D01*
X400323D01*
Y176163D01*
X400534D01*
Y182066D01*
X400323D01*
Y182277D01*
X400534D01*
Y182488D01*
X375865D01*
Y188602D01*
X400534D01*
Y188813D01*
X400323D01*
Y189024D01*
X400534D01*
Y196404D01*
X400323D01*
Y204837D01*
X400534D01*
Y221704D01*
X400745D01*
Y222548D01*
X400955D01*
Y223180D01*
X401166D01*
Y223602D01*
X401377D01*
Y224023D01*
X401588D01*
Y224445D01*
X401799D01*
Y224867D01*
X402010D01*
Y225078D01*
X402220D01*
Y225499D01*
X402431D01*
Y225710D01*
X402642D01*
Y225921D01*
X402853D01*
Y226343D01*
X403064D01*
Y226554D01*
X403275D01*
Y226764D01*
X403485D01*
Y226975D01*
X403696D01*
Y227186D01*
X404118D01*
Y227397D01*
X404329D01*
Y227608D01*
X404751D01*
Y227819D01*
X404961D01*
Y228029D01*
X405172D01*
Y228240D01*
X405805D01*
Y228451D01*
X406437D01*
Y228662D01*
X406648D01*
Y228873D01*
X407491D01*
Y229084D01*
X408756D01*
Y229294D01*
X508694D01*
Y229505D01*
X508905D01*
Y229716D01*
X509116D01*
Y229927D01*
X509327D01*
Y230138D01*
X509538D01*
Y230560D01*
X509749D01*
Y230770D01*
X510170D01*
Y231192D01*
X510592D01*
Y231403D01*
X510803D01*
Y231614D01*
X511014D01*
Y231825D01*
X511225D01*
Y232246D01*
X511646D01*
Y232668D01*
X512068D01*
Y233090D01*
X512490D01*
Y233511D01*
X512911D01*
Y233722D01*
X513122D01*
Y233933D01*
X513333D01*
Y234144D01*
X513544D01*
Y234355D01*
X513755D01*
Y234776D01*
X514176D01*
Y235198D01*
X514598D01*
Y235409D01*
X514809D01*
Y235620D01*
X515020D01*
Y235831D01*
X515231D01*
Y236041D01*
X515441D01*
Y236252D01*
X515652D01*
Y236463D01*
X515863D01*
Y236885D01*
X516285D01*
Y237306D01*
X516707D01*
Y237517D01*
X516917D01*
Y237728D01*
X517128D01*
Y237939D01*
X517339D01*
Y238150D01*
X517550D01*
Y238361D01*
X517761D01*
Y238571D01*
X517971D01*
Y238782D01*
X518182D01*
Y238993D01*
X518393D01*
Y239204D01*
X518604D01*
Y239415D01*
X518815D01*
Y239626D01*
X519026D01*
Y239837D01*
X519236D01*
Y240047D01*
X519447D01*
Y240258D01*
X519658D01*
Y240469D01*
X519869D01*
Y240680D01*
X520080D01*
Y240891D01*
X520291D01*
Y241101D01*
X520502D01*
Y241312D01*
X520712D01*
Y241523D01*
X520923D01*
Y241734D01*
X521134D01*
Y241945D01*
X521345D01*
Y242156D01*
X521556D01*
Y242367D01*
X521767D01*
Y242577D01*
X521977D01*
Y242788D01*
X522188D01*
Y242999D01*
X522399D01*
Y243210D01*
X522610D01*
Y243421D01*
X522821D01*
Y243843D01*
X523032D01*
Y244053D01*
X523242D01*
Y244264D01*
X523453D01*
Y244475D01*
X522821D01*
Y244264D01*
X521134D01*
Y244053D01*
X519236D01*
Y243843D01*
X518815D01*
Y243632D01*
X517971D01*
Y243843D01*
X516917D01*
Y244053D01*
X516707D01*
Y244264D01*
X516285D01*
Y244475D01*
X516074D01*
Y244897D01*
X515863D01*
Y245318D01*
X515652D01*
Y245740D01*
X515441D01*
Y246794D01*
X515652D01*
Y247427D01*
X515863D01*
Y247638D01*
X516074D01*
Y248059D01*
X516285D01*
Y248270D01*
X516707D01*
Y248481D01*
X517128D01*
Y248692D01*
X517971D01*
Y248903D01*
X519026D01*
Y249114D01*
X520712D01*
Y249324D01*
X522399D01*
Y249535D01*
X524086D01*
Y249746D01*
X524718D01*
Y249957D01*
X526405D01*
Y250168D01*
X528092D01*
Y250378D01*
X529779D01*
Y250589D01*
X530200D01*
Y250800D01*
X531254D01*
Y250589D01*
D02*
G37*
G36*
X550230Y195560D02*
X550863D01*
Y195349D01*
X551073D01*
Y195138D01*
X551495D01*
Y194928D01*
X551706D01*
Y194717D01*
X552127D01*
Y194506D01*
X552338D01*
Y194295D01*
X552549D01*
Y194084D01*
X552971D01*
Y193873D01*
X553182D01*
Y193663D01*
X553393D01*
Y193452D01*
X553814D01*
Y193241D01*
X554025D01*
Y193030D01*
X554447D01*
Y192819D01*
X554658D01*
Y192608D01*
X554869D01*
Y192398D01*
X555079D01*
Y192187D01*
X555501D01*
Y191976D01*
X555712D01*
Y191765D01*
X556133D01*
Y191554D01*
X556344D01*
Y191343D01*
X556766D01*
Y191133D01*
X556977D01*
Y190922D01*
X557188D01*
Y190711D01*
X557399D01*
Y190500D01*
X557820D01*
Y190289D01*
X558031D01*
Y190078D01*
X558242D01*
Y189867D01*
X558664D01*
Y189657D01*
X558874D01*
Y189446D01*
X559085D01*
Y189235D01*
X559507D01*
Y189024D01*
X559718D01*
Y188813D01*
X559929D01*
Y188602D01*
X560140D01*
Y188392D01*
X560561D01*
Y188181D01*
X560772D01*
Y187970D01*
X560983D01*
Y187759D01*
X561404D01*
Y187548D01*
X561615D01*
Y187337D01*
X561826D01*
Y187127D01*
X562037D01*
Y186916D01*
X562248D01*
Y186494D01*
X562459D01*
Y185861D01*
X562669D01*
Y185229D01*
X562459D01*
Y184597D01*
X562248D01*
Y184175D01*
X562037D01*
Y183964D01*
X561826D01*
Y183753D01*
X561615D01*
Y183542D01*
X561404D01*
Y183331D01*
X561194D01*
Y183121D01*
X560772D01*
Y182910D01*
X560561D01*
Y182699D01*
X560140D01*
Y182488D01*
X559929D01*
Y182277D01*
X559718D01*
Y182066D01*
X559507D01*
Y181856D01*
X559085D01*
Y181645D01*
X558874D01*
Y181434D01*
X558664D01*
Y181223D01*
X558242D01*
Y181012D01*
X558031D01*
Y180801D01*
X557820D01*
Y180590D01*
X557399D01*
Y180380D01*
X557188D01*
Y180169D01*
X556977D01*
Y179958D01*
X556555D01*
Y179747D01*
X556344D01*
Y179536D01*
X555923D01*
Y179326D01*
X555712D01*
Y179115D01*
X555501D01*
Y178904D01*
X555290D01*
Y178693D01*
X554869D01*
Y178482D01*
X554658D01*
Y178271D01*
X554447D01*
Y178060D01*
X554025D01*
Y177850D01*
X553814D01*
Y177639D01*
X553603D01*
Y177428D01*
X553182D01*
Y177217D01*
X552971D01*
Y177006D01*
X552760D01*
Y176795D01*
X552549D01*
Y176585D01*
X552127D01*
Y176374D01*
X551917D01*
Y176163D01*
X551706D01*
Y175952D01*
X551284D01*
Y175741D01*
X551073D01*
Y175530D01*
X550652D01*
Y175319D01*
X549176D01*
Y175530D01*
X548543D01*
Y175741D01*
X548332D01*
Y175952D01*
X548122D01*
Y176163D01*
X547911D01*
Y176374D01*
X547700D01*
Y176585D01*
X547489D01*
Y177006D01*
X547278D01*
Y178693D01*
X547489D01*
Y179115D01*
X547700D01*
Y179326D01*
X547911D01*
Y179536D01*
X548122D01*
Y179747D01*
X548332D01*
Y179958D01*
X548543D01*
Y180169D01*
X548754D01*
Y180380D01*
X549176D01*
Y180590D01*
X549387D01*
Y180801D01*
X549598D01*
Y181012D01*
X549808D01*
Y181223D01*
X550230D01*
Y181434D01*
X550441D01*
Y181645D01*
X550652D01*
Y181856D01*
X551073D01*
Y182066D01*
X551284D01*
Y182277D01*
X551495D01*
Y182488D01*
X551917D01*
Y182699D01*
X552127D01*
Y182910D01*
X532730D01*
Y187970D01*
X551706D01*
Y188181D01*
X552127D01*
Y188392D01*
X551706D01*
Y188602D01*
X551495D01*
Y188813D01*
X551284D01*
Y189024D01*
X550863D01*
Y189235D01*
X550652D01*
Y189446D01*
X550441D01*
Y189657D01*
X550019D01*
Y189867D01*
X549808D01*
Y190078D01*
X549598D01*
Y190289D01*
X549176D01*
Y190500D01*
X548965D01*
Y190711D01*
X548543D01*
Y190922D01*
X548332D01*
Y191133D01*
X548122D01*
Y191343D01*
X547911D01*
Y191554D01*
X547700D01*
Y191976D01*
X547489D01*
Y192187D01*
X547278D01*
Y194295D01*
X547489D01*
Y194506D01*
X547700D01*
Y194717D01*
X547911D01*
Y194928D01*
X548122D01*
Y195138D01*
X548332D01*
Y195349D01*
X548754D01*
Y195560D01*
X549598D01*
Y195771D01*
X549808D01*
Y195560D01*
X550019D01*
Y195771D01*
X550230D01*
Y195560D01*
D02*
G37*
G36*
X506586Y116706D02*
X506797D01*
Y116284D01*
X506586D01*
Y115441D01*
X503424D01*
Y115019D01*
X503213D01*
Y113965D01*
X503002D01*
Y113333D01*
X505532D01*
Y113122D01*
X505743D01*
Y112489D01*
X505532D01*
Y112068D01*
X502791D01*
Y111857D01*
X502580D01*
Y111224D01*
X502369D01*
Y111013D01*
X502580D01*
Y110802D01*
X502369D01*
Y110381D01*
X502159D01*
Y109748D01*
X505110D01*
Y108694D01*
X504899D01*
Y108272D01*
X500261D01*
Y109327D01*
X500472D01*
Y110592D01*
X500683D01*
Y111224D01*
X500894D01*
Y112068D01*
X501104D01*
Y113122D01*
X501315D01*
Y114176D01*
X501526D01*
Y115230D01*
X501737D01*
Y116074D01*
X501948D01*
Y116917D01*
X502369D01*
Y116706D01*
X502791D01*
Y116917D01*
X503002D01*
Y116706D01*
X503213D01*
Y116917D01*
X506586D01*
Y116706D01*
D02*
G37*
G36*
X500472D02*
X500683D01*
Y116284D01*
X500472D01*
Y115441D01*
X498153D01*
Y114387D01*
X497942D01*
Y113754D01*
X497731D01*
Y112700D01*
X497520D01*
Y111646D01*
X497309D01*
Y110381D01*
X497098D01*
Y109327D01*
X496888D01*
Y108272D01*
X494990D01*
Y108694D01*
X495201D01*
Y109748D01*
X495412D01*
Y110802D01*
X495622D01*
Y111857D01*
X495833D01*
Y112068D01*
X496044D01*
Y113544D01*
X496255D01*
Y114809D01*
X496466D01*
Y115441D01*
X494568D01*
Y116706D01*
X494779D01*
Y116917D01*
X496044D01*
Y116706D01*
X496255D01*
Y116917D01*
X499418D01*
Y116706D01*
X499628D01*
Y116917D01*
X500050D01*
Y116706D01*
X500261D01*
Y116917D01*
X500472D01*
Y116706D01*
D02*
G37*
G36*
X476436Y119447D02*
X477490D01*
Y119236D01*
X478334D01*
Y119025D01*
X478755D01*
Y118814D01*
X478966D01*
Y118604D01*
X479177D01*
Y118393D01*
X478966D01*
Y117971D01*
X478755D01*
Y117339D01*
X478544D01*
Y117128D01*
X478334D01*
Y116706D01*
X478123D01*
Y116917D01*
X477701D01*
Y117128D01*
X477069D01*
Y117339D01*
X476225D01*
Y117549D01*
X475382D01*
Y117760D01*
X474538D01*
Y117549D01*
X473695D01*
Y117339D01*
X473274D01*
Y117128D01*
X473063D01*
Y116917D01*
X472852D01*
Y115652D01*
X473063D01*
Y115441D01*
X473274D01*
Y115230D01*
X473695D01*
Y115019D01*
X474538D01*
Y114809D01*
X474960D01*
Y114598D01*
X476014D01*
Y114387D01*
X476858D01*
Y114176D01*
X477279D01*
Y113965D01*
X477912D01*
Y113754D01*
X478334D01*
Y113544D01*
X478544D01*
Y113333D01*
X478755D01*
Y113122D01*
X478966D01*
Y112911D01*
X479177D01*
Y112489D01*
X479388D01*
Y111857D01*
X479599D01*
Y110381D01*
X479388D01*
Y109748D01*
X479177D01*
Y109327D01*
X478966D01*
Y108905D01*
X478755D01*
Y108694D01*
X478334D01*
Y108483D01*
X478123D01*
Y108272D01*
X477701D01*
Y108062D01*
X477279D01*
Y107851D01*
X476647D01*
Y107640D01*
X475171D01*
Y107429D01*
X473906D01*
Y107640D01*
X472219D01*
Y107851D01*
X471587D01*
Y108062D01*
X470954D01*
Y108272D01*
X470532D01*
Y108483D01*
X470111D01*
Y108694D01*
X469900D01*
Y109116D01*
X470111D01*
Y109748D01*
X470322D01*
Y110170D01*
X470532D01*
Y110592D01*
X471376D01*
Y110381D01*
X471798D01*
Y110170D01*
X472219D01*
Y109959D01*
X473063D01*
Y109748D01*
X474117D01*
Y109537D01*
X474960D01*
Y109748D01*
X475803D01*
Y109959D01*
X476225D01*
Y110170D01*
X476436D01*
Y110381D01*
X476647D01*
Y110592D01*
X476858D01*
Y111435D01*
X476647D01*
Y111857D01*
X476225D01*
Y112068D01*
X475593D01*
Y112278D01*
X474960D01*
Y112489D01*
X474117D01*
Y112700D01*
X473274D01*
Y112911D01*
X472430D01*
Y113122D01*
X472008D01*
Y113333D01*
X471587D01*
Y113544D01*
X471165D01*
Y113754D01*
X470954D01*
Y113965D01*
X470743D01*
Y114176D01*
X470532D01*
Y114387D01*
X470322D01*
Y115019D01*
X470111D01*
Y117128D01*
X470322D01*
Y117549D01*
X470532D01*
Y117971D01*
X470743D01*
Y118393D01*
X471165D01*
Y118604D01*
X471376D01*
Y118814D01*
X471587D01*
Y119025D01*
X472219D01*
Y119236D01*
X472641D01*
Y119447D01*
X473484D01*
Y119658D01*
X476436D01*
Y119447D01*
D02*
G37*
G36*
X522610Y116706D02*
X523032D01*
Y116495D01*
X523453D01*
Y115863D01*
X523242D01*
Y115441D01*
X523032D01*
Y115230D01*
X522399D01*
Y115441D01*
X520712D01*
Y115230D01*
X520291D01*
Y114809D01*
X520080D01*
Y114387D01*
X520291D01*
Y113754D01*
X520502D01*
Y113544D01*
X520712D01*
Y113333D01*
X521134D01*
Y113122D01*
X521345D01*
Y112911D01*
X521556D01*
Y112700D01*
X521977D01*
Y112278D01*
X522188D01*
Y112068D01*
X522399D01*
Y111646D01*
X522610D01*
Y109959D01*
X522399D01*
Y109537D01*
X522188D01*
Y109116D01*
X521977D01*
Y108905D01*
X521767D01*
Y108694D01*
X521345D01*
Y108483D01*
X520712D01*
Y108272D01*
X520080D01*
Y108062D01*
X518815D01*
Y108272D01*
X517971D01*
Y108483D01*
X517550D01*
Y108694D01*
X517339D01*
Y109959D01*
X517971D01*
Y109748D01*
X518393D01*
Y109537D01*
X520080D01*
Y109748D01*
X520502D01*
Y109959D01*
X520712D01*
Y110170D01*
X520923D01*
Y111013D01*
X520712D01*
Y111435D01*
X520502D01*
Y111646D01*
X520291D01*
Y111857D01*
X519869D01*
Y112068D01*
X519658D01*
Y112278D01*
X519447D01*
Y112489D01*
X519236D01*
Y112700D01*
X519026D01*
Y112911D01*
X518815D01*
Y113122D01*
X518604D01*
Y113754D01*
X518393D01*
Y115441D01*
X518604D01*
Y115652D01*
X518815D01*
Y116074D01*
X519026D01*
Y116284D01*
X519447D01*
Y116495D01*
X519869D01*
Y116706D01*
X520291D01*
Y116917D01*
X522610D01*
Y116706D01*
D02*
G37*
G36*
X492460D02*
X493092D01*
Y116495D01*
X493303D01*
Y115652D01*
X493092D01*
Y115230D01*
X492460D01*
Y115441D01*
X490562D01*
Y115230D01*
X490141D01*
Y114809D01*
X489930D01*
Y114387D01*
X490141D01*
Y113754D01*
X490351D01*
Y113544D01*
X490562D01*
Y113333D01*
X490984D01*
Y113122D01*
X491195D01*
Y112911D01*
X491406D01*
Y112700D01*
X491617D01*
Y112489D01*
X491827D01*
Y112278D01*
X492038D01*
Y112068D01*
X492249D01*
Y111646D01*
X492460D01*
Y109959D01*
X492249D01*
Y109537D01*
X492038D01*
Y109116D01*
X491827D01*
Y108905D01*
X491617D01*
Y108694D01*
X491195D01*
Y108483D01*
X490773D01*
Y108272D01*
X490141D01*
Y108062D01*
X488454D01*
Y108272D01*
X487821D01*
Y108483D01*
X487400D01*
Y109959D01*
X488032D01*
Y109748D01*
X488454D01*
Y109537D01*
X490141D01*
Y109748D01*
X490351D01*
Y109959D01*
X490562D01*
Y110170D01*
X490773D01*
Y111013D01*
X490562D01*
Y111435D01*
X490351D01*
Y111646D01*
X489930D01*
Y111857D01*
X489719D01*
Y112068D01*
X489508D01*
Y112278D01*
X489297D01*
Y112489D01*
X488876D01*
Y112911D01*
X488665D01*
Y113122D01*
X488454D01*
Y113754D01*
X488243D01*
Y115230D01*
X488454D01*
Y115652D01*
X488665D01*
Y115863D01*
X488876D01*
Y116074D01*
X489086D01*
Y116284D01*
X489297D01*
Y116495D01*
X489719D01*
Y116706D01*
X490141D01*
Y116917D01*
X492460D01*
Y116706D01*
D02*
G37*
G36*
X487821Y116284D02*
X487611D01*
Y116074D01*
X487400D01*
Y115652D01*
X487189D01*
Y115441D01*
X486978D01*
Y115230D01*
X486767D01*
Y114809D01*
X486556D01*
Y114598D01*
X486345D01*
Y114387D01*
X486135D01*
Y113965D01*
X485924D01*
Y113754D01*
X485713D01*
Y113333D01*
X485502D01*
Y113122D01*
X485291D01*
Y112911D01*
X485080D01*
Y112489D01*
X484870D01*
Y112278D01*
X484659D01*
Y112068D01*
X484448D01*
Y111857D01*
X484237D01*
Y110592D01*
X484026D01*
Y109748D01*
X483815D01*
Y108272D01*
X481918D01*
Y108905D01*
X482129D01*
Y109959D01*
X482340D01*
Y111013D01*
X482550D01*
Y112278D01*
X482340D01*
Y113122D01*
X482129D01*
Y113754D01*
X481918D01*
Y114598D01*
X481707D01*
Y115230D01*
X481496D01*
Y116284D01*
X481285D01*
Y116917D01*
X482972D01*
Y116495D01*
X483183D01*
Y115441D01*
X483394D01*
Y114598D01*
X483605D01*
Y113754D01*
X483815D01*
Y113544D01*
X484026D01*
Y113754D01*
X484237D01*
Y114176D01*
X484448D01*
Y114598D01*
X484659D01*
Y114809D01*
X484870D01*
Y115230D01*
X485080D01*
Y115441D01*
X485291D01*
Y115863D01*
X485502D01*
Y116074D01*
X485713D01*
Y116495D01*
X485924D01*
Y116706D01*
X486135D01*
Y116917D01*
X487821D01*
Y116284D01*
D02*
G37*
G36*
X453033Y115863D02*
X452822D01*
Y115019D01*
X452611D01*
Y113544D01*
X452400D01*
Y112911D01*
X452189D01*
Y111857D01*
X451979D01*
Y111646D01*
Y111435D01*
Y110802D01*
X451768D01*
Y109748D01*
X451557D01*
Y108694D01*
X451346D01*
Y108272D01*
X449659D01*
Y108694D01*
X449449D01*
Y109116D01*
X449238D01*
Y109327D01*
X449027D01*
Y109748D01*
X448816D01*
Y110170D01*
X448605D01*
Y110592D01*
X448394D01*
Y110802D01*
X448184D01*
Y111224D01*
X447973D01*
Y111646D01*
X447762D01*
Y111857D01*
X447551D01*
Y112278D01*
X447340D01*
Y112700D01*
X447129D01*
Y113122D01*
X446918D01*
Y113333D01*
X446497D01*
Y112700D01*
X446286D01*
Y111646D01*
X446075D01*
Y110170D01*
X445864D01*
Y108905D01*
X445653D01*
Y108272D01*
X443756D01*
Y108905D01*
X443967D01*
Y110170D01*
X444178D01*
Y111435D01*
X444388D01*
Y112068D01*
X444599D01*
Y113122D01*
X444810D01*
Y114387D01*
X445021D01*
Y115441D01*
X445232D01*
Y116495D01*
X447129D01*
Y116074D01*
X447340D01*
Y115863D01*
X447551D01*
Y115441D01*
X447762D01*
Y115019D01*
X447973D01*
Y114598D01*
X448184D01*
Y114387D01*
X448394D01*
Y113965D01*
X448605D01*
Y113544D01*
X448816D01*
Y113122D01*
X449027D01*
Y112911D01*
X449238D01*
Y112489D01*
X449449D01*
Y112068D01*
X449659D01*
Y111646D01*
X449870D01*
Y111435D01*
X450081D01*
Y111857D01*
X450292D01*
Y112911D01*
X450503D01*
Y113544D01*
X450714D01*
Y113754D01*
X450503D01*
Y113965D01*
X450714D01*
Y114809D01*
X450924D01*
Y116074D01*
X451135D01*
Y116495D01*
X453033D01*
Y115863D01*
D02*
G37*
G36*
X516917Y115652D02*
X516707D01*
Y114598D01*
X516496D01*
Y113544D01*
X516285D01*
Y112278D01*
X516074D01*
Y111435D01*
X515863D01*
Y110381D01*
X515652D01*
Y109748D01*
Y109537D01*
Y109327D01*
X515441D01*
Y108272D01*
X513755D01*
Y108905D01*
X513965D01*
Y109959D01*
X514176D01*
Y111013D01*
X514387D01*
Y111857D01*
X514598D01*
Y112911D01*
X514809D01*
Y113754D01*
X515020D01*
Y114387D01*
X514809D01*
Y114176D01*
X514598D01*
Y113754D01*
X514387D01*
Y113544D01*
X514176D01*
Y112911D01*
X513965D01*
Y112489D01*
X513755D01*
Y112068D01*
X513544D01*
Y111646D01*
X513333D01*
Y111224D01*
X513122D01*
Y110802D01*
X512911D01*
Y110592D01*
X512701D01*
Y110170D01*
X512490D01*
Y109748D01*
X512279D01*
Y109327D01*
X512068D01*
Y108905D01*
X511857D01*
Y108483D01*
X511646D01*
Y108272D01*
X509960D01*
Y112700D01*
X509749D01*
Y114809D01*
X509538D01*
Y113754D01*
X509327D01*
Y112700D01*
X509116D01*
Y111857D01*
X508905D01*
Y110592D01*
X508694D01*
Y109748D01*
X508484D01*
Y108483D01*
X508273D01*
Y108272D01*
X508062D01*
Y108062D01*
X506797D01*
Y108905D01*
X507008D01*
Y110170D01*
X507219D01*
Y111224D01*
X507430D01*
Y112068D01*
X507640D01*
Y113122D01*
X507851D01*
Y113754D01*
X508062D01*
Y115019D01*
X508273D01*
Y115441D01*
X508484D01*
Y116495D01*
X508694D01*
Y116917D01*
X510803D01*
Y116495D01*
X511014D01*
Y113333D01*
X511225D01*
Y111013D01*
X511436D01*
Y110802D01*
X511646D01*
Y111224D01*
X511857D01*
Y111646D01*
X512068D01*
Y111857D01*
X512279D01*
Y112278D01*
X512490D01*
Y112700D01*
X512701D01*
Y113122D01*
X512911D01*
Y113544D01*
X513122D01*
Y113965D01*
X513333D01*
Y114387D01*
X513544D01*
Y114809D01*
X513755D01*
Y115230D01*
X513965D01*
Y115652D01*
X514176D01*
Y116074D01*
X514387D01*
Y116495D01*
X514598D01*
Y116917D01*
X516917D01*
Y115652D01*
D02*
G37*
G36*
X459991Y116284D02*
X460834D01*
Y116074D01*
X461256D01*
Y115863D01*
X461677D01*
Y115652D01*
X461888D01*
Y115441D01*
X462099D01*
Y115230D01*
X462310D01*
Y114809D01*
X462521D01*
Y114176D01*
X462732D01*
Y112068D01*
X462521D01*
Y111224D01*
X462310D01*
Y111013D01*
X462099D01*
Y110381D01*
X461888D01*
Y110170D01*
X461677D01*
Y109959D01*
X461466D01*
Y109748D01*
X461256D01*
Y109537D01*
X461045D01*
Y109327D01*
X460834D01*
Y109116D01*
X460412D01*
Y108905D01*
X459991D01*
Y108694D01*
X459569D01*
Y108483D01*
X459147D01*
Y108694D01*
X458936D01*
Y108483D01*
X458726D01*
Y108272D01*
X453455D01*
Y108694D01*
X453665D01*
Y110170D01*
X453876D01*
Y111013D01*
X454087D01*
Y111857D01*
X454298D01*
Y113122D01*
X454509D01*
Y114176D01*
X454720D01*
Y115441D01*
X454930D01*
Y116495D01*
X459991D01*
Y116284D01*
D02*
G37*
G36*
X443334Y116074D02*
X443123D01*
Y115652D01*
X442912D01*
Y114176D01*
X442702D01*
Y113333D01*
X442491D01*
Y113122D01*
X442702D01*
Y112911D01*
X442491D01*
Y112068D01*
X442280D01*
Y111224D01*
X442069D01*
Y109748D01*
X441858D01*
Y109537D01*
Y109327D01*
X441647D01*
Y108272D01*
X439750D01*
Y108905D01*
X439961D01*
Y109748D01*
X440172D01*
Y111013D01*
X440382D01*
Y112489D01*
X440593D01*
Y113754D01*
X440804D01*
Y114598D01*
X441015D01*
Y115230D01*
X441226D01*
Y116495D01*
X443334D01*
Y116074D01*
D02*
G37*
G36*
X435955Y115863D02*
X435744D01*
Y115652D01*
X435955D01*
Y115441D01*
X435744D01*
Y114809D01*
X435533D01*
Y113754D01*
X435322D01*
Y112489D01*
X435111D01*
Y111224D01*
X434901D01*
Y111013D01*
X434690D01*
Y109748D01*
X437431D01*
Y109959D01*
X438696D01*
Y108694D01*
X438485D01*
Y108483D01*
X438696D01*
Y108272D01*
X432581D01*
Y109748D01*
X432792D01*
Y111013D01*
X433003D01*
Y111646D01*
Y111857D01*
Y112068D01*
X433214D01*
Y112700D01*
X433425D01*
Y113754D01*
X433636D01*
Y115019D01*
X433846D01*
Y116074D01*
X434057D01*
Y116495D01*
X435955D01*
Y115863D01*
D02*
G37*
G36*
X427310Y119025D02*
X428154D01*
Y118814D01*
X428575D01*
Y118604D01*
X428997D01*
Y118393D01*
X429208D01*
Y118182D01*
X429419D01*
Y117760D01*
X429630D01*
Y117339D01*
X429840D01*
Y115441D01*
X429630D01*
Y115019D01*
X429419D01*
Y114598D01*
X429208D01*
Y114387D01*
X428997D01*
Y114176D01*
X428786D01*
Y113965D01*
X428575D01*
Y113544D01*
X428786D01*
Y113333D01*
X429419D01*
Y113122D01*
X429630D01*
Y112911D01*
X429840D01*
Y112489D01*
X430051D01*
Y112278D01*
X430262D01*
Y111224D01*
X430473D01*
Y110592D01*
X430262D01*
Y109748D01*
X430051D01*
Y109327D01*
X429840D01*
Y108905D01*
X429630D01*
Y108694D01*
X429419D01*
Y108483D01*
X428997D01*
Y108272D01*
X428575D01*
Y108062D01*
X428154D01*
Y107851D01*
X427099D01*
Y107640D01*
X419931D01*
Y119236D01*
X427310D01*
Y119025D01*
D02*
G37*
%LPC*%
G36*
X502580Y223602D02*
X409600D01*
Y223391D01*
X409389D01*
Y223602D01*
X409178D01*
Y223391D01*
X408546D01*
Y223180D01*
X408335D01*
Y222969D01*
X408124D01*
Y222759D01*
X407702D01*
Y222548D01*
X407491D01*
Y222337D01*
X407281D01*
Y222126D01*
X407070D01*
Y221915D01*
X406859D01*
Y221704D01*
X406648D01*
Y221072D01*
X406437D01*
Y220228D01*
X406226D01*
Y166675D01*
Y166464D01*
Y150862D01*
X406437D01*
Y150019D01*
X406648D01*
Y149597D01*
X406859D01*
Y149175D01*
X407070D01*
Y148965D01*
X407281D01*
Y148754D01*
X407491D01*
Y148543D01*
X407702D01*
Y148332D01*
X407913D01*
Y148121D01*
X408335D01*
Y147910D01*
X408756D01*
Y147699D01*
X409178D01*
Y147489D01*
X427310D01*
Y147699D01*
X427521D01*
Y147910D01*
X427732D01*
Y148121D01*
X427943D01*
Y148332D01*
X428154D01*
Y148543D01*
X428364D01*
Y148965D01*
X428786D01*
Y149386D01*
X428997D01*
Y149597D01*
X429208D01*
Y149808D01*
X429419D01*
Y150019D01*
X429630D01*
Y150230D01*
X429840D01*
Y150440D01*
X430051D01*
Y150651D01*
X430262D01*
Y150862D01*
X430473D01*
Y151073D01*
X430684D01*
Y151284D01*
X430895D01*
Y151495D01*
X431105D01*
Y151706D01*
X431316D01*
Y151916D01*
X431527D01*
Y152127D01*
X431738D01*
Y152338D01*
X431949D01*
Y152549D01*
X432160D01*
Y152760D01*
X432370D01*
Y152971D01*
X432581D01*
Y153181D01*
X432792D01*
Y153392D01*
X433003D01*
Y153603D01*
X433214D01*
Y153814D01*
X433425D01*
Y154025D01*
X433636D01*
Y154236D01*
X433846D01*
Y154446D01*
X434057D01*
Y154657D01*
X434268D01*
Y154868D01*
X434479D01*
Y155079D01*
X434690D01*
Y155290D01*
X434901D01*
Y155501D01*
X435111D01*
Y155711D01*
X435322D01*
Y155922D01*
X435533D01*
Y156133D01*
X435744D01*
Y156555D01*
X436166D01*
Y156976D01*
X436376D01*
Y157187D01*
X436587D01*
Y157398D01*
X436798D01*
Y157609D01*
X437220D01*
Y157820D01*
X437431D01*
Y158031D01*
X437641D01*
Y158452D01*
X438063D01*
Y158874D01*
X438274D01*
Y159085D01*
X438485D01*
Y159296D01*
X438696D01*
Y159507D01*
X439117D01*
Y159928D01*
X439539D01*
Y160350D01*
X439750D01*
Y160561D01*
X439961D01*
Y160772D01*
X440172D01*
Y160982D01*
X440382D01*
Y161193D01*
X440593D01*
Y161404D01*
X440804D01*
Y161615D01*
X441015D01*
Y161826D01*
X441226D01*
Y162037D01*
X441437D01*
Y162248D01*
X441647D01*
Y162458D01*
X441858D01*
Y162669D01*
X442069D01*
Y162880D01*
X442280D01*
Y163091D01*
X442491D01*
Y163302D01*
X442702D01*
Y163512D01*
X442912D01*
Y163723D01*
X443123D01*
Y163934D01*
X443334D01*
Y164145D01*
X443756D01*
Y164356D01*
X443967D01*
Y164567D01*
X444178D01*
Y164778D01*
X444388D01*
Y164988D01*
X444599D01*
Y165199D01*
X444810D01*
Y165410D01*
X445021D01*
Y165621D01*
X445232D01*
Y165832D01*
X445443D01*
Y166043D01*
X445653D01*
Y166253D01*
X445864D01*
Y166464D01*
X446075D01*
Y166675D01*
X446286D01*
Y166886D01*
X446497D01*
Y167097D01*
X446708D01*
Y167308D01*
X446918D01*
Y167519D01*
X447129D01*
Y167729D01*
X447340D01*
Y167940D01*
X447551D01*
Y168362D01*
X447973D01*
Y168573D01*
X448184D01*
Y168783D01*
X448394D01*
Y169205D01*
X448816D01*
Y169627D01*
X449027D01*
Y169838D01*
X449238D01*
Y170049D01*
X449449D01*
Y170259D01*
X449659D01*
Y170470D01*
X449870D01*
Y170681D01*
X450081D01*
Y170892D01*
X450292D01*
Y171103D01*
X450503D01*
Y171314D01*
X450714D01*
Y171524D01*
X450924D01*
Y171735D01*
X451135D01*
Y171946D01*
X451346D01*
Y172157D01*
X451557D01*
Y172368D01*
X451768D01*
Y172579D01*
X451979D01*
Y172789D01*
X452189D01*
Y173000D01*
X452400D01*
Y173211D01*
X452611D01*
Y173422D01*
X452822D01*
Y173633D01*
X453033D01*
Y173844D01*
X453244D01*
Y174055D01*
X453455D01*
Y174265D01*
X453665D01*
Y174476D01*
X453876D01*
Y174687D01*
X454087D01*
Y174898D01*
X454298D01*
Y175109D01*
X454509D01*
Y175319D01*
X454720D01*
Y175530D01*
X454930D01*
Y175741D01*
X455141D01*
Y175952D01*
X455352D01*
Y176163D01*
X455563D01*
Y176374D01*
X455774D01*
Y176585D01*
X455985D01*
Y176795D01*
X456195D01*
Y177006D01*
X456406D01*
Y177217D01*
X456617D01*
Y177428D01*
X456828D01*
Y177639D01*
X457039D01*
Y177850D01*
X457250D01*
Y178060D01*
X457461D01*
Y178271D01*
X457671D01*
Y178482D01*
X457882D01*
Y178693D01*
X458093D01*
Y178904D01*
X458304D01*
Y179115D01*
X458515D01*
Y179326D01*
X458726D01*
Y179536D01*
X458936D01*
Y179747D01*
X459147D01*
Y179958D01*
X459358D01*
Y180169D01*
X459569D01*
Y180380D01*
X459780D01*
Y180590D01*
X459991D01*
Y180801D01*
X460201D01*
Y181012D01*
X460412D01*
Y181223D01*
X460623D01*
Y181434D01*
X460834D01*
Y181645D01*
X461045D01*
Y181856D01*
X461256D01*
Y182066D01*
X461466D01*
Y182277D01*
X461677D01*
Y182488D01*
X461888D01*
Y182699D01*
X462099D01*
Y182910D01*
X462310D01*
Y183121D01*
X462521D01*
Y183331D01*
X462732D01*
Y183542D01*
X462942D01*
Y183753D01*
X463153D01*
Y183964D01*
X463364D01*
Y184175D01*
X463575D01*
Y184386D01*
X463786D01*
Y184597D01*
X463997D01*
Y184807D01*
X464207D01*
Y185018D01*
X464418D01*
Y185229D01*
X464629D01*
Y185440D01*
X464840D01*
Y185651D01*
X465261D01*
Y186072D01*
X465472D01*
Y186283D01*
X465683D01*
Y186494D01*
X465894D01*
Y186705D01*
X466105D01*
Y186916D01*
X466316D01*
Y187127D01*
X466527D01*
Y187337D01*
X466737D01*
Y187548D01*
X466948D01*
Y187759D01*
X467159D01*
Y187970D01*
X467370D01*
Y188181D01*
X467792D01*
Y188602D01*
X468002D01*
Y188813D01*
X468213D01*
Y189024D01*
X468424D01*
Y189235D01*
X468635D01*
Y189446D01*
X468846D01*
Y189657D01*
X469057D01*
Y189867D01*
X469268D01*
Y190078D01*
X469478D01*
Y190289D01*
X469689D01*
Y190500D01*
X469900D01*
Y190711D01*
X470111D01*
Y190922D01*
X470322D01*
Y191133D01*
X470532D01*
Y191343D01*
X470743D01*
Y191554D01*
X470954D01*
Y191765D01*
X471165D01*
Y191976D01*
X471587D01*
Y192398D01*
X472008D01*
Y192819D01*
X472430D01*
Y193030D01*
X472641D01*
Y193241D01*
X472852D01*
Y193663D01*
X473274D01*
Y194084D01*
X473695D01*
Y194506D01*
X474117D01*
Y194928D01*
X474328D01*
Y195138D01*
X474538D01*
Y195349D01*
X474960D01*
Y195771D01*
X475171D01*
Y195982D01*
X475382D01*
Y196193D01*
X475593D01*
Y196404D01*
X475803D01*
Y196614D01*
X476014D01*
Y196825D01*
X476225D01*
Y197036D01*
X476436D01*
Y197247D01*
X476647D01*
Y197458D01*
X476858D01*
Y197668D01*
X477069D01*
Y197879D01*
X477279D01*
Y198090D01*
X477490D01*
Y198301D01*
X477701D01*
Y198512D01*
X477912D01*
Y198723D01*
X478123D01*
Y198934D01*
X478334D01*
Y199144D01*
X478544D01*
Y199355D01*
X478755D01*
Y199566D01*
X478966D01*
Y199777D01*
X479177D01*
Y199988D01*
X479388D01*
Y200199D01*
X479599D01*
Y200410D01*
X479809D01*
Y200620D01*
X480020D01*
Y200831D01*
X480231D01*
Y201042D01*
X480442D01*
Y201253D01*
X480653D01*
Y201464D01*
X480864D01*
Y201674D01*
X481074D01*
Y201885D01*
X481285D01*
Y202096D01*
X481496D01*
Y202307D01*
X481707D01*
Y202518D01*
X482129D01*
Y202939D01*
X482340D01*
Y203150D01*
X482550D01*
Y203361D01*
X482761D01*
Y203572D01*
X482972D01*
Y203783D01*
X483183D01*
Y203994D01*
X483394D01*
Y204205D01*
X483605D01*
Y204415D01*
X483815D01*
Y204626D01*
X484026D01*
Y204837D01*
X484237D01*
Y205048D01*
X484448D01*
Y205259D01*
X484659D01*
Y205470D01*
X484870D01*
Y205681D01*
X485080D01*
Y205891D01*
X485291D01*
Y206102D01*
X485502D01*
Y206313D01*
X485713D01*
Y206524D01*
X485924D01*
Y206735D01*
X486135D01*
Y206945D01*
X486345D01*
Y207156D01*
X486556D01*
Y207367D01*
X486767D01*
Y207578D01*
X486978D01*
Y207789D01*
X487189D01*
Y208000D01*
X487400D01*
Y208211D01*
X487611D01*
Y208421D01*
X487821D01*
Y208632D01*
X488032D01*
Y208843D01*
X488243D01*
Y209054D01*
X488454D01*
Y209265D01*
X488665D01*
Y209476D01*
X488876D01*
Y209686D01*
X489086D01*
Y209897D01*
X489297D01*
Y210108D01*
X489508D01*
Y210319D01*
X489719D01*
Y210530D01*
X489930D01*
Y210741D01*
X490141D01*
Y210951D01*
X490351D01*
Y211162D01*
X490562D01*
Y211373D01*
X490773D01*
Y211584D01*
X490984D01*
Y211795D01*
X491195D01*
Y212006D01*
X491406D01*
Y212216D01*
X491617D01*
Y212427D01*
X491827D01*
Y212638D01*
X492038D01*
Y212849D01*
X492249D01*
Y213060D01*
X492460D01*
Y213271D01*
X492671D01*
Y213482D01*
X492882D01*
Y213692D01*
X493092D01*
Y213903D01*
X493303D01*
Y214114D01*
X493514D01*
Y214325D01*
X493725D01*
Y214536D01*
X493936D01*
Y214747D01*
X494147D01*
Y214957D01*
X494357D01*
Y215168D01*
X494568D01*
Y215379D01*
X494779D01*
Y215590D01*
X494990D01*
Y215801D01*
X495201D01*
Y216012D01*
X495412D01*
Y216222D01*
X495622D01*
Y216433D01*
X495833D01*
Y216644D01*
X496044D01*
Y216855D01*
X496255D01*
Y217066D01*
X496466D01*
Y217277D01*
X496677D01*
Y217488D01*
X496888D01*
Y217698D01*
X497098D01*
Y217909D01*
X497309D01*
Y218120D01*
X497520D01*
Y218331D01*
X497731D01*
Y218542D01*
X497942D01*
Y218752D01*
X498153D01*
Y218963D01*
X498363D01*
Y219174D01*
X498574D01*
Y219385D01*
X498785D01*
Y219596D01*
X498996D01*
Y220018D01*
X499418D01*
Y220228D01*
X499628D01*
Y220439D01*
X499839D01*
Y220650D01*
X500050D01*
Y220861D01*
X500261D01*
Y221072D01*
X500472D01*
Y221283D01*
X500683D01*
Y221493D01*
X500894D01*
Y221704D01*
X501104D01*
Y222126D01*
X501526D01*
Y222548D01*
X501948D01*
Y222759D01*
X502159D01*
Y222969D01*
X502369D01*
Y223180D01*
X502580D01*
Y223602D01*
D02*
G37*
G36*
X400323Y188392D02*
X400112D01*
Y188181D01*
X400323D01*
Y188392D01*
D02*
G37*
G36*
X523242Y223602D02*
X509960D01*
Y223391D01*
X509538D01*
Y223180D01*
X509327D01*
Y222969D01*
X509116D01*
Y222759D01*
X508905D01*
Y222548D01*
X508694D01*
Y222337D01*
X508484D01*
Y221915D01*
X508273D01*
Y221704D01*
X507851D01*
Y221283D01*
X507640D01*
Y221072D01*
X507430D01*
Y220861D01*
X507008D01*
Y220439D01*
X506797D01*
Y220228D01*
X506586D01*
Y220018D01*
X506165D01*
Y219596D01*
X505954D01*
Y219385D01*
X505743D01*
Y219174D01*
X505532D01*
Y218963D01*
X505321D01*
Y218752D01*
X505110D01*
Y218542D01*
X504899D01*
Y218331D01*
X504478D01*
Y217909D01*
X504267D01*
Y217698D01*
X504056D01*
Y217488D01*
X503845D01*
Y217277D01*
X503634D01*
Y217066D01*
X503424D01*
Y216855D01*
X503213D01*
Y216644D01*
X503002D01*
Y216433D01*
X502791D01*
Y216222D01*
X502580D01*
Y216012D01*
X502369D01*
Y215801D01*
X502159D01*
Y215590D01*
X501948D01*
Y215379D01*
X501737D01*
Y215168D01*
X501526D01*
Y214957D01*
X501315D01*
Y214747D01*
X501104D01*
Y214536D01*
X500894D01*
Y214325D01*
X500683D01*
Y214114D01*
X500472D01*
Y213903D01*
X500261D01*
Y213692D01*
X500050D01*
Y213482D01*
X499839D01*
Y213271D01*
X499628D01*
Y213060D01*
X499418D01*
Y212849D01*
X499207D01*
Y212638D01*
X498996D01*
Y212427D01*
X498785D01*
Y212216D01*
X498574D01*
Y212006D01*
X498363D01*
Y211795D01*
X498153D01*
Y211584D01*
X497942D01*
Y211373D01*
X497731D01*
Y211162D01*
X497520D01*
Y210951D01*
X497309D01*
Y210741D01*
X497098D01*
Y210530D01*
X496888D01*
Y210319D01*
X496677D01*
Y210108D01*
X496466D01*
Y209897D01*
X496255D01*
Y209686D01*
X496044D01*
Y209476D01*
X495833D01*
Y209265D01*
X495622D01*
Y209054D01*
X495412D01*
Y208843D01*
X495201D01*
Y208632D01*
X494990D01*
Y208421D01*
X494779D01*
Y208211D01*
X494568D01*
Y208000D01*
X494357D01*
Y207789D01*
X494147D01*
Y207578D01*
X493936D01*
Y207367D01*
X493725D01*
Y207156D01*
X493514D01*
Y206945D01*
X493303D01*
Y206735D01*
X493092D01*
Y206524D01*
X492671D01*
Y206102D01*
X492460D01*
Y205891D01*
X492249D01*
Y205681D01*
X492038D01*
Y205470D01*
X491827D01*
Y205259D01*
X491617D01*
Y205048D01*
X491406D01*
Y204837D01*
X490984D01*
Y204415D01*
X490773D01*
Y204205D01*
X490562D01*
Y203994D01*
X490351D01*
Y203783D01*
X490141D01*
Y203572D01*
X489930D01*
Y203361D01*
X489719D01*
Y203150D01*
X489508D01*
Y202939D01*
X489297D01*
Y202729D01*
X489086D01*
Y202518D01*
X488876D01*
Y202307D01*
X488665D01*
Y202096D01*
X488454D01*
Y201885D01*
X488243D01*
Y201674D01*
X488032D01*
Y201464D01*
X487821D01*
Y201253D01*
X487611D01*
Y201042D01*
X487400D01*
Y200831D01*
X487189D01*
Y200620D01*
X486978D01*
Y200410D01*
X486767D01*
Y200199D01*
X486556D01*
Y199988D01*
X486345D01*
Y199777D01*
X486135D01*
Y199566D01*
X485924D01*
Y199355D01*
X485713D01*
Y199144D01*
X485502D01*
Y198934D01*
X485291D01*
Y198512D01*
X484870D01*
Y198301D01*
X484659D01*
Y198090D01*
X484448D01*
Y197879D01*
X484237D01*
Y197668D01*
X484026D01*
Y197458D01*
X483815D01*
Y197247D01*
X483605D01*
Y197036D01*
X483394D01*
Y196825D01*
X483183D01*
Y196614D01*
X482972D01*
Y196404D01*
X482761D01*
Y196193D01*
X482550D01*
Y195982D01*
X482340D01*
Y195771D01*
X482129D01*
Y195560D01*
X481918D01*
Y195349D01*
X481707D01*
Y195138D01*
X481496D01*
Y194928D01*
X481285D01*
Y194717D01*
X481074D01*
Y194506D01*
X480864D01*
Y194295D01*
X480653D01*
Y194084D01*
X480442D01*
Y193873D01*
X480231D01*
Y193663D01*
X480020D01*
Y193452D01*
X479809D01*
Y193241D01*
X479599D01*
Y193030D01*
X479388D01*
Y192819D01*
X479177D01*
Y192608D01*
X478966D01*
Y192398D01*
X478755D01*
Y192187D01*
X478544D01*
Y191976D01*
X478334D01*
Y191765D01*
X478123D01*
Y191554D01*
X477912D01*
Y191343D01*
X477701D01*
Y191133D01*
X477490D01*
Y190922D01*
X477279D01*
Y190711D01*
X477069D01*
Y190500D01*
X476858D01*
Y190289D01*
X476647D01*
Y190078D01*
X476436D01*
Y189867D01*
X476225D01*
Y189657D01*
X476014D01*
Y189446D01*
X475803D01*
Y189235D01*
X475593D01*
Y189024D01*
X475382D01*
Y188813D01*
X475171D01*
Y188602D01*
X474960D01*
Y188392D01*
X474749D01*
Y188181D01*
X474538D01*
Y187970D01*
X474328D01*
Y187759D01*
X474117D01*
Y187548D01*
X473906D01*
Y187337D01*
X473695D01*
Y187127D01*
X473484D01*
Y186916D01*
X473274D01*
Y186705D01*
X473063D01*
Y186494D01*
X472852D01*
Y186283D01*
X472641D01*
Y186072D01*
X472430D01*
Y185861D01*
X472219D01*
Y185651D01*
X472008D01*
Y185440D01*
X471798D01*
Y185229D01*
X471587D01*
Y185018D01*
X471376D01*
Y184807D01*
X471165D01*
Y184597D01*
X470954D01*
Y184386D01*
X470743D01*
Y184175D01*
X470532D01*
Y183964D01*
X470322D01*
Y183753D01*
X470111D01*
Y183542D01*
X469900D01*
Y183331D01*
X469689D01*
Y183121D01*
X469478D01*
Y182910D01*
X469268D01*
Y182699D01*
X469057D01*
Y182488D01*
X468846D01*
Y182277D01*
X468635D01*
Y182066D01*
X468424D01*
Y181856D01*
X468213D01*
Y181645D01*
X468002D01*
Y181434D01*
X467792D01*
Y181223D01*
X467581D01*
Y181012D01*
X467370D01*
Y180801D01*
X467159D01*
Y180590D01*
X466948D01*
Y180380D01*
X466737D01*
Y180169D01*
X466527D01*
Y179958D01*
X466316D01*
Y179747D01*
X466105D01*
Y179536D01*
X465894D01*
Y179326D01*
X465683D01*
Y179115D01*
X465472D01*
Y178904D01*
X465261D01*
Y178693D01*
X465051D01*
Y178482D01*
X464840D01*
Y178271D01*
X464629D01*
Y178060D01*
X464418D01*
Y177850D01*
X464207D01*
Y177639D01*
X463997D01*
Y177428D01*
X463786D01*
Y177217D01*
X463575D01*
Y177006D01*
X463364D01*
Y176795D01*
X463153D01*
Y176585D01*
X462942D01*
Y176374D01*
X462732D01*
Y176163D01*
X462521D01*
Y175952D01*
X462310D01*
Y175741D01*
X462099D01*
Y175530D01*
X461888D01*
Y175109D01*
X461677D01*
Y174898D01*
X461256D01*
Y174687D01*
X461045D01*
Y174476D01*
X460834D01*
Y174265D01*
X460623D01*
Y174055D01*
X460412D01*
Y173844D01*
X460201D01*
Y173422D01*
X459991D01*
Y173211D01*
X459780D01*
Y173000D01*
X459569D01*
Y172789D01*
X459147D01*
Y172579D01*
X458936D01*
Y172368D01*
X458726D01*
Y172157D01*
X458515D01*
Y171946D01*
X458304D01*
Y171735D01*
X458093D01*
Y171524D01*
X457882D01*
Y171103D01*
X457461D01*
Y170892D01*
X457250D01*
Y170681D01*
X457039D01*
Y170470D01*
X456828D01*
Y170259D01*
X456617D01*
Y170049D01*
X456406D01*
Y169838D01*
X456195D01*
Y169416D01*
X455774D01*
Y169205D01*
X455563D01*
Y168783D01*
X455352D01*
Y168573D01*
X455141D01*
Y168362D01*
X454930D01*
Y168151D01*
X454509D01*
Y167940D01*
X454298D01*
Y167729D01*
X454087D01*
Y167519D01*
X453876D01*
Y167308D01*
X453665D01*
Y167097D01*
X453455D01*
Y166675D01*
X453244D01*
Y166464D01*
X453033D01*
Y166253D01*
X452822D01*
Y166043D01*
X452400D01*
Y165832D01*
X452189D01*
Y165410D01*
X451768D01*
Y165199D01*
X451557D01*
Y164988D01*
X451346D01*
Y164778D01*
X451135D01*
Y164567D01*
X450924D01*
Y164356D01*
X450714D01*
Y164145D01*
X450503D01*
Y163723D01*
X450292D01*
Y163512D01*
X450081D01*
Y163302D01*
X449870D01*
Y163091D01*
X449659D01*
Y162880D01*
X449449D01*
Y162669D01*
X449027D01*
Y162248D01*
X448816D01*
Y162037D01*
X448605D01*
Y161826D01*
X448394D01*
Y161615D01*
X448184D01*
Y161404D01*
X447973D01*
Y161193D01*
X447762D01*
Y160982D01*
X447340D01*
Y160772D01*
X447129D01*
Y160350D01*
X446918D01*
Y160139D01*
X446708D01*
Y159928D01*
X446497D01*
Y159717D01*
X446286D01*
Y159507D01*
X446075D01*
Y159296D01*
X445653D01*
Y159085D01*
X445443D01*
Y158663D01*
X445232D01*
Y158452D01*
X445021D01*
Y158242D01*
X444810D01*
Y158031D01*
X444599D01*
Y157820D01*
X444388D01*
Y157609D01*
X444178D01*
Y157398D01*
X443967D01*
Y157187D01*
X443756D01*
Y156976D01*
X443545D01*
Y156766D01*
X443334D01*
Y156555D01*
X443123D01*
Y156344D01*
X442912D01*
Y156133D01*
X442702D01*
Y155922D01*
X442280D01*
Y155501D01*
X442069D01*
Y155290D01*
X441858D01*
Y155079D01*
X441647D01*
Y154868D01*
X441437D01*
Y154657D01*
X441226D01*
Y154446D01*
X441015D01*
Y154236D01*
X440804D01*
Y154025D01*
X440593D01*
Y153814D01*
X440382D01*
Y153603D01*
X440172D01*
Y153392D01*
X439961D01*
Y153181D01*
X439750D01*
Y152971D01*
X439539D01*
Y152760D01*
X439328D01*
Y152549D01*
X439117D01*
Y152338D01*
X438907D01*
Y152127D01*
X438696D01*
Y151916D01*
X438485D01*
Y151706D01*
X438274D01*
Y151495D01*
X438063D01*
Y151284D01*
X437852D01*
Y151073D01*
X437641D01*
Y150862D01*
X437431D01*
Y150651D01*
X437220D01*
Y150440D01*
X437009D01*
Y150230D01*
X436798D01*
Y150019D01*
X436587D01*
Y149808D01*
X436376D01*
Y149597D01*
X436166D01*
Y149386D01*
X435955D01*
Y149175D01*
X435744D01*
Y148965D01*
X435533D01*
Y148543D01*
X435111D01*
Y148121D01*
X434901D01*
Y147910D01*
X434690D01*
Y147699D01*
X434479D01*
Y147489D01*
X523664D01*
Y147699D01*
X524086D01*
Y147910D01*
X524718D01*
Y148121D01*
X524929D01*
Y148332D01*
X525140D01*
Y148543D01*
X525351D01*
Y148754D01*
X525562D01*
Y148965D01*
X525773D01*
Y149175D01*
X525983D01*
Y149597D01*
X526194D01*
Y150019D01*
X526405D01*
Y151073D01*
X526616D01*
Y195349D01*
Y195560D01*
Y220228D01*
X526405D01*
Y221072D01*
X526194D01*
Y221493D01*
X525983D01*
Y221915D01*
X525773D01*
Y222126D01*
X525562D01*
Y222337D01*
X525351D01*
Y222548D01*
X525140D01*
Y222759D01*
X524929D01*
Y222969D01*
X524507D01*
Y223180D01*
X523875D01*
Y223391D01*
X523242D01*
Y223602D01*
D02*
G37*
%LPD*%
G36*
X469057Y210951D02*
X472852D01*
Y210741D01*
X474960D01*
Y210530D01*
X476436D01*
Y210319D01*
X477279D01*
Y210108D01*
X478123D01*
Y209897D01*
X479177D01*
Y209686D01*
X480020D01*
Y209476D01*
X480864D01*
Y209265D01*
X481707D01*
Y209054D01*
X482340D01*
Y208843D01*
X482972D01*
Y208632D01*
X483605D01*
Y208421D01*
X484237D01*
Y208211D01*
X484448D01*
Y208000D01*
X484237D01*
Y207789D01*
X484026D01*
Y207578D01*
X483815D01*
Y207367D01*
X483605D01*
Y207156D01*
X483394D01*
Y206945D01*
X483183D01*
Y206524D01*
X482761D01*
Y206313D01*
X482550D01*
Y206102D01*
X482340D01*
Y205681D01*
X482129D01*
Y205470D01*
X481707D01*
Y205048D01*
X481285D01*
Y204837D01*
X480864D01*
Y205048D01*
X480020D01*
Y205259D01*
X479177D01*
Y205470D01*
X478544D01*
Y205681D01*
X477490D01*
Y205891D01*
X476225D01*
Y206102D01*
X474960D01*
Y206313D01*
X473484D01*
Y206524D01*
X472430D01*
Y206735D01*
X463997D01*
Y206524D01*
X462521D01*
Y206313D01*
X461677D01*
Y206102D01*
X460201D01*
Y205891D01*
X458936D01*
Y205681D01*
X458093D01*
Y205470D01*
X457461D01*
Y205259D01*
X456617D01*
Y205048D01*
X455774D01*
Y204837D01*
X455141D01*
Y204626D01*
X454509D01*
Y204415D01*
X453876D01*
Y204205D01*
X453244D01*
Y203994D01*
X452611D01*
Y203783D01*
X452189D01*
Y203572D01*
X451768D01*
Y203361D01*
X451135D01*
Y203150D01*
X450503D01*
Y202939D01*
X450081D01*
Y202729D01*
X449449D01*
Y202518D01*
X449238D01*
Y202307D01*
X448605D01*
Y202096D01*
X448184D01*
Y201885D01*
X447762D01*
Y201674D01*
X447340D01*
Y201464D01*
X446918D01*
Y201253D01*
X446497D01*
Y201042D01*
X446075D01*
Y200831D01*
X445653D01*
Y200620D01*
X445232D01*
Y200410D01*
X445021D01*
Y200199D01*
X444599D01*
Y199988D01*
X444178D01*
Y199777D01*
X443756D01*
Y199566D01*
X443545D01*
Y199355D01*
X443123D01*
Y199144D01*
X442702D01*
Y198934D01*
X442491D01*
Y198723D01*
X442069D01*
Y198512D01*
X441858D01*
Y198301D01*
X441437D01*
Y198090D01*
X441226D01*
Y197879D01*
X440804D01*
Y197668D01*
X440593D01*
Y197458D01*
X440172D01*
Y197247D01*
X439961D01*
Y197036D01*
X439750D01*
Y196825D01*
X439328D01*
Y196614D01*
X439117D01*
Y196404D01*
X438696D01*
Y196193D01*
X438485D01*
Y195982D01*
X438063D01*
Y195771D01*
X437852D01*
Y195560D01*
X437641D01*
Y195349D01*
X437220D01*
Y195138D01*
X437009D01*
Y194928D01*
X436798D01*
Y194717D01*
X436376D01*
Y194506D01*
X436166D01*
Y194295D01*
X435955D01*
Y194084D01*
X435744D01*
Y193873D01*
X435322D01*
Y193663D01*
X435111D01*
Y193452D01*
X434901D01*
Y193241D01*
X434690D01*
Y193030D01*
X434268D01*
Y192819D01*
X434057D01*
Y192608D01*
X433846D01*
Y192398D01*
X433636D01*
Y192187D01*
X433425D01*
Y191976D01*
X433214D01*
Y191765D01*
X432792D01*
Y191554D01*
X432581D01*
Y191343D01*
X432370D01*
Y191133D01*
X432160D01*
Y190922D01*
X431949D01*
Y190711D01*
X431738D01*
Y190500D01*
X431527D01*
Y190289D01*
X431316D01*
Y190078D01*
X430895D01*
Y189867D01*
X430684D01*
Y189657D01*
X430473D01*
Y189446D01*
X430262D01*
Y189235D01*
X430051D01*
Y189024D01*
X429840D01*
Y188813D01*
X429630D01*
Y188602D01*
X429419D01*
Y188392D01*
X429208D01*
Y188181D01*
X428997D01*
Y187970D01*
X428575D01*
Y187548D01*
X428364D01*
Y187337D01*
X428154D01*
Y187127D01*
X427943D01*
Y186916D01*
X427732D01*
Y186705D01*
X427521D01*
Y186494D01*
X427310D01*
Y186283D01*
X427099D01*
Y186072D01*
X426889D01*
Y185651D01*
X426678D01*
Y185440D01*
X426467D01*
Y185229D01*
X426678D01*
Y184807D01*
X426889D01*
Y184597D01*
X427099D01*
Y184386D01*
X427310D01*
Y184175D01*
X427521D01*
Y183964D01*
X427732D01*
Y183542D01*
X427943D01*
Y183331D01*
X428154D01*
Y183121D01*
X428364D01*
Y182910D01*
X428575D01*
Y182699D01*
X428786D01*
Y182488D01*
X429208D01*
Y182066D01*
X429630D01*
Y181645D01*
X430051D01*
Y181434D01*
X430262D01*
Y181012D01*
X430684D01*
Y180801D01*
X430895D01*
Y180590D01*
X431105D01*
Y180380D01*
X431316D01*
Y180169D01*
X431527D01*
Y179958D01*
X431738D01*
Y179747D01*
X431949D01*
Y179536D01*
X432160D01*
Y179326D01*
X432370D01*
Y179115D01*
X432792D01*
Y178904D01*
X433003D01*
Y178693D01*
X433214D01*
Y178482D01*
X433425D01*
Y178271D01*
X433636D01*
Y178060D01*
X433846D01*
Y177850D01*
X434268D01*
Y177639D01*
X434479D01*
Y177428D01*
X434690D01*
Y177217D01*
X434901D01*
Y177006D01*
X435322D01*
Y176795D01*
X435533D01*
Y176585D01*
X435744D01*
Y176374D01*
X435955D01*
Y176163D01*
X436376D01*
Y175952D01*
X436587D01*
Y175741D01*
X436798D01*
Y175530D01*
X437220D01*
Y175319D01*
X437431D01*
Y175109D01*
X437641D01*
Y174898D01*
X437852D01*
Y174687D01*
X438274D01*
Y174476D01*
X438696D01*
Y174265D01*
X438907D01*
Y174055D01*
X439117D01*
Y173844D01*
X439539D01*
Y173633D01*
X439750D01*
Y173422D01*
X440172D01*
Y173211D01*
X440382D01*
Y173000D01*
X440804D01*
Y172789D01*
X441015D01*
Y172579D01*
X441437D01*
Y172368D01*
X441858D01*
Y172157D01*
X442069D01*
Y171946D01*
X442491D01*
Y171735D01*
X442912D01*
Y171524D01*
X443123D01*
Y171314D01*
X443545D01*
Y171103D01*
X443756D01*
Y170892D01*
X444178D01*
Y170681D01*
X444599D01*
Y170470D01*
X445021D01*
Y170259D01*
X445232D01*
Y170049D01*
X445653D01*
Y169838D01*
X446075D01*
Y169416D01*
X445864D01*
Y169205D01*
X445653D01*
Y168994D01*
X445443D01*
Y168783D01*
X445232D01*
Y168573D01*
X445021D01*
Y168362D01*
X444810D01*
Y168151D01*
X444599D01*
Y167940D01*
X444388D01*
Y167519D01*
X443967D01*
Y167308D01*
X443756D01*
Y166886D01*
X443545D01*
Y166675D01*
X443334D01*
Y166464D01*
X442702D01*
Y166675D01*
X442280D01*
Y166886D01*
X441858D01*
Y167097D01*
X441647D01*
Y167308D01*
X441226D01*
Y167519D01*
X440804D01*
Y167729D01*
X440593D01*
Y167940D01*
X440172D01*
Y168151D01*
X439750D01*
Y168362D01*
X439539D01*
Y168573D01*
X439117D01*
Y168783D01*
X438907D01*
Y168994D01*
X438485D01*
Y169205D01*
X438063D01*
Y169416D01*
X437852D01*
Y169627D01*
X437641D01*
Y169838D01*
X437220D01*
Y170049D01*
X437009D01*
Y170259D01*
X436587D01*
Y170470D01*
X436376D01*
Y170681D01*
X435955D01*
Y170892D01*
X435744D01*
Y171103D01*
X435322D01*
Y171314D01*
X435111D01*
Y171524D01*
X434901D01*
Y171735D01*
X434479D01*
Y171946D01*
X434268D01*
Y172157D01*
X434057D01*
Y172368D01*
X433636D01*
Y172579D01*
X433425D01*
Y172789D01*
X433214D01*
Y173000D01*
X433003D01*
Y173211D01*
X432581D01*
Y173422D01*
X432370D01*
Y173633D01*
X432160D01*
Y173844D01*
X431949D01*
Y174055D01*
X431738D01*
Y174265D01*
X431316D01*
Y174476D01*
X431105D01*
Y174687D01*
X430895D01*
Y174898D01*
X430684D01*
Y175109D01*
X430262D01*
Y175319D01*
X430051D01*
Y175530D01*
X429840D01*
Y175741D01*
X429630D01*
Y175952D01*
X429419D01*
Y176163D01*
X429208D01*
Y176374D01*
X428997D01*
Y176585D01*
X428786D01*
Y176795D01*
X428575D01*
Y177006D01*
X428154D01*
Y177217D01*
X427943D01*
Y177428D01*
X427732D01*
Y177639D01*
X427521D01*
Y177850D01*
X427310D01*
Y178060D01*
X427099D01*
Y178271D01*
X426889D01*
Y178482D01*
X426678D01*
Y178693D01*
X426467D01*
Y178904D01*
X426256D01*
Y179115D01*
X426045D01*
Y179326D01*
X425835D01*
Y179536D01*
X425624D01*
Y179747D01*
X425413D01*
Y179958D01*
X425202D01*
Y180169D01*
X424991D01*
Y180380D01*
X424780D01*
Y180590D01*
X424569D01*
Y180801D01*
X424359D01*
Y181012D01*
X424148D01*
Y181434D01*
X423726D01*
Y181856D01*
X423304D01*
Y182277D01*
X423094D01*
Y182488D01*
X422883D01*
Y182699D01*
X422672D01*
Y182910D01*
X422461D01*
Y183121D01*
X422250D01*
Y183542D01*
X422039D01*
Y183753D01*
X421828D01*
Y183964D01*
X421618D01*
Y184386D01*
X421407D01*
Y184807D01*
X421196D01*
Y185861D01*
X421407D01*
Y186283D01*
X421618D01*
Y186705D01*
X421828D01*
Y186916D01*
X422039D01*
Y187337D01*
X422250D01*
Y187548D01*
X422461D01*
Y187759D01*
X422672D01*
Y187970D01*
X422883D01*
Y188181D01*
X423094D01*
Y188392D01*
X423304D01*
Y188602D01*
X423515D01*
Y188813D01*
X423726D01*
Y189024D01*
X423937D01*
Y189235D01*
X424148D01*
Y189657D01*
X424569D01*
Y189867D01*
X424780D01*
Y190289D01*
X424991D01*
Y190500D01*
X425202D01*
Y190711D01*
X425413D01*
Y190922D01*
X425624D01*
Y191133D01*
X425835D01*
Y191343D01*
X426256D01*
Y191554D01*
X426467D01*
Y191765D01*
X426678D01*
Y191976D01*
X426889D01*
Y192187D01*
X427099D01*
Y192398D01*
X427310D01*
Y192608D01*
X427521D01*
Y192819D01*
X427732D01*
Y193030D01*
X427943D01*
Y193241D01*
X428154D01*
Y193452D01*
X428364D01*
Y193663D01*
X428575D01*
Y193873D01*
X428786D01*
Y194084D01*
X429208D01*
Y194295D01*
X429419D01*
Y194506D01*
X429630D01*
Y194717D01*
X429840D01*
Y194928D01*
X430051D01*
Y195138D01*
X430262D01*
Y195349D01*
X430473D01*
Y195560D01*
X430684D01*
Y195771D01*
X431105D01*
Y195982D01*
X431316D01*
Y196193D01*
X431527D01*
Y196404D01*
X431949D01*
Y196614D01*
X432160D01*
Y196825D01*
X432370D01*
Y197036D01*
X432581D01*
Y197247D01*
X433003D01*
Y197458D01*
X433214D01*
Y197668D01*
X433425D01*
Y197879D01*
X433636D01*
Y198090D01*
X434057D01*
Y198301D01*
X434268D01*
Y198512D01*
X434479D01*
Y198723D01*
X434901D01*
Y198934D01*
X435111D01*
Y199144D01*
X435322D01*
Y199355D01*
X435744D01*
Y199566D01*
X435955D01*
Y199777D01*
X436166D01*
Y199988D01*
X436587D01*
Y200199D01*
X436798D01*
Y200410D01*
X437220D01*
Y200620D01*
X437431D01*
Y200831D01*
X437852D01*
Y201042D01*
X438063D01*
Y201253D01*
X438485D01*
Y201464D01*
X438696D01*
Y201674D01*
X439117D01*
Y201885D01*
X439328D01*
Y202096D01*
X439750D01*
Y202307D01*
X440172D01*
Y202518D01*
X440382D01*
Y202729D01*
X440593D01*
Y202939D01*
X441015D01*
Y203150D01*
X441437D01*
Y203361D01*
X441858D01*
Y203572D01*
X442280D01*
Y203783D01*
X442491D01*
Y203994D01*
X442912D01*
Y204205D01*
X443334D01*
Y204415D01*
X443756D01*
Y204626D01*
X444178D01*
Y204837D01*
X444599D01*
Y205048D01*
X445021D01*
Y205259D01*
X445443D01*
Y205470D01*
X445653D01*
Y205681D01*
X446286D01*
Y205891D01*
X446708D01*
Y206102D01*
X447129D01*
Y206313D01*
X447551D01*
Y206524D01*
X447973D01*
Y206735D01*
X448605D01*
Y206945D01*
X449027D01*
Y207156D01*
X449449D01*
Y207367D01*
X450081D01*
Y207578D01*
X450503D01*
Y207789D01*
X451135D01*
Y208000D01*
X451768D01*
Y208211D01*
X452189D01*
Y208421D01*
X452822D01*
Y208632D01*
X453455D01*
Y208843D01*
X454087D01*
Y209054D01*
X454930D01*
Y209265D01*
X455563D01*
Y209476D01*
X456406D01*
Y209686D01*
X457461D01*
Y209897D01*
X458515D01*
Y210108D01*
X458936D01*
Y210319D01*
X460412D01*
Y210530D01*
X461888D01*
Y210741D01*
X463786D01*
Y210951D01*
X466105D01*
Y211162D01*
X469057D01*
Y210951D01*
D02*
G37*
G36*
X470322Y202096D02*
X471376D01*
Y201885D01*
X472430D01*
Y201674D01*
X473274D01*
Y201464D01*
X474117D01*
Y201253D01*
X474749D01*
Y201042D01*
X475171D01*
Y200831D01*
X475593D01*
Y200620D01*
X476014D01*
Y200410D01*
X476225D01*
Y200199D01*
X476647D01*
Y199777D01*
X476225D01*
Y199566D01*
X476014D01*
Y199355D01*
X475803D01*
Y199144D01*
X475593D01*
Y198934D01*
X475382D01*
Y198723D01*
X475171D01*
Y198512D01*
X474960D01*
Y198301D01*
X474749D01*
Y198090D01*
X474538D01*
Y197879D01*
X474328D01*
Y197668D01*
X474117D01*
Y197458D01*
X473906D01*
Y197247D01*
X473695D01*
Y197036D01*
X473484D01*
Y196825D01*
X473274D01*
Y196614D01*
X473063D01*
Y196404D01*
X472852D01*
Y196193D01*
X472641D01*
Y195982D01*
X472430D01*
Y195771D01*
X472219D01*
Y195560D01*
X472008D01*
Y195349D01*
X471798D01*
Y195138D01*
X471587D01*
Y194928D01*
X471376D01*
Y194717D01*
X471165D01*
Y194506D01*
X470954D01*
Y194295D01*
X470743D01*
Y194084D01*
X470532D01*
Y193873D01*
X470322D01*
Y193663D01*
X470111D01*
Y193452D01*
X469900D01*
Y193241D01*
X469689D01*
Y193030D01*
X469478D01*
Y192819D01*
X469268D01*
Y192608D01*
X469057D01*
Y192398D01*
X468846D01*
Y192187D01*
X468635D01*
Y191976D01*
X468424D01*
Y191765D01*
X468213D01*
Y191554D01*
X468002D01*
Y191343D01*
X467792D01*
Y191133D01*
X467581D01*
Y190922D01*
X467370D01*
Y190711D01*
X467159D01*
Y190500D01*
X466948D01*
Y190289D01*
X466737D01*
Y190078D01*
X466527D01*
Y189867D01*
X466316D01*
Y189657D01*
X466105D01*
Y189446D01*
X465894D01*
Y189235D01*
X465683D01*
Y189024D01*
X465472D01*
Y188813D01*
X465261D01*
Y188602D01*
X465051D01*
Y188392D01*
X464840D01*
Y188181D01*
X464629D01*
Y187970D01*
X464418D01*
Y187759D01*
X464207D01*
Y187548D01*
X463997D01*
Y187337D01*
X463786D01*
Y187127D01*
X463575D01*
Y186916D01*
X463364D01*
Y186705D01*
X463153D01*
Y186494D01*
X462942D01*
Y186283D01*
X462732D01*
Y186072D01*
X462521D01*
Y185861D01*
X462310D01*
Y185651D01*
X462099D01*
Y185440D01*
X461888D01*
Y185229D01*
X461677D01*
Y185018D01*
X461466D01*
Y184807D01*
X461256D01*
Y184597D01*
X461045D01*
Y184386D01*
X460834D01*
Y184175D01*
X460623D01*
Y183964D01*
X460412D01*
Y183753D01*
X460201D01*
Y183542D01*
X459991D01*
Y183331D01*
X459780D01*
Y183121D01*
X459569D01*
Y182910D01*
X459358D01*
Y182699D01*
X459147D01*
Y182488D01*
X458936D01*
Y182277D01*
X458726D01*
Y182066D01*
X458515D01*
Y181856D01*
X458304D01*
Y181645D01*
X458093D01*
Y181434D01*
X457882D01*
Y181223D01*
X457671D01*
Y181012D01*
X457461D01*
Y180801D01*
X457250D01*
Y180590D01*
X457039D01*
Y180380D01*
X456828D01*
Y180169D01*
X456617D01*
Y179958D01*
X456406D01*
Y179747D01*
X456195D01*
Y179536D01*
X455985D01*
Y179326D01*
X455774D01*
Y179115D01*
X455563D01*
Y178904D01*
X455352D01*
Y178693D01*
X455141D01*
Y178482D01*
X454930D01*
Y178271D01*
X454720D01*
Y178060D01*
X454509D01*
Y177850D01*
X454298D01*
Y177639D01*
X454087D01*
Y177428D01*
X453876D01*
Y177217D01*
X453665D01*
Y177006D01*
X453455D01*
Y177217D01*
X453244D01*
Y177428D01*
X453033D01*
Y177850D01*
X452822D01*
Y178482D01*
X452611D01*
Y178904D01*
X452400D01*
Y179536D01*
X452189D01*
Y179958D01*
X451979D01*
Y180801D01*
X451768D01*
Y181856D01*
X451557D01*
Y182277D01*
X451346D01*
Y184386D01*
X451135D01*
Y186283D01*
X451346D01*
Y188181D01*
X451557D01*
Y188813D01*
X451768D01*
Y189657D01*
X451979D01*
Y190500D01*
X452189D01*
Y191133D01*
X452400D01*
Y191765D01*
X452611D01*
Y192187D01*
X452822D01*
Y192608D01*
X453033D01*
Y193241D01*
X453244D01*
Y193452D01*
X453455D01*
Y193873D01*
X453665D01*
Y194295D01*
X453876D01*
Y194506D01*
X454087D01*
Y194928D01*
X454298D01*
Y195138D01*
X454509D01*
Y195560D01*
X454720D01*
Y195771D01*
X454930D01*
Y195982D01*
X455141D01*
Y196193D01*
X455352D01*
Y196614D01*
X455563D01*
Y196825D01*
X455774D01*
Y197036D01*
X455985D01*
Y197247D01*
X456195D01*
Y197458D01*
X456406D01*
Y197668D01*
X456617D01*
Y197879D01*
X456828D01*
Y198090D01*
X457250D01*
Y198301D01*
X457461D01*
Y198512D01*
X457671D01*
Y198723D01*
X457882D01*
Y198934D01*
X458304D01*
Y199144D01*
X458515D01*
Y199355D01*
X458936D01*
Y199566D01*
X459147D01*
Y199777D01*
X459569D01*
Y199988D01*
X459991D01*
Y200199D01*
X460201D01*
Y200410D01*
X460623D01*
Y200620D01*
X461045D01*
Y200831D01*
X461677D01*
Y201042D01*
X462099D01*
Y201253D01*
X462732D01*
Y201464D01*
X463364D01*
Y201674D01*
X463997D01*
Y201885D01*
X464840D01*
Y202096D01*
X466316D01*
Y202307D01*
X470322D01*
Y202096D01*
D02*
G37*
G36*
X483183Y193452D02*
X483394D01*
Y193030D01*
X483605D01*
Y192819D01*
X483815D01*
Y192187D01*
X484026D01*
Y191765D01*
X484237D01*
Y191133D01*
X484448D01*
Y190711D01*
X484659D01*
Y190078D01*
X484870D01*
Y189446D01*
X485080D01*
Y187970D01*
X485291D01*
Y186283D01*
X485502D01*
Y184175D01*
X485291D01*
Y182910D01*
X485080D01*
Y181645D01*
X484870D01*
Y180590D01*
X484659D01*
Y179747D01*
X484448D01*
Y179536D01*
X484237D01*
Y178693D01*
X484026D01*
Y178271D01*
X483815D01*
Y177850D01*
X483605D01*
Y177428D01*
X483394D01*
Y177006D01*
X483183D01*
Y176585D01*
X482972D01*
Y176163D01*
X482550D01*
Y175530D01*
X482340D01*
Y175319D01*
X482129D01*
Y175109D01*
X481918D01*
Y174687D01*
X481707D01*
Y174476D01*
X481496D01*
Y174265D01*
X481285D01*
Y174055D01*
X481074D01*
Y173844D01*
X480864D01*
Y173633D01*
X480653D01*
Y173422D01*
X480442D01*
Y173211D01*
X480231D01*
Y173000D01*
X480020D01*
Y172789D01*
X479809D01*
Y172579D01*
X479599D01*
Y172368D01*
X479388D01*
Y172157D01*
X479177D01*
Y171946D01*
X478966D01*
Y171735D01*
X478544D01*
Y171524D01*
X478334D01*
Y171314D01*
X478123D01*
Y171103D01*
X477701D01*
Y170892D01*
X477490D01*
Y170681D01*
X477069D01*
Y170470D01*
X476647D01*
Y170259D01*
X476225D01*
Y170049D01*
X476014D01*
Y169838D01*
X475382D01*
Y169627D01*
X474960D01*
Y169416D01*
X474117D01*
Y168994D01*
X473274D01*
Y168783D01*
X472430D01*
Y168573D01*
X471587D01*
Y168362D01*
X469689D01*
Y168151D01*
X466737D01*
Y168362D01*
X465051D01*
Y168573D01*
X464418D01*
Y168783D01*
X463575D01*
Y168994D01*
X462732D01*
Y169205D01*
X462310D01*
Y169416D01*
X461677D01*
Y169627D01*
X461256D01*
Y169838D01*
X460834D01*
Y170049D01*
X460412D01*
Y170259D01*
X460201D01*
Y170892D01*
X460412D01*
Y171103D01*
X460623D01*
Y171314D01*
X460834D01*
Y171524D01*
X461045D01*
Y171735D01*
X461256D01*
Y171946D01*
X461466D01*
Y172157D01*
X461677D01*
Y172368D01*
X461888D01*
Y172579D01*
X462099D01*
Y172789D01*
X462310D01*
Y173000D01*
X462732D01*
Y173422D01*
X462942D01*
Y173633D01*
X463364D01*
Y174055D01*
X463575D01*
Y174265D01*
X463786D01*
Y174476D01*
X463997D01*
Y174687D01*
X464207D01*
Y174898D01*
X464418D01*
Y175109D01*
X464629D01*
Y175319D01*
X464840D01*
Y175530D01*
X465051D01*
Y175741D01*
X465261D01*
Y175952D01*
X465472D01*
Y176163D01*
X465683D01*
Y176374D01*
X465894D01*
Y176585D01*
X466105D01*
Y176795D01*
X466316D01*
Y177006D01*
X466527D01*
Y177217D01*
X466737D01*
Y177428D01*
X466948D01*
Y177639D01*
X467159D01*
Y177850D01*
X467370D01*
Y178060D01*
X467581D01*
Y178271D01*
X467792D01*
Y178482D01*
X468002D01*
Y178693D01*
X468213D01*
Y178904D01*
X468424D01*
Y179115D01*
X468635D01*
Y179326D01*
X468846D01*
Y179536D01*
X469057D01*
Y179747D01*
X469268D01*
Y179958D01*
X469478D01*
Y180169D01*
X469689D01*
Y180380D01*
X469900D01*
Y180590D01*
X470111D01*
Y180801D01*
X470322D01*
Y181012D01*
X470532D01*
Y181223D01*
X470743D01*
Y181434D01*
X470954D01*
Y181645D01*
X471165D01*
Y181856D01*
X471376D01*
Y182066D01*
X471587D01*
Y182277D01*
X471798D01*
Y182488D01*
X472008D01*
Y182699D01*
X472219D01*
Y182910D01*
X472430D01*
Y183121D01*
X472641D01*
Y183331D01*
X472852D01*
Y183542D01*
X473063D01*
Y183753D01*
X473274D01*
Y183964D01*
X473484D01*
Y184175D01*
X473695D01*
Y184386D01*
X473906D01*
Y184597D01*
X474117D01*
Y184807D01*
X474328D01*
Y185018D01*
X474538D01*
Y185229D01*
X474749D01*
Y185440D01*
X474960D01*
Y185651D01*
X475171D01*
Y185861D01*
X475382D01*
Y186072D01*
X475593D01*
Y186283D01*
X475803D01*
Y186494D01*
X476014D01*
Y186705D01*
X476225D01*
Y186916D01*
X476436D01*
Y187127D01*
X476647D01*
Y187337D01*
X476858D01*
Y187548D01*
X477069D01*
Y187759D01*
X477279D01*
Y187970D01*
X477490D01*
Y188181D01*
X477701D01*
Y188392D01*
X477912D01*
Y188602D01*
X478123D01*
Y188813D01*
X478334D01*
Y189024D01*
X478544D01*
Y189235D01*
X478755D01*
Y189446D01*
X478966D01*
Y189657D01*
X479177D01*
Y189867D01*
X479388D01*
Y190078D01*
X479599D01*
Y190289D01*
X479809D01*
Y190500D01*
X480020D01*
Y190711D01*
X480231D01*
Y190922D01*
X480442D01*
Y191133D01*
X480653D01*
Y191343D01*
X480864D01*
Y191554D01*
X481074D01*
Y191765D01*
X481285D01*
Y191976D01*
X481496D01*
Y192187D01*
X481707D01*
Y192398D01*
X481918D01*
Y192608D01*
X482129D01*
Y192819D01*
X482340D01*
Y193030D01*
X482550D01*
Y193241D01*
X482761D01*
Y193452D01*
X482972D01*
Y193663D01*
X483183D01*
Y193452D01*
D02*
G37*
G36*
X493936Y203783D02*
X494357D01*
Y203572D01*
X494779D01*
Y203361D01*
X494990D01*
Y203150D01*
X495622D01*
Y202939D01*
X495833D01*
Y202729D01*
X496255D01*
Y202518D01*
X496677D01*
Y202307D01*
X496888D01*
Y202096D01*
X497098D01*
Y201885D01*
X497520D01*
Y201674D01*
X497731D01*
Y201464D01*
X498153D01*
Y201253D01*
X498574D01*
Y201042D01*
X498785D01*
Y200831D01*
X499207D01*
Y200620D01*
X499418D01*
Y200410D01*
X499628D01*
Y200199D01*
X500050D01*
Y199988D01*
X500261D01*
Y199777D01*
X500683D01*
Y199566D01*
X500894D01*
Y199355D01*
X501315D01*
Y199144D01*
X501526D01*
Y198934D01*
X501737D01*
Y198723D01*
X502159D01*
Y198512D01*
X502580D01*
Y198301D01*
X502791D01*
Y198090D01*
X503002D01*
Y197879D01*
X503213D01*
Y197668D01*
X503634D01*
Y197458D01*
X503845D01*
Y197247D01*
X504056D01*
Y197036D01*
X504267D01*
Y196825D01*
X504478D01*
Y196614D01*
X504899D01*
Y196404D01*
X505110D01*
Y196193D01*
X505321D01*
Y195982D01*
X505532D01*
Y195771D01*
X505743D01*
Y195560D01*
X506165D01*
Y195349D01*
X506375D01*
Y195138D01*
X506586D01*
Y194928D01*
X506797D01*
Y194717D01*
X507008D01*
Y194506D01*
X507219D01*
Y194295D01*
X507640D01*
Y194084D01*
X507851D01*
Y193873D01*
X508062D01*
Y193663D01*
X508273D01*
Y193452D01*
X508484D01*
Y193241D01*
X508694D01*
Y193030D01*
X508905D01*
Y192819D01*
X509116D01*
Y192608D01*
X509327D01*
Y192398D01*
X509538D01*
Y192187D01*
X509749D01*
Y191976D01*
X509960D01*
Y191765D01*
X510170D01*
Y191554D01*
X510381D01*
Y191343D01*
X510592D01*
Y191133D01*
X510803D01*
Y190922D01*
X511014D01*
Y190711D01*
X511225D01*
Y190500D01*
X511436D01*
Y190289D01*
X511646D01*
Y190078D01*
X511857D01*
Y189867D01*
X512068D01*
Y189657D01*
X512279D01*
Y189446D01*
X512490D01*
Y189235D01*
X512701D01*
Y189024D01*
X512911D01*
Y188813D01*
X513122D01*
Y188602D01*
X513333D01*
Y188392D01*
X513544D01*
Y188181D01*
X513755D01*
Y187970D01*
X513965D01*
Y187759D01*
X514176D01*
Y187337D01*
X514387D01*
Y187127D01*
X514598D01*
Y186916D01*
X514809D01*
Y186494D01*
X515020D01*
Y186283D01*
X515231D01*
Y185651D01*
X515441D01*
Y184807D01*
X515231D01*
Y184386D01*
X515020D01*
Y184175D01*
X514809D01*
Y183753D01*
X514598D01*
Y183542D01*
X514387D01*
Y183331D01*
X514176D01*
Y183121D01*
X513965D01*
Y182699D01*
X513755D01*
Y182488D01*
X513544D01*
Y182277D01*
X513333D01*
Y182066D01*
X513122D01*
Y181856D01*
X512911D01*
Y181645D01*
X512701D01*
Y181223D01*
X512279D01*
Y181012D01*
X512068D01*
Y180801D01*
X511857D01*
Y180590D01*
X511646D01*
Y180169D01*
X511436D01*
Y179958D01*
X511225D01*
Y179747D01*
X511014D01*
Y179536D01*
X510803D01*
Y179326D01*
X510592D01*
Y179115D01*
X510381D01*
Y178904D01*
X510170D01*
Y178693D01*
X509960D01*
Y178482D01*
X509749D01*
Y178271D01*
X509538D01*
Y178060D01*
X509327D01*
Y177850D01*
X509116D01*
Y177639D01*
X508905D01*
Y177428D01*
X508484D01*
Y177217D01*
X508273D01*
Y177006D01*
X508062D01*
Y176795D01*
X507851D01*
Y176585D01*
X507640D01*
Y176374D01*
X507430D01*
Y176163D01*
X507219D01*
Y175952D01*
X507008D01*
Y175741D01*
X506797D01*
Y175530D01*
X506375D01*
Y175319D01*
X506165D01*
Y175109D01*
X505954D01*
Y174898D01*
X505743D01*
Y174687D01*
X505532D01*
Y174476D01*
X505321D01*
Y174265D01*
X505110D01*
Y174055D01*
X504689D01*
Y173844D01*
X504478D01*
Y173633D01*
X504267D01*
Y173422D01*
X504056D01*
Y173211D01*
X503634D01*
Y173000D01*
X503424D01*
Y172789D01*
X503002D01*
Y172579D01*
X502791D01*
Y172368D01*
X502580D01*
Y172157D01*
X502369D01*
Y171946D01*
X502159D01*
Y171735D01*
X501737D01*
Y171524D01*
X501526D01*
Y171314D01*
X501104D01*
Y171103D01*
X500894D01*
Y170892D01*
X500683D01*
Y170681D01*
X500261D01*
Y170470D01*
X500050D01*
Y170259D01*
X499628D01*
Y170049D01*
X499418D01*
Y169838D01*
X498996D01*
Y169627D01*
X498785D01*
Y169416D01*
X498363D01*
Y169205D01*
X498153D01*
Y168994D01*
X497731D01*
Y168783D01*
X497520D01*
Y168573D01*
X497098D01*
Y168362D01*
X496888D01*
Y168151D01*
X496466D01*
Y167940D01*
X496044D01*
Y167729D01*
X495833D01*
Y167519D01*
X495412D01*
Y167308D01*
X495201D01*
Y167097D01*
X494779D01*
Y166886D01*
X494357D01*
Y166675D01*
X493936D01*
Y166464D01*
X493725D01*
Y166253D01*
X493303D01*
Y166043D01*
X492671D01*
Y165832D01*
X492460D01*
Y165621D01*
X492038D01*
Y165410D01*
X491617D01*
Y165199D01*
X491195D01*
Y164988D01*
X490773D01*
Y164778D01*
X490351D01*
Y164567D01*
X489930D01*
Y164356D01*
X489297D01*
Y164145D01*
X489086D01*
Y163934D01*
X488454D01*
Y163723D01*
X488032D01*
Y163512D01*
X487400D01*
Y163302D01*
X486978D01*
Y163091D01*
X486345D01*
Y162880D01*
X485924D01*
Y162669D01*
X485291D01*
Y162458D01*
X484659D01*
Y162248D01*
X484026D01*
Y162037D01*
X483394D01*
Y161826D01*
X482761D01*
Y161615D01*
X482129D01*
Y161404D01*
X481496D01*
Y161193D01*
X480864D01*
Y160982D01*
X479599D01*
Y160772D01*
X479177D01*
Y160561D01*
X477912D01*
Y160350D01*
X477069D01*
Y160139D01*
X476225D01*
Y159928D01*
X474960D01*
Y159717D01*
X472852D01*
Y159507D01*
X463786D01*
Y159717D01*
X461677D01*
Y159928D01*
X460201D01*
Y160139D01*
X459569D01*
Y160350D01*
X458515D01*
Y160561D01*
X457461D01*
Y160772D01*
X456617D01*
Y160982D01*
X455774D01*
Y161193D01*
X455141D01*
Y161404D01*
X454509D01*
Y161615D01*
X453876D01*
Y161826D01*
X453033D01*
Y162037D01*
X452400D01*
Y162248D01*
X452189D01*
Y162669D01*
X452400D01*
Y162880D01*
X452611D01*
Y163091D01*
X452822D01*
Y163302D01*
X453033D01*
Y163512D01*
X453244D01*
Y163723D01*
X453455D01*
Y163934D01*
X453665D01*
Y164145D01*
X453876D01*
Y164356D01*
X454087D01*
Y164567D01*
X454298D01*
Y164778D01*
X454509D01*
Y164988D01*
X454720D01*
Y165199D01*
X454930D01*
Y165410D01*
X455141D01*
Y165621D01*
X455985D01*
Y165410D01*
X456828D01*
Y165199D01*
X457461D01*
Y164988D01*
X458515D01*
Y164778D01*
X459147D01*
Y164567D01*
X460201D01*
Y164356D01*
X461677D01*
Y164145D01*
X462732D01*
Y163934D01*
X465051D01*
Y163723D01*
X472219D01*
Y163934D01*
X473906D01*
Y164145D01*
X475171D01*
Y164356D01*
X476225D01*
Y164567D01*
X477279D01*
Y164778D01*
X478334D01*
Y164988D01*
X479177D01*
Y165199D01*
X479809D01*
Y165410D01*
X480653D01*
Y165621D01*
X481074D01*
Y165832D01*
X481918D01*
Y166043D01*
X482550D01*
Y166253D01*
X483183D01*
Y166464D01*
X483605D01*
Y166675D01*
X484237D01*
Y166886D01*
X484659D01*
Y167097D01*
X485291D01*
Y167308D01*
X485713D01*
Y167519D01*
X486345D01*
Y167729D01*
X486767D01*
Y167940D01*
X487189D01*
Y168151D01*
X487611D01*
Y168362D01*
X488032D01*
Y168573D01*
X488665D01*
Y168783D01*
X489086D01*
Y168994D01*
X489508D01*
Y169205D01*
X489930D01*
Y169416D01*
X490351D01*
Y169627D01*
X490773D01*
Y169838D01*
X491195D01*
Y170049D01*
X491406D01*
Y170259D01*
X491827D01*
Y170470D01*
X492249D01*
Y170681D01*
X492671D01*
Y170892D01*
X492882D01*
Y171103D01*
X493303D01*
Y171314D01*
X493725D01*
Y171524D01*
X493936D01*
Y171735D01*
X494357D01*
Y171946D01*
X494779D01*
Y172157D01*
X494990D01*
Y172368D01*
X495412D01*
Y172579D01*
X495833D01*
Y172789D01*
X496044D01*
Y173000D01*
X496255D01*
Y173211D01*
X496677D01*
Y173422D01*
X496888D01*
Y173633D01*
X497309D01*
Y173844D01*
X497520D01*
Y174055D01*
X497942D01*
Y174265D01*
X498153D01*
Y174476D01*
X498363D01*
Y174687D01*
X498785D01*
Y174898D01*
X498996D01*
Y175109D01*
X499418D01*
Y175319D01*
X499628D01*
Y175530D01*
X499839D01*
Y175741D01*
X500050D01*
Y175952D01*
X500472D01*
Y176163D01*
X500683D01*
Y176374D01*
X500894D01*
Y176585D01*
X501104D01*
Y176795D01*
X501526D01*
Y177006D01*
X501737D01*
Y177217D01*
X501948D01*
Y177428D01*
X502159D01*
Y177639D01*
X502580D01*
Y177850D01*
X502791D01*
Y178060D01*
X503002D01*
Y178271D01*
X503213D01*
Y178482D01*
X503424D01*
Y178693D01*
X503634D01*
Y178904D01*
X503845D01*
Y179115D01*
X504267D01*
Y179326D01*
X504478D01*
Y179536D01*
X504689D01*
Y179747D01*
X504899D01*
Y179958D01*
X505110D01*
Y180169D01*
X505321D01*
Y180380D01*
X505532D01*
Y180590D01*
X505743D01*
Y180801D01*
X505954D01*
Y181012D01*
X506165D01*
Y181223D01*
X506375D01*
Y181434D01*
X506586D01*
Y181645D01*
X506797D01*
Y181856D01*
X507008D01*
Y182066D01*
X507219D01*
Y182277D01*
X507430D01*
Y182488D01*
X507851D01*
Y182910D01*
X508273D01*
Y183121D01*
X508484D01*
Y183542D01*
X508905D01*
Y183964D01*
X509116D01*
Y184175D01*
X509327D01*
Y184386D01*
X509538D01*
Y184597D01*
X509749D01*
Y184807D01*
X509960D01*
Y185018D01*
X510170D01*
Y185440D01*
X509960D01*
Y185651D01*
X509749D01*
Y185861D01*
X509538D01*
Y186283D01*
X509327D01*
Y186494D01*
X509116D01*
Y186705D01*
X508905D01*
Y186916D01*
X508694D01*
Y187127D01*
X508484D01*
Y187337D01*
X508273D01*
Y187548D01*
X508062D01*
Y187759D01*
X507851D01*
Y187970D01*
X507640D01*
Y188181D01*
X507430D01*
Y188392D01*
X507219D01*
Y188602D01*
X507008D01*
Y188813D01*
X506797D01*
Y189024D01*
X506586D01*
Y189235D01*
X506375D01*
Y189446D01*
X506165D01*
Y189657D01*
X505954D01*
Y189867D01*
X505743D01*
Y190078D01*
X505321D01*
Y190289D01*
X505110D01*
Y190500D01*
X504899D01*
Y190711D01*
X504689D01*
Y190922D01*
X504478D01*
Y191133D01*
X504267D01*
Y191343D01*
X504056D01*
Y191554D01*
X503845D01*
Y191765D01*
X503634D01*
Y191976D01*
X503213D01*
Y192187D01*
X503002D01*
Y192398D01*
X502791D01*
Y192608D01*
X502580D01*
Y192819D01*
X502369D01*
Y193030D01*
X502159D01*
Y193241D01*
X501737D01*
Y193452D01*
X501526D01*
Y193663D01*
X501315D01*
Y193873D01*
X501104D01*
Y194084D01*
X500683D01*
Y194295D01*
X500472D01*
Y194506D01*
X500050D01*
Y194717D01*
X499839D01*
Y194928D01*
X499628D01*
Y195138D01*
X499418D01*
Y195349D01*
X498996D01*
Y195560D01*
X498785D01*
Y195771D01*
X498574D01*
Y195982D01*
X498363D01*
Y196193D01*
X497942D01*
Y196404D01*
X497731D01*
Y196614D01*
X497309D01*
Y196825D01*
X497098D01*
Y197036D01*
X496677D01*
Y197247D01*
X496466D01*
Y197458D01*
X496044D01*
Y197668D01*
X495833D01*
Y197879D01*
X495412D01*
Y198090D01*
X494990D01*
Y198301D01*
X494779D01*
Y198512D01*
X494357D01*
Y198723D01*
X494147D01*
Y198934D01*
X493725D01*
Y199144D01*
X493514D01*
Y199355D01*
X492882D01*
Y199566D01*
X492671D01*
Y199777D01*
X492249D01*
Y199988D01*
X492038D01*
Y200199D01*
X491617D01*
Y200410D01*
X491195D01*
Y200620D01*
X490773D01*
Y200831D01*
X490562D01*
Y201253D01*
X490984D01*
Y201674D01*
X491195D01*
Y201885D01*
X491406D01*
Y202096D01*
X491617D01*
Y202307D01*
X491827D01*
Y202518D01*
X492038D01*
Y202729D01*
X492249D01*
Y202939D01*
X492460D01*
Y203150D01*
X492671D01*
Y203361D01*
X492882D01*
Y203572D01*
X493092D01*
Y203783D01*
X493303D01*
Y203994D01*
X493936D01*
Y203783D01*
D02*
G37*
%LPC*%
G36*
X458304Y115230D02*
X456828D01*
Y115019D01*
X456617D01*
Y114809D01*
X456406D01*
Y114387D01*
X456617D01*
Y114176D01*
X456406D01*
Y113122D01*
X456195D01*
Y112278D01*
X455985D01*
Y111435D01*
X455774D01*
Y110381D01*
X455563D01*
Y109959D01*
X455774D01*
Y109748D01*
X458515D01*
Y109959D01*
X458936D01*
Y110170D01*
X459358D01*
Y110381D01*
X459569D01*
Y110592D01*
X459780D01*
Y110802D01*
X459991D01*
Y111013D01*
X460201D01*
Y111224D01*
X460412D01*
Y111646D01*
X460623D01*
Y112278D01*
X460834D01*
Y113754D01*
X460623D01*
Y114176D01*
X460412D01*
Y114387D01*
X460201D01*
Y114598D01*
X459991D01*
Y114809D01*
X459569D01*
Y115019D01*
X458304D01*
Y115230D01*
D02*
G37*
G36*
X426256Y117339D02*
X422461D01*
Y114809D01*
X422672D01*
Y114598D01*
X426045D01*
Y114809D01*
X426678D01*
Y115019D01*
X426889D01*
Y115230D01*
X427099D01*
Y116917D01*
X426889D01*
Y117128D01*
X426256D01*
Y117339D01*
D02*
G37*
G36*
X426467Y112700D02*
X422672D01*
Y112489D01*
X422461D01*
Y109748D01*
X422883D01*
Y109537D01*
X425835D01*
Y109748D01*
X426678D01*
Y109959D01*
X427310D01*
Y110170D01*
X427521D01*
Y110381D01*
X427732D01*
Y111013D01*
X427943D01*
Y111435D01*
X427732D01*
Y112068D01*
X427310D01*
Y112278D01*
X427099D01*
Y112489D01*
X426467D01*
Y112700D01*
D02*
G37*
%LPD*%
D16*
X216351Y377800D02*
D03*
Y358800D02*
D03*
D19*
X190951Y359801D02*
D03*
Y376799D02*
D03*
D26*
X243021Y130302D02*
D03*
D74*
X70111Y35390D02*
Y40810D01*
X212902Y25400D02*
X533851D01*
X206362Y18859D02*
X212902Y25400D01*
X80532Y51229D02*
Y90477D01*
X70111Y40810D02*
X80532Y51229D01*
X70111Y35390D02*
X86641Y18859D01*
X206362D01*
X533851Y25400D02*
X546551Y38100D01*
X290451Y367949D02*
Y383101D01*
X279851Y393700D02*
X290451Y383101D01*
X559251Y152400D02*
X571951Y165100D01*
X470351Y152400D02*
X559251D01*
X406851D02*
X432251D01*
X325452Y367949D02*
X326412Y366989D01*
X343351Y304800D02*
Y318564D01*
X326412Y335504D02*
Y366989D01*
Y335504D02*
X343351Y318564D01*
Y304800D02*
X344367Y303784D01*
X355670D01*
X344774Y347083D02*
X345452Y347759D01*
X370814Y323660D02*
X391911Y302560D01*
X345452Y347759D02*
Y367949D01*
X353341Y323660D02*
X370814D01*
X344774Y332227D02*
Y347083D01*
Y332227D02*
X353341Y323660D01*
X355452Y367949D02*
X356051Y367350D01*
Y342900D02*
Y367350D01*
X354870Y342900D02*
X356051D01*
X209811Y409110D02*
X213641Y412940D01*
X216351Y377800D02*
Y393700D01*
X209811Y400241D02*
X216351Y393700D01*
X209811Y400241D02*
Y409110D01*
X305251Y400241D02*
X310451Y395041D01*
Y367949D02*
Y395041D01*
X213641Y412940D02*
X222511D01*
X229051Y406400D01*
X89351Y52070D02*
X127451Y90170D01*
X89351Y50800D02*
Y52070D01*
X76651Y38100D02*
X89351Y50800D01*
X343351Y176339D02*
X405391D01*
X432251Y203200D01*
X292551Y114300D02*
Y152400D01*
X305251Y165100D01*
X432251D01*
Y203200D01*
X251276Y141605D02*
X256356D01*
X267235Y152484D01*
X191952Y358800D02*
X216351D01*
X190951Y359801D02*
X191952Y358800D01*
X216351D02*
X232201Y342951D01*
X241751D01*
X250451D01*
X229051Y330200D02*
Y339801D01*
X232201Y342951D01*
X216351Y398729D02*
Y406400D01*
Y358800D02*
Y360507D01*
X226392Y370548D01*
X216351Y398729D02*
X226392Y388689D01*
Y370548D02*
Y388689D01*
X385452Y342951D02*
X403702D01*
X264492Y368910D02*
X265452Y367949D01*
X264492Y368910D02*
Y373002D01*
X256493Y381000D02*
X264492Y373002D01*
X241751Y381000D02*
X256493D01*
X241751Y342951D02*
Y355600D01*
X304492Y366989D02*
X305452Y367949D01*
Y390792D01*
X298711Y397530D02*
X305452Y390792D01*
X279851Y444500D02*
X298711Y425640D01*
Y397530D02*
Y425640D01*
X292551Y444500D02*
X330451Y406601D01*
X279851Y444500D02*
X292551D01*
X384466Y362184D02*
X403702Y342951D01*
X384466Y362184D02*
Y368026D01*
X307994Y444500D02*
X384466Y368026D01*
X279851Y444500D02*
X307994D01*
X330451Y367949D02*
Y406601D01*
X302236Y91915D02*
Y104615D01*
X292551Y114300D02*
X302236Y104615D01*
X203651Y88900D02*
X216351Y101600D01*
Y106952D01*
X310852Y76200D02*
X320905D01*
X324461Y72644D01*
X334207D02*
X343351Y63500D01*
X324461Y72644D02*
X334207D01*
X203651Y75819D02*
Y88900D01*
X152851Y38679D02*
X164972Y50800D01*
X178251D01*
X89351Y101600D02*
X102051D01*
X76651Y114300D02*
X89351Y101600D01*
X51251Y114300D02*
X76651D01*
X51251Y25400D02*
Y114300D01*
Y25400D02*
X63951Y12700D01*
X476892Y41930D02*
Y47351D01*
X419551Y34862D02*
X422536Y37846D01*
X472808D02*
X476892Y41930D01*
X422536Y37846D02*
X472808D01*
X381827Y63876D02*
X460367D01*
X476892Y47351D01*
X63951Y12700D02*
X381451D01*
X333191Y182880D02*
X348431D01*
X406851Y241300D01*
X408088Y240063D01*
Y238316D02*
Y240063D01*
X470351Y114300D02*
X483051Y101600D01*
Y38100D02*
Y101600D01*
X350397Y316548D02*
X353067D01*
X356051Y313563D01*
X335452Y331493D02*
Y367949D01*
Y331493D02*
X350397Y316548D01*
X305251Y254000D02*
X368751D01*
X296996Y245745D02*
X305251Y254000D01*
X296996Y238125D02*
Y245745D01*
X280451Y318099D02*
Y367949D01*
X254451Y292100D02*
X280451Y318099D01*
X360451Y367949D02*
X361411Y366989D01*
Y342311D02*
Y366989D01*
Y342311D02*
X405843Y297878D01*
X457651D01*
X533851Y279400D02*
Y326898D01*
X430885D02*
X533851D01*
X406851Y330200D02*
X427583D01*
X430885Y326898D01*
X279851Y381000D02*
X285452Y375399D01*
Y367949D02*
Y375399D01*
X419551Y342900D02*
X427583Y334869D01*
Y330200D02*
Y334869D01*
X521151Y101600D02*
X584651D01*
Y64041D02*
Y101600D01*
X583049Y62438D02*
X584651Y64041D01*
Y51341D02*
Y64041D01*
X583049Y49738D02*
X584651Y51341D01*
X571951Y12700D02*
X583049Y23797D01*
Y49738D01*
X315452Y367949D02*
X316412Y366989D01*
X342335Y292839D02*
Y295758D01*
X316412Y321681D02*
Y366989D01*
Y321681D02*
X342335Y295758D01*
X362592Y73490D02*
Y78910D01*
X356051Y85451D02*
Y91740D01*
Y63500D02*
Y66949D01*
Y85451D02*
X362592Y78910D01*
X356051Y66949D02*
X362592Y73490D01*
X267151Y431800D02*
Y469900D01*
X228670Y431221D02*
X238195Y421696D01*
Y404269D02*
Y421696D01*
X241751Y393700D02*
Y400713D01*
X238195Y404269D02*
X241751Y400713D01*
X353267Y192745D02*
X405378Y244856D01*
X406851D01*
Y251810D01*
X330016Y192745D02*
X353267D01*
X430186Y251810D02*
X432251Y249746D01*
X406851Y251810D02*
X430186D01*
X365452Y367949D02*
X366412Y366989D01*
Y342339D02*
Y366989D01*
Y342339D02*
X404332Y304419D01*
X470351D01*
X375452Y367949D02*
X380910Y362491D01*
Y337899D02*
Y362491D01*
Y337899D02*
X401309Y317500D01*
X495751D01*
Y38100D02*
Y114300D01*
X342894Y300228D02*
X344725D01*
X352114Y292839D01*
X320451Y322671D02*
Y367949D01*
Y322671D02*
X342894Y300228D01*
X341411Y368910D02*
Y373002D01*
X340451Y367949D02*
X341411Y368910D01*
Y373002D02*
X346209Y377800D01*
X341218Y330754D02*
X351868Y320103D01*
X366148D01*
X381451Y304800D01*
X340451Y367949D02*
X341218Y367182D01*
Y330754D02*
Y367182D01*
X380938Y304287D02*
X381451Y304800D01*
X292551Y63500D02*
X305251Y50800D01*
X444951D01*
X46626Y20775D02*
X64073Y3327D01*
X397243Y3302D02*
X400481Y6540D01*
X64073Y3327D02*
X64210Y3302D01*
X397243D01*
X317951Y152400D02*
X368751D01*
X403336Y117815D01*
X406851D01*
Y127000D01*
X288995Y352430D02*
X295721Y359156D01*
X300451Y363857D02*
Y367949D01*
X295749Y359156D02*
X300451Y363857D01*
X295721Y359156D02*
X295749D01*
X288995Y308356D02*
Y352430D01*
Y308356D02*
X304809Y292542D01*
X305251Y292100D01*
X341446Y213995D02*
Y241300D01*
X330651Y203200D02*
X341446Y213995D01*
X267151Y63500D02*
X289249Y41402D01*
X470351D01*
Y44640D01*
X508451Y101600D02*
X511901D01*
X518441Y95059D01*
X562236D02*
X581095Y76200D01*
X518441Y95059D02*
X562236D01*
X581095Y65514D02*
Y76200D01*
X579492Y63911D02*
X581095Y65514D01*
X546551Y12700D02*
X579492Y45641D01*
Y63911D01*
X348330Y340190D02*
Y345610D01*
X356051Y330200D02*
Y332471D01*
X348330Y340190D02*
X356051Y332471D01*
X350451Y347731D02*
Y367949D01*
X348330Y345610D02*
X350451Y347731D01*
X370451Y367949D02*
X371411Y366989D01*
Y342369D02*
Y366989D01*
Y342369D02*
X402820Y310959D01*
X483051D01*
X490671Y256540D02*
X510991Y236220D01*
X307598Y271465D02*
X317951Y261112D01*
X307598Y271465D02*
Y273241D01*
X269491Y362897D02*
Y366989D01*
X270451Y367949D01*
X267151Y330200D02*
Y360558D01*
X269491Y362897D01*
X190951Y51420D02*
Y108140D01*
X178251Y25400D02*
X203651D01*
X114751Y38100D02*
Y38679D01*
Y50800D01*
X140151Y76200D01*
X111195Y47244D02*
Y52273D01*
X102051Y38100D02*
X111195Y47244D01*
Y52273D02*
X133237Y74315D01*
Y83114D01*
X315269Y86866D02*
X325934Y76200D01*
X356051D01*
X306435Y86866D02*
X315269D01*
X300187Y80617D02*
X306435Y86866D01*
X300187Y76200D02*
Y80617D01*
X287486Y88900D02*
X300187Y76200D01*
X241751Y88900D02*
X287486D01*
X365703Y561848D02*
X379361Y548190D01*
X223852Y546100D02*
X239600Y561848D01*
X365703D01*
X241751Y546100D02*
X267151Y520700D01*
X223852Y546100D02*
X241751D01*
X214655Y477190D02*
X221944Y469900D01*
X196362Y477190D02*
X214655D01*
X221944Y469900D02*
X223852D01*
X190951Y482600D02*
X196362Y477190D01*
X190951Y482600D02*
Y533400D01*
X211152D01*
X223852Y546100D01*
X379361Y540299D02*
Y548190D01*
X380849Y538810D02*
X396242D01*
X401652Y533400D01*
X379361Y540299D02*
X380849Y538810D01*
X401652Y469900D02*
Y533400D01*
Y546100D01*
X190951Y469900D02*
X208851D01*
X190951Y546100D02*
X208851D01*
X381451Y464701D02*
X386651Y469900D01*
X381451Y444500D02*
Y464701D01*
X395848Y553390D02*
X407453D01*
X408942Y544010D02*
X419551Y533400D01*
X408942Y544010D02*
Y551901D01*
X407453Y553390D02*
X408942Y551901D01*
X388558Y546100D02*
X395848Y553390D01*
X386651Y546100D02*
X388558D01*
X241751Y405742D02*
X246399Y410390D01*
Y412560D01*
X241751Y405742D02*
X274492Y373002D01*
X241751Y405742D02*
Y431800D01*
X274492Y368910D02*
X275452Y367949D01*
X274492Y368910D02*
Y373002D01*
X254451Y406400D02*
Y406781D01*
Y406400D02*
X267151Y393700D01*
X254451Y355600D02*
X260451Y361600D01*
Y367949D01*
X294492Y368910D02*
Y388310D01*
X225602Y457200D02*
X294492Y388310D01*
X203651Y457200D02*
X225602D01*
X294492Y368910D02*
X295452Y367949D01*
X203651Y389499D02*
Y457200D01*
X190951Y376799D02*
X203651Y389499D01*
D76*
X308340Y285029D02*
X514166D01*
X292551Y269240D02*
X308340Y285029D01*
X277311Y269240D02*
X292551D01*
X230321Y219710D02*
X277311Y266700D01*
X182696Y219710D02*
X230321D01*
X175711Y212725D02*
X182696Y219710D01*
X241751Y157480D02*
Y176530D01*
X221431Y137160D02*
X241751Y157480D01*
X194761Y137160D02*
X221431D01*
X197936Y140335D02*
Y149860D01*
X194761Y137160D02*
X197936Y140335D01*
X133166Y95885D02*
X174441Y137160D01*
X127451Y90170D02*
X133166Y95885D01*
X174441Y137160D02*
X194761D01*
X170631Y248920D02*
X220415D01*
X152722Y231010D02*
X170631Y248920D01*
X123771Y231010D02*
X152722D01*
X220415Y248920D02*
X235274Y263779D01*
D77*
X277311Y266700D02*
Y269240D01*
X323031Y193040D02*
X333191Y182880D01*
X142056Y193040D02*
X323031D01*
X128185Y179169D02*
X142056Y193040D01*
X126915Y179169D02*
X128185D01*
X295091Y217170D02*
Y236220D01*
X296996Y238125D01*
X355371Y106680D02*
Y110007D01*
X359366Y114005D01*
X411423D01*
X531311Y233893D01*
X324743Y198018D02*
X330016Y192745D01*
X140151Y198018D02*
X324743D01*
X128721Y186588D02*
X140151Y198018D01*
X116021Y186588D02*
X128721D01*
X407159Y261112D02*
X411731Y256540D01*
X295726Y253365D02*
X303473Y261112D01*
X317951D01*
X407159D01*
X411731Y256540D02*
X490671D01*
X288033Y255079D02*
X289747Y253365D01*
X287398Y255079D02*
X288033D01*
X289747Y253365D02*
X291916D01*
X295726D01*
X291642Y210375D02*
X301716D01*
X288297Y213721D02*
X291642Y210375D01*
X291916Y243289D02*
Y253365D01*
X304870Y213530D02*
Y217170D01*
X301716Y210375D02*
X304870Y213530D01*
X288297Y213721D02*
Y239669D01*
X291916Y243289D01*
X198571Y280670D02*
X243021D01*
X181513Y297729D02*
X198571Y280670D01*
X84271Y297729D02*
X181513D01*
X111040Y217269D02*
X116120Y212189D01*
X111040Y217269D02*
Y248821D01*
X110941Y248920D02*
X111040Y248821D01*
X206966Y232125D02*
X214416D01*
X171068Y235387D02*
X203705D01*
X129595Y193914D02*
X171068Y235387D01*
X203705D02*
X206966Y232125D01*
X243021Y260731D02*
Y271186D01*
X223395Y266360D02*
X228221Y271186D01*
X243021D01*
X214416Y232125D02*
X243021Y260731D01*
X112986Y193914D02*
X129595D01*
X108401Y189329D02*
X112986Y193914D01*
X108401Y177800D02*
Y189329D01*
Y177800D02*
X119831Y166370D01*
X202381D01*
X215081Y153670D01*
X128721Y199390D02*
X168782Y239451D01*
X110941Y199390D02*
X128721D01*
X103321Y191770D02*
X110941Y199390D01*
X103321Y175275D02*
Y191770D01*
Y175275D02*
X115386Y163210D01*
Y105410D02*
Y163210D01*
X168782Y239451D02*
X210001D01*
D78*
X310852Y76200D02*
D03*
D79*
X495751Y12700D02*
D03*
X571951D02*
D03*
X521151D02*
D03*
X546551D02*
D03*
X470351D02*
D03*
X444951D02*
D03*
X419551D02*
D03*
D80*
X292551Y469900D02*
D03*
Y546100D02*
D03*
X330651Y469900D02*
D03*
Y546100D02*
D03*
D81*
X89920Y219400D02*
D03*
Y161600D02*
D03*
D82*
X38551Y311150D02*
D03*
X25851Y43815D02*
D03*
X597351Y311150D02*
D03*
Y43815D02*
D03*
D83*
X215952Y38100D02*
D03*
X190951D02*
D03*
D84*
X94922Y233700D02*
D03*
Y147300D02*
D03*
X53121D02*
D03*
Y233700D02*
D03*
D85*
X80532Y90477D02*
D03*
X546551Y38100D02*
D03*
X279851Y393700D02*
D03*
X571951Y165100D02*
D03*
X470351Y152400D02*
D03*
X432251D02*
D03*
X406851D02*
D03*
X355670Y303784D02*
D03*
X391911Y302560D02*
D03*
X354870Y342900D02*
D03*
X514166Y285029D02*
D03*
X175711Y212725D02*
D03*
X277311Y269240D02*
D03*
X241751Y176530D02*
D03*
X197936Y149860D02*
D03*
X305251Y400241D02*
D03*
X229051Y406400D02*
D03*
X76651Y38100D02*
D03*
X133166Y95885D02*
D03*
X251276Y141605D02*
D03*
X256991Y205740D02*
D03*
X138881Y138430D02*
D03*
X60141Y215900D02*
D03*
X61411Y170180D02*
D03*
X270326Y215265D02*
D03*
X290011Y279400D02*
D03*
X317951Y284480D02*
D03*
X254451Y183515D02*
D03*
X187141Y151130D02*
D03*
X276676Y236220D02*
D03*
X270961Y165100D02*
D03*
X343351Y176339D02*
D03*
X432251Y203200D02*
D03*
X292551Y152400D02*
D03*
Y114300D02*
D03*
X267235Y152484D02*
D03*
X229051Y330200D02*
D03*
X216351Y406400D02*
D03*
X241751Y381000D02*
D03*
Y355600D02*
D03*
X279851Y444500D02*
D03*
X245952Y478399D02*
D03*
X302236Y91915D02*
D03*
X203651Y88900D02*
D03*
X216351Y106952D02*
D03*
X343351Y63500D02*
D03*
X203651Y75819D02*
D03*
X152851Y38679D02*
D03*
X178251Y50800D02*
D03*
X102051Y101600D02*
D03*
X381827Y63876D02*
D03*
X419551Y34862D02*
D03*
X381451Y12700D02*
D03*
X126915Y179169D02*
D03*
X408088Y238316D02*
D03*
X470351Y114300D02*
D03*
X483051Y38100D02*
D03*
X356051Y313563D02*
D03*
X296996Y238125D02*
D03*
X295091Y217170D02*
D03*
X368751Y254000D02*
D03*
X254451Y292100D02*
D03*
X457651Y297878D02*
D03*
X355371Y106680D02*
D03*
X531311Y233893D02*
D03*
X533851Y279400D02*
D03*
X406851Y330200D02*
D03*
X279851Y381000D02*
D03*
X419551Y342900D02*
D03*
X521151Y101600D02*
D03*
X342335Y292839D02*
D03*
X356051Y91740D02*
D03*
Y63500D02*
D03*
X241751Y393700D02*
D03*
X267151Y469900D02*
D03*
Y431800D02*
D03*
X228670Y431221D02*
D03*
X116021Y186588D02*
D03*
X432251Y249746D02*
D03*
X470351Y304419D02*
D03*
X495751Y317500D02*
D03*
Y114300D02*
D03*
Y38100D02*
D03*
X352114Y292839D02*
D03*
X380938Y304287D02*
D03*
X444951Y50800D02*
D03*
X292551Y63500D02*
D03*
X46626Y20775D02*
D03*
X400481Y6540D02*
D03*
X317951Y152400D02*
D03*
X406851Y127000D02*
D03*
X304809Y292542D02*
D03*
X341446Y241300D02*
D03*
X330651Y203200D02*
D03*
X267151Y63500D02*
D03*
X470351Y44640D02*
D03*
X508451Y101600D02*
D03*
X356051Y330200D02*
D03*
X483051Y310959D02*
D03*
X510991Y236220D02*
D03*
X287398Y255079D02*
D03*
X304870Y217170D02*
D03*
X307598Y273241D02*
D03*
X267151Y330200D02*
D03*
X190951Y51420D02*
D03*
Y108140D02*
D03*
X203651Y25400D02*
D03*
X178251D02*
D03*
X114751Y38679D02*
D03*
X140151Y76200D02*
D03*
X102051Y38100D02*
D03*
X133237Y83114D02*
D03*
X356051Y76200D02*
D03*
X241751Y88900D02*
D03*
X267151Y520700D02*
D03*
X190951Y469900D02*
D03*
Y546100D02*
D03*
X381451Y444500D02*
D03*
X419551Y533400D02*
D03*
X246399Y412560D02*
D03*
X241751Y431800D02*
D03*
X254451Y406781D02*
D03*
X267151Y393700D02*
D03*
X254451Y355600D02*
D03*
X84271Y297729D02*
D03*
X110941Y248920D02*
D03*
X116120Y212189D02*
D03*
X215081Y153670D02*
D03*
X223395Y266360D02*
D03*
X115386Y105410D02*
D03*
X210001Y239451D02*
D03*
D86*
X235274Y263779D02*
D03*
X123771Y231010D02*
D03*
D87*
X290451Y367949D02*
D03*
X325452D02*
D03*
X345452D02*
D03*
X355452D02*
D03*
X310451D02*
D03*
X265452D02*
D03*
X305452D02*
D03*
X330451D02*
D03*
X335452D02*
D03*
X280451D02*
D03*
X360451D02*
D03*
X285452D02*
D03*
X315452D02*
D03*
X365452D02*
D03*
X375452D02*
D03*
X320451D02*
D03*
X340451D02*
D03*
X300451D02*
D03*
X350451D02*
D03*
X370451D02*
D03*
X270451D02*
D03*
X295452D02*
D03*
X275452D02*
D03*
X260451D02*
D03*
D88*
X385452Y342951D02*
D03*
X250451D02*
D03*
D89*
X208851Y469900D02*
D03*
X223852D02*
D03*
X208851Y546100D02*
D03*
X223852D02*
D03*
X386651Y469900D02*
D03*
X401652D02*
D03*
X386651Y546100D02*
D03*
X401652D02*
D03*
M02*
