G04*
G04 #@! TF.GenerationSoftware,Altium Limited,Altium Designer,26.1.1 (7)*
G04*
G04 Layer_Color=0*
%FSLAX44Y44*%
%MOMM*%
G71*
G04*
G04 #@! TF.SameCoordinates,FB23F88C-E865-406B-BE6F-A8DC1CEE19A6*
G04*
G04*
G04 #@! TF.FilePolarity,Positive*
G04*
G01*
G75*
%ADD93C,0.0254*%
G36*
X25851Y32815D02*
X26935D01*
X29060Y33238D01*
X31061Y34067D01*
X32863Y35271D01*
X34395Y36803D01*
X35599Y38605D01*
X36428Y40606D01*
X36851Y42732D01*
Y43815D01*
Y44898D01*
X36428Y47023D01*
X35599Y49025D01*
X34395Y50827D01*
X32863Y52359D01*
X31061Y53563D01*
X29060Y54392D01*
X26935Y54815D01*
X25851D01*
X24768D01*
X22643Y54392D01*
X20641Y53563D01*
X18839Y52359D01*
X17307Y50827D01*
X16104Y49025D01*
X15274Y47023D01*
X14852Y44898D01*
Y43815D01*
Y42732D01*
X15274Y40606D01*
X16104Y38605D01*
X17307Y36803D01*
X18839Y35271D01*
X20641Y34067D01*
X22643Y33238D01*
X24768Y32815D01*
X25851D01*
D01*
D02*
G37*
G36*
X38551Y300151D02*
X39635D01*
X41760Y300573D01*
X43762Y301402D01*
X45563Y302606D01*
X47095Y304138D01*
X48299Y305940D01*
X49128Y307941D01*
X49551Y310067D01*
Y311150D01*
Y312233D01*
X49128Y314358D01*
X48299Y316360D01*
X47095Y318162D01*
X45563Y319694D01*
X43762Y320898D01*
X41760Y321727D01*
X39635Y322150D01*
X38551D01*
X37468D01*
X35343Y321727D01*
X33341Y320898D01*
X31539Y319694D01*
X30007Y318162D01*
X28804Y316360D01*
X27975Y314358D01*
X27552Y312233D01*
Y311150D01*
Y310067D01*
X27975Y307941D01*
X28804Y305940D01*
X30007Y304138D01*
X31539Y302606D01*
X33341Y301402D01*
X35343Y300573D01*
X37468Y300151D01*
X38551D01*
D01*
D02*
G37*
G36*
X597351Y32815D02*
X598435D01*
X600560Y33238D01*
X602561Y34067D01*
X604363Y35271D01*
X605895Y36803D01*
X607099Y38605D01*
X607928Y40606D01*
X608351Y42732D01*
Y43815D01*
Y44898D01*
X607928Y47023D01*
X607099Y49025D01*
X605895Y50827D01*
X604363Y52359D01*
X602561Y53563D01*
X600560Y54392D01*
X598435Y54815D01*
X597351D01*
X596268D01*
X594143Y54392D01*
X592141Y53563D01*
X590340Y52359D01*
X588807Y50827D01*
X587604Y49025D01*
X586774Y47023D01*
X586352Y44898D01*
Y43815D01*
Y42732D01*
X586774Y40606D01*
X587604Y38605D01*
X588807Y36803D01*
X590340Y35271D01*
X592141Y34067D01*
X594143Y33238D01*
X596268Y32815D01*
X597351D01*
D01*
D02*
G37*
G36*
Y300151D02*
X598435D01*
X600560Y300573D01*
X602561Y301402D01*
X604363Y302606D01*
X605895Y304138D01*
X607099Y305940D01*
X607928Y307941D01*
X608351Y310067D01*
Y311150D01*
Y312233D01*
X607928Y314358D01*
X607099Y316360D01*
X605895Y318162D01*
X604363Y319694D01*
X602561Y320898D01*
X600560Y321727D01*
X598435Y322150D01*
X597351D01*
X596268D01*
X594143Y321727D01*
X592141Y320898D01*
X590340Y319694D01*
X588807Y318162D01*
X587604Y316360D01*
X586774Y314358D01*
X586352Y312233D01*
Y311150D01*
Y310067D01*
X586774Y307941D01*
X587604Y305940D01*
X588807Y304138D01*
X590340Y302606D01*
X592141Y301402D01*
X594143Y300573D01*
X596268Y300151D01*
X597351D01*
D01*
D02*
G37*
G36*
X89920Y216150D02*
X90567D01*
X91761Y216645D01*
X92675Y217559D01*
X93170Y218754D01*
Y219400D01*
Y220047D01*
X92675Y221241D01*
X91761Y222155D01*
X90567Y222650D01*
X89920D01*
X89274D01*
X88079Y222155D01*
X87165Y221241D01*
X86670Y220047D01*
Y219400D01*
Y218754D01*
X87165Y217559D01*
X88079Y216645D01*
X89274Y216150D01*
X89920D01*
D01*
D02*
G37*
G36*
Y158350D02*
X90567D01*
X91761Y158845D01*
X92675Y159759D01*
X93170Y160953D01*
Y161600D01*
Y162246D01*
X92675Y163441D01*
X91761Y164355D01*
X90567Y164850D01*
X89920D01*
X89274D01*
X88079Y164355D01*
X87165Y163441D01*
X86670Y162246D01*
Y161600D01*
Y160953D01*
X87165Y159759D01*
X88079Y158845D01*
X89274Y158350D01*
X89920D01*
D01*
D02*
G37*
D93*
X432251Y571500D02*
Y330200D01*
X597351D01*
D02*
G02*
X622751Y304800I0J-25400D01*
G01*
Y63500D01*
D02*
G02*
X571951Y0I-57150J-6350D01*
G01*
X38551D01*
D02*
G02*
X451Y50800I6350J44450D01*
G01*
Y292100D01*
D02*
G02*
X63951Y330200I50800J-12700D01*
G01*
X178251D01*
Y571500D01*
X432251D01*
M02*
