G04*
G04 #@! TF.GenerationSoftware,Altium Limited,Altium Designer,26.1.1 (7)*
G04*
G04 Layer_Color=32896*
%FSLAX44Y44*%
%MOMM*%
G71*
G04*
G04 #@! TF.SameCoordinates,FB23F88C-E865-406B-BE6F-A8DC1CEE19A6*
G04*
G04*
G04 #@! TF.FilePolarity,Positive*
G04*
G01*
G75*
%ADD10C,0.1244*%
G36*
X182699Y463599D02*
X174813D01*
Y465092D01*
X181023D01*
Y476201D01*
X182699D01*
Y463599D01*
D02*
G37*
G36*
X172810D02*
X163394D01*
Y465092D01*
X171134D01*
Y469372D01*
X164159D01*
Y470865D01*
X171134D01*
Y474708D01*
X163685D01*
Y476201D01*
X172810D01*
Y463599D01*
D02*
G37*
G36*
X161081D02*
X156546D01*
X156128Y463617D01*
X155745Y463635D01*
X155399Y463672D01*
X155108Y463708D01*
X154853Y463744D01*
X154671Y463763D01*
X154616Y463781D01*
X154561Y463799D01*
X154525D01*
X154197Y463890D01*
X153906Y463999D01*
X153651Y464090D01*
X153432Y464200D01*
X153250Y464291D01*
X153123Y464364D01*
X153050Y464418D01*
X153013Y464436D01*
X152777Y464600D01*
X152576Y464801D01*
X152376Y464983D01*
X152212Y465165D01*
X152066Y465329D01*
X151957Y465456D01*
X151884Y465547D01*
X151866Y465584D01*
X151684Y465875D01*
X151502Y466185D01*
X151356Y466476D01*
X151247Y466768D01*
X151138Y467023D01*
X151065Y467223D01*
X151046Y467296D01*
X151028Y467350D01*
X151010Y467387D01*
Y467405D01*
X150901Y467842D01*
X150810Y468279D01*
X150755Y468698D01*
X150701Y469099D01*
X150682Y469445D01*
Y469590D01*
X150664Y469718D01*
Y469809D01*
Y469900D01*
Y469936D01*
Y469955D01*
X150682Y470574D01*
X150737Y471138D01*
X150828Y471648D01*
X150864Y471885D01*
X150919Y472085D01*
X150974Y472286D01*
X151010Y472450D01*
X151046Y472595D01*
X151101Y472723D01*
X151119Y472832D01*
X151156Y472905D01*
X151174Y472941D01*
Y472960D01*
X151374Y473433D01*
X151611Y473852D01*
X151866Y474216D01*
X152103Y474526D01*
X152321Y474781D01*
X152503Y474963D01*
X152576Y475018D01*
X152631Y475072D01*
X152649Y475090D01*
X152667Y475109D01*
X152959Y475345D01*
X153268Y475527D01*
X153578Y475691D01*
X153869Y475819D01*
X154124Y475910D01*
X154325Y475965D01*
X154397Y476001D01*
X154452D01*
X154488Y476019D01*
X154507D01*
X154816Y476074D01*
X155181Y476128D01*
X155545Y476165D01*
X155909Y476183D01*
X156237Y476201D01*
X161081D01*
Y463599D01*
D02*
G37*
G36*
X149535Y468042D02*
Y466622D01*
X144053D01*
Y463599D01*
X142505D01*
Y466622D01*
X140793D01*
Y468042D01*
X142505D01*
Y476201D01*
X143762D01*
X149535Y468042D01*
D02*
G37*
G36*
X132856Y565120D02*
X133347Y565028D01*
X133766Y564883D01*
X134130Y564737D01*
X134294Y564646D01*
X134422Y564573D01*
X134549Y564500D01*
X134640Y564427D01*
X134713Y564373D01*
X134768Y564336D01*
X134804Y564318D01*
X134823Y564300D01*
X135169Y563954D01*
X135442Y563572D01*
X135660Y563171D01*
X135842Y562770D01*
X135952Y562424D01*
X136006Y562279D01*
X136043Y562151D01*
X136061Y562042D01*
X136079Y561969D01*
X136097Y561914D01*
Y561896D01*
X134549Y561623D01*
X134476Y562024D01*
X134367Y562369D01*
X134240Y562661D01*
X134112Y562898D01*
X133985Y563080D01*
X133876Y563207D01*
X133803Y563298D01*
X133784Y563316D01*
X133548Y563499D01*
X133293Y563644D01*
X133056Y563735D01*
X132819Y563808D01*
X132601Y563845D01*
X132437Y563881D01*
X132291D01*
X131963Y563863D01*
X131672Y563790D01*
X131417Y563699D01*
X131198Y563608D01*
X131034Y563499D01*
X130907Y563408D01*
X130816Y563335D01*
X130798Y563316D01*
X130597Y563098D01*
X130452Y562861D01*
X130361Y562625D01*
X130288Y562406D01*
X130251Y562206D01*
X130215Y562060D01*
Y561951D01*
Y561932D01*
Y561914D01*
Y561714D01*
X130251Y561532D01*
X130342Y561222D01*
X130470Y560949D01*
X130616Y560712D01*
X130761Y560548D01*
X130889Y560421D01*
X130980Y560348D01*
X130998Y560330D01*
X131016D01*
X131326Y560166D01*
X131617Y560038D01*
X131927Y559947D01*
X132200Y559893D01*
X132437Y559856D01*
X132637Y559820D01*
X132874D01*
X132947Y559838D01*
X133038D01*
X133220Y558472D01*
X132983Y558527D01*
X132765Y558563D01*
X132583Y558600D01*
X132419Y558618D01*
X132291Y558636D01*
X132127D01*
X131745Y558600D01*
X131399Y558527D01*
X131089Y558418D01*
X130834Y558290D01*
X130634Y558163D01*
X130488Y558053D01*
X130397Y557980D01*
X130361Y557944D01*
X130124Y557671D01*
X129942Y557379D01*
X129814Y557088D01*
X129741Y556797D01*
X129687Y556560D01*
X129669Y556360D01*
X129650Y556287D01*
Y556232D01*
Y556196D01*
Y556177D01*
X129687Y555777D01*
X129778Y555413D01*
X129887Y555103D01*
X130033Y554830D01*
X130178Y554611D01*
X130288Y554447D01*
X130379Y554338D01*
X130415Y554302D01*
X130707Y554047D01*
X131016Y553865D01*
X131326Y553737D01*
X131617Y553646D01*
X131872Y553591D01*
X132072Y553573D01*
X132145Y553555D01*
X132255D01*
X132583Y553573D01*
X132892Y553646D01*
X133165Y553737D01*
X133384Y553846D01*
X133566Y553937D01*
X133712Y554029D01*
X133784Y554101D01*
X133821Y554120D01*
X134039Y554375D01*
X134221Y554666D01*
X134385Y554976D01*
X134513Y555303D01*
X134604Y555577D01*
X134640Y555704D01*
X134659Y555813D01*
X134677Y555904D01*
X134695Y555977D01*
X134713Y556014D01*
Y556032D01*
X136261Y555831D01*
X136225Y555540D01*
X136170Y555267D01*
X136006Y554757D01*
X135806Y554320D01*
X135697Y554138D01*
X135587Y553956D01*
X135478Y553792D01*
X135369Y553664D01*
X135278Y553537D01*
X135187Y553446D01*
X135132Y553373D01*
X135077Y553318D01*
X135041Y553282D01*
X135023Y553264D01*
X134804Y553100D01*
X134586Y552936D01*
X134367Y552808D01*
X134130Y552699D01*
X133675Y552517D01*
X133238Y552408D01*
X133038Y552371D01*
X132856Y552335D01*
X132692Y552317D01*
X132546Y552298D01*
X132437Y552280D01*
X132273D01*
X131927Y552298D01*
X131617Y552335D01*
X131308Y552389D01*
X131016Y552462D01*
X130743Y552553D01*
X130506Y552644D01*
X130270Y552754D01*
X130069Y552863D01*
X129869Y552954D01*
X129705Y553063D01*
X129559Y553154D01*
X129450Y553245D01*
X129359Y553318D01*
X129286Y553373D01*
X129250Y553409D01*
X129232Y553428D01*
X129013Y553646D01*
X128831Y553883D01*
X128667Y554120D01*
X128521Y554356D01*
X128412Y554575D01*
X128303Y554812D01*
X128157Y555249D01*
X128121Y555449D01*
X128084Y555631D01*
X128048Y555795D01*
X128029Y555941D01*
X128011Y556050D01*
Y556141D01*
Y556196D01*
Y556214D01*
X128029Y556651D01*
X128102Y557052D01*
X128212Y557398D01*
X128321Y557689D01*
X128430Y557926D01*
X128539Y558108D01*
X128612Y558217D01*
X128631Y558254D01*
X128885Y558527D01*
X129159Y558764D01*
X129450Y558946D01*
X129741Y559091D01*
X129996Y559201D01*
X130197Y559273D01*
X130270Y559292D01*
X130324Y559310D01*
X130361Y559328D01*
X130379D01*
X130069Y559492D01*
X129814Y559656D01*
X129596Y559838D01*
X129414Y560002D01*
X129268Y560148D01*
X129159Y560275D01*
X129104Y560348D01*
X129086Y560384D01*
X128940Y560639D01*
X128831Y560894D01*
X128740Y561149D01*
X128685Y561386D01*
X128649Y561586D01*
X128631Y561732D01*
Y561841D01*
Y561878D01*
X128649Y562187D01*
X128703Y562497D01*
X128776Y562770D01*
X128867Y563007D01*
X128958Y563207D01*
X129031Y563371D01*
X129086Y563462D01*
X129104Y563499D01*
X129286Y563772D01*
X129505Y564009D01*
X129723Y564209D01*
X129942Y564391D01*
X130124Y564519D01*
X130288Y564628D01*
X130397Y564682D01*
X130415Y564701D01*
X130434D01*
X130761Y564846D01*
X131089Y564956D01*
X131417Y565047D01*
X131708Y565101D01*
X131945Y565138D01*
X132145Y565156D01*
X132601D01*
X132856Y565120D01*
D02*
G37*
G36*
X169971Y552499D02*
X162086D01*
Y553992D01*
X168296D01*
Y565101D01*
X169971D01*
Y552499D01*
D02*
G37*
G36*
X160082D02*
X150667D01*
Y553992D01*
X158407D01*
Y558272D01*
X151432D01*
Y559765D01*
X158407D01*
Y563608D01*
X150958D01*
Y565101D01*
X160082D01*
Y552499D01*
D02*
G37*
G36*
X148354D02*
X143819D01*
X143400Y552517D01*
X143018Y552535D01*
X142672Y552572D01*
X142380Y552608D01*
X142125Y552644D01*
X141943Y552663D01*
X141889Y552681D01*
X141834Y552699D01*
X141798D01*
X141470Y552790D01*
X141178Y552899D01*
X140924Y552990D01*
X140705Y553100D01*
X140523Y553191D01*
X140395Y553264D01*
X140323Y553318D01*
X140286Y553336D01*
X140049Y553500D01*
X139849Y553701D01*
X139649Y553883D01*
X139485Y554065D01*
X139339Y554229D01*
X139230Y554356D01*
X139157Y554447D01*
X139139Y554484D01*
X138957Y554775D01*
X138774Y555085D01*
X138629Y555376D01*
X138519Y555668D01*
X138410Y555923D01*
X138337Y556123D01*
X138319Y556196D01*
X138301Y556250D01*
X138283Y556287D01*
Y556305D01*
X138174Y556742D01*
X138082Y557179D01*
X138028Y557598D01*
X137973Y557999D01*
X137955Y558345D01*
Y558490D01*
X137937Y558618D01*
Y558709D01*
Y558800D01*
Y558836D01*
Y558855D01*
X137955Y559474D01*
X138010Y560038D01*
X138101Y560548D01*
X138137Y560785D01*
X138192Y560985D01*
X138246Y561186D01*
X138283Y561350D01*
X138319Y561495D01*
X138374Y561623D01*
X138392Y561732D01*
X138428Y561805D01*
X138447Y561841D01*
Y561860D01*
X138647Y562333D01*
X138884Y562752D01*
X139139Y563116D01*
X139375Y563426D01*
X139594Y563681D01*
X139776Y563863D01*
X139849Y563918D01*
X139904Y563972D01*
X139922Y563990D01*
X139940Y564009D01*
X140231Y564245D01*
X140541Y564427D01*
X140851Y564591D01*
X141142Y564719D01*
X141397Y564810D01*
X141597Y564865D01*
X141670Y564901D01*
X141725D01*
X141761Y564919D01*
X141779D01*
X142089Y564974D01*
X142453Y565028D01*
X142817Y565065D01*
X143182Y565083D01*
X143510Y565101D01*
X148354D01*
Y552499D01*
D02*
G37*
G36*
X323000Y476238D02*
X323310Y476219D01*
X323601Y476165D01*
X323875Y476110D01*
X324130Y476037D01*
X324366Y475965D01*
X324585Y475873D01*
X324785Y475782D01*
X324967Y475691D01*
X325113Y475600D01*
X325241Y475527D01*
X325350Y475455D01*
X325441Y475400D01*
X325495Y475345D01*
X325532Y475327D01*
X325550Y475309D01*
X325732Y475127D01*
X325896Y474926D01*
X326060Y474708D01*
X326188Y474489D01*
X326406Y474052D01*
X326552Y473615D01*
X326606Y473415D01*
X326661Y473214D01*
X326698Y473051D01*
X326734Y472905D01*
X326752Y472777D01*
Y472686D01*
X326770Y472632D01*
Y472614D01*
X325186Y472450D01*
X325149Y472868D01*
X325077Y473233D01*
X324967Y473561D01*
X324840Y473815D01*
X324731Y474034D01*
X324621Y474180D01*
X324548Y474271D01*
X324512Y474307D01*
X324239Y474526D01*
X323947Y474690D01*
X323638Y474817D01*
X323365Y474890D01*
X323110Y474945D01*
X322891Y474963D01*
X322818Y474981D01*
X322709D01*
X322327Y474963D01*
X321981Y474890D01*
X321689Y474781D01*
X321434Y474672D01*
X321234Y474544D01*
X321106Y474453D01*
X321015Y474380D01*
X320979Y474344D01*
X320760Y474089D01*
X320597Y473834D01*
X320469Y473579D01*
X320396Y473324D01*
X320342Y473124D01*
X320323Y472941D01*
X320305Y472832D01*
Y472814D01*
Y472796D01*
X320342Y472468D01*
X320414Y472122D01*
X320542Y471812D01*
X320669Y471521D01*
X320815Y471284D01*
X320943Y471084D01*
X320979Y471011D01*
X321015Y470956D01*
X321052Y470938D01*
Y470920D01*
X321198Y470719D01*
X321380Y470519D01*
X321580Y470301D01*
X321799Y470082D01*
X322254Y469645D01*
X322709Y469208D01*
X322946Y469008D01*
X323146Y468825D01*
X323346Y468662D01*
X323511Y468516D01*
X323638Y468407D01*
X323747Y468316D01*
X323820Y468261D01*
X323838Y468243D01*
X324294Y467860D01*
X324712Y467496D01*
X325059Y467168D01*
X325332Y466895D01*
X325568Y466658D01*
X325732Y466494D01*
X325823Y466385D01*
X325860Y466367D01*
Y466349D01*
X326115Y466039D01*
X326315Y465748D01*
X326497Y465456D01*
X326643Y465201D01*
X326752Y464983D01*
X326825Y464819D01*
X326861Y464710D01*
X326880Y464691D01*
Y464673D01*
X326953Y464473D01*
X326989Y464291D01*
X327025Y464109D01*
X327043Y463945D01*
X327062Y463799D01*
Y463690D01*
Y463617D01*
Y463599D01*
X318703D01*
Y465092D01*
X324913D01*
X324694Y465402D01*
X324585Y465529D01*
X324494Y465657D01*
X324403Y465766D01*
X324330Y465839D01*
X324275Y465893D01*
X324257Y465912D01*
X324166Y466003D01*
X324057Y466094D01*
X323802Y466330D01*
X323511Y466604D01*
X323201Y466877D01*
X322910Y467114D01*
X322782Y467223D01*
X322673Y467332D01*
X322582Y467405D01*
X322509Y467460D01*
X322472Y467496D01*
X322454Y467514D01*
X322163Y467769D01*
X321871Y468006D01*
X321616Y468243D01*
X321380Y468443D01*
X321161Y468643D01*
X320979Y468825D01*
X320797Y468989D01*
X320651Y469135D01*
X320505Y469281D01*
X320396Y469390D01*
X320305Y469481D01*
X320214Y469572D01*
X320123Y469682D01*
X320087Y469718D01*
X319832Y470028D01*
X319613Y470301D01*
X319431Y470574D01*
X319285Y470792D01*
X319176Y470993D01*
X319103Y471138D01*
X319067Y471230D01*
X319049Y471266D01*
X318939Y471539D01*
X318866Y471812D01*
X318794Y472067D01*
X318757Y472286D01*
X318739Y472486D01*
X318721Y472632D01*
Y472723D01*
Y472759D01*
X318739Y473032D01*
X318775Y473287D01*
X318812Y473542D01*
X318885Y473761D01*
X319067Y474198D01*
X319249Y474544D01*
X319358Y474708D01*
X319449Y474835D01*
X319540Y474963D01*
X319631Y475054D01*
X319704Y475127D01*
X319741Y475200D01*
X319777Y475218D01*
X319795Y475236D01*
X319996Y475418D01*
X320214Y475582D01*
X320451Y475710D01*
X320688Y475819D01*
X321161Y476001D01*
X321635Y476128D01*
X321835Y476165D01*
X322035Y476201D01*
X322217Y476219D01*
X322363Y476238D01*
X322491Y476256D01*
X322673D01*
X323000Y476238D01*
D02*
G37*
G36*
X360535Y463599D02*
X352649D01*
Y465092D01*
X358860D01*
Y476201D01*
X360535D01*
Y463599D01*
D02*
G37*
G36*
X350646D02*
X341231D01*
Y465092D01*
X348970D01*
Y469372D01*
X341995D01*
Y470865D01*
X348970D01*
Y474708D01*
X341522D01*
Y476201D01*
X350646D01*
Y463599D01*
D02*
G37*
G36*
X338918D02*
X334383D01*
X333964Y463617D01*
X333582Y463635D01*
X333236Y463672D01*
X332944Y463708D01*
X332689Y463744D01*
X332507Y463763D01*
X332452Y463781D01*
X332398Y463799D01*
X332361D01*
X332034Y463890D01*
X331742Y463999D01*
X331487Y464090D01*
X331269Y464200D01*
X331087Y464291D01*
X330959Y464364D01*
X330886Y464418D01*
X330850Y464436D01*
X330613Y464600D01*
X330413Y464801D01*
X330212Y464983D01*
X330048Y465165D01*
X329903Y465329D01*
X329794Y465456D01*
X329721Y465547D01*
X329702Y465584D01*
X329520Y465875D01*
X329338Y466185D01*
X329193Y466476D01*
X329083Y466768D01*
X328974Y467023D01*
X328901Y467223D01*
X328883Y467296D01*
X328865Y467350D01*
X328847Y467387D01*
Y467405D01*
X328737Y467842D01*
X328646Y468279D01*
X328591Y468698D01*
X328537Y469099D01*
X328519Y469445D01*
Y469590D01*
X328501Y469718D01*
Y469809D01*
Y469900D01*
Y469936D01*
Y469955D01*
X328519Y470574D01*
X328573Y471138D01*
X328664Y471648D01*
X328701Y471885D01*
X328755Y472085D01*
X328810Y472286D01*
X328847Y472450D01*
X328883Y472595D01*
X328938Y472723D01*
X328956Y472832D01*
X328992Y472905D01*
X329010Y472941D01*
Y472960D01*
X329211Y473433D01*
X329448Y473852D01*
X329702Y474216D01*
X329939Y474526D01*
X330158Y474781D01*
X330340Y474963D01*
X330413Y475018D01*
X330467Y475072D01*
X330486Y475090D01*
X330504Y475109D01*
X330795Y475345D01*
X331105Y475527D01*
X331414Y475691D01*
X331706Y475819D01*
X331961Y475910D01*
X332161Y475965D01*
X332234Y476001D01*
X332289D01*
X332325Y476019D01*
X332343D01*
X332653Y476074D01*
X333017Y476128D01*
X333381Y476165D01*
X333745Y476183D01*
X334073Y476201D01*
X338918D01*
Y463599D01*
D02*
G37*
G36*
X336056Y552146D02*
X336256Y551855D01*
X336493Y551563D01*
X336711Y551309D01*
X336930Y551090D01*
X337094Y550908D01*
X337167Y550853D01*
X337221Y550799D01*
X337239Y550780D01*
X337258Y550762D01*
X337640Y550453D01*
X338022Y550161D01*
X338387Y549906D01*
X338751Y549706D01*
X339061Y549524D01*
X339188Y549451D01*
X339297Y549396D01*
X339388Y549342D01*
X339461Y549324D01*
X339498Y549287D01*
X339516D01*
Y547794D01*
X339243Y547903D01*
X338969Y548031D01*
X338696Y548158D01*
X338441Y548285D01*
X338223Y548395D01*
X338041Y548486D01*
X337932Y548559D01*
X337913Y548577D01*
X337895D01*
X337567Y548777D01*
X337276Y548978D01*
X337021Y549160D01*
X336820Y549324D01*
X336638Y549451D01*
X336529Y549560D01*
X336438Y549633D01*
X336420Y549651D01*
Y539799D01*
X334872D01*
Y552456D01*
X335873D01*
X336056Y552146D01*
D02*
G37*
G36*
X374392Y539799D02*
X366506D01*
Y541292D01*
X372716D01*
Y552401D01*
X374392D01*
Y539799D01*
D02*
G37*
G36*
X364502D02*
X355087D01*
Y541292D01*
X362827D01*
Y545572D01*
X355852D01*
Y547065D01*
X362827D01*
Y550908D01*
X355378D01*
Y552401D01*
X364502D01*
Y539799D01*
D02*
G37*
G36*
X352774D02*
X348239D01*
X347821Y539817D01*
X347438Y539835D01*
X347092Y539872D01*
X346801Y539908D01*
X346546Y539944D01*
X346363Y539963D01*
X346309Y539981D01*
X346254Y539999D01*
X346218D01*
X345890Y540090D01*
X345599Y540199D01*
X345344Y540290D01*
X345125Y540400D01*
X344943Y540491D01*
X344815Y540564D01*
X344743Y540618D01*
X344706Y540636D01*
X344469Y540800D01*
X344269Y541001D01*
X344069Y541183D01*
X343905Y541365D01*
X343759Y541529D01*
X343650Y541656D01*
X343577Y541747D01*
X343559Y541784D01*
X343377Y542075D01*
X343195Y542385D01*
X343049Y542676D01*
X342940Y542968D01*
X342830Y543223D01*
X342758Y543423D01*
X342739Y543496D01*
X342721Y543550D01*
X342703Y543587D01*
Y543605D01*
X342594Y544042D01*
X342503Y544479D01*
X342448Y544898D01*
X342393Y545299D01*
X342375Y545645D01*
Y545790D01*
X342357Y545918D01*
Y546009D01*
Y546100D01*
Y546136D01*
Y546155D01*
X342375Y546774D01*
X342430Y547338D01*
X342521Y547848D01*
X342557Y548085D01*
X342612Y548285D01*
X342667Y548486D01*
X342703Y548650D01*
X342739Y548795D01*
X342794Y548923D01*
X342812Y549032D01*
X342849Y549105D01*
X342867Y549141D01*
Y549160D01*
X343067Y549633D01*
X343304Y550052D01*
X343559Y550416D01*
X343796Y550726D01*
X344014Y550981D01*
X344196Y551163D01*
X344269Y551217D01*
X344324Y551272D01*
X344342Y551290D01*
X344360Y551309D01*
X344652Y551545D01*
X344961Y551727D01*
X345271Y551891D01*
X345562Y552019D01*
X345817Y552110D01*
X346017Y552164D01*
X346090Y552201D01*
X346145D01*
X346181Y552219D01*
X346200D01*
X346509Y552274D01*
X346873Y552328D01*
X347238Y552365D01*
X347602Y552383D01*
X347930Y552401D01*
X352774D01*
Y539799D01*
D02*
G37*
G36*
X210509Y335937D02*
X210708Y336077D01*
X210789Y336147D01*
X210871Y336205D01*
X210941Y336263D01*
X210987Y336310D01*
X211022Y336345D01*
X211034Y336356D01*
X211092Y336415D01*
X211151Y336485D01*
X211302Y336648D01*
X211477Y336834D01*
X211652Y337033D01*
X211804Y337219D01*
X211874Y337301D01*
X211943Y337371D01*
X211990Y337429D01*
X212025Y337476D01*
X212048Y337499D01*
X212060Y337511D01*
X212223Y337697D01*
X212375Y337884D01*
X212526Y338047D01*
X212655Y338198D01*
X212783Y338338D01*
X212899Y338455D01*
X213004Y338572D01*
X213098Y338665D01*
X213191Y338758D01*
X213261Y338828D01*
X213319Y338886D01*
X213378Y338945D01*
X213447Y339003D01*
X213471Y339026D01*
X213669Y339189D01*
X213844Y339329D01*
X214019Y339446D01*
X214159Y339539D01*
X214287Y339609D01*
X214380Y339656D01*
X214438Y339679D01*
X214462Y339691D01*
X214637Y339761D01*
X214812Y339807D01*
X214975Y339854D01*
X215115Y339877D01*
X215243Y339889D01*
X215336Y339901D01*
X215394D01*
X215418D01*
X215593Y339889D01*
X215756Y339866D01*
X215919Y339842D01*
X216059Y339796D01*
X216339Y339679D01*
X216560Y339562D01*
X216665Y339492D01*
X216747Y339434D01*
X216828Y339376D01*
X216887Y339318D01*
X216933Y339271D01*
X216980Y339248D01*
X216992Y339224D01*
X217003Y339213D01*
X217120Y339085D01*
X217225Y338945D01*
X217306Y338793D01*
X217376Y338642D01*
X217493Y338338D01*
X217575Y338035D01*
X217598Y337907D01*
X217621Y337779D01*
X217633Y337662D01*
X217645Y337569D01*
X217656Y337487D01*
Y337371D01*
X217645Y337161D01*
X217633Y336963D01*
X217598Y336776D01*
X217563Y336601D01*
X217516Y336438D01*
X217470Y336286D01*
X217411Y336147D01*
X217353Y336018D01*
X217295Y335902D01*
X217236Y335808D01*
X217190Y335727D01*
X217143Y335657D01*
X217108Y335599D01*
X217073Y335564D01*
X217062Y335540D01*
X217050Y335529D01*
X216933Y335412D01*
X216805Y335307D01*
X216665Y335202D01*
X216525Y335121D01*
X216246Y334981D01*
X215966Y334887D01*
X215837Y334852D01*
X215709Y334817D01*
X215604Y334794D01*
X215511Y334771D01*
X215429Y334759D01*
X215371D01*
X215336Y334748D01*
X215324D01*
X215220Y335762D01*
X215488Y335785D01*
X215721Y335832D01*
X215931Y335902D01*
X216094Y335983D01*
X216234Y336053D01*
X216327Y336123D01*
X216385Y336170D01*
X216409Y336193D01*
X216549Y336368D01*
X216654Y336555D01*
X216735Y336753D01*
X216782Y336928D01*
X216817Y337091D01*
X216828Y337231D01*
X216840Y337277D01*
Y337347D01*
X216828Y337592D01*
X216782Y337814D01*
X216712Y338000D01*
X216642Y338163D01*
X216560Y338292D01*
X216502Y338373D01*
X216455Y338432D01*
X216432Y338455D01*
X216269Y338595D01*
X216106Y338700D01*
X215942Y338781D01*
X215779Y338828D01*
X215651Y338863D01*
X215534Y338875D01*
X215464Y338886D01*
X215453D01*
X215441D01*
X215231Y338863D01*
X215010Y338816D01*
X214812Y338735D01*
X214625Y338653D01*
X214473Y338560D01*
X214345Y338478D01*
X214299Y338455D01*
X214264Y338432D01*
X214252Y338408D01*
X214240D01*
X214112Y338315D01*
X213984Y338198D01*
X213844Y338070D01*
X213704Y337930D01*
X213424Y337639D01*
X213144Y337347D01*
X213016Y337196D01*
X212899Y337068D01*
X212795Y336939D01*
X212701Y336834D01*
X212631Y336753D01*
X212573Y336683D01*
X212538Y336636D01*
X212526Y336624D01*
X212282Y336333D01*
X212048Y336065D01*
X211839Y335843D01*
X211664Y335668D01*
X211512Y335517D01*
X211407Y335412D01*
X211337Y335354D01*
X211326Y335330D01*
X211314D01*
X211116Y335167D01*
X210929Y335039D01*
X210743Y334922D01*
X210579Y334829D01*
X210440Y334759D01*
X210335Y334712D01*
X210265Y334689D01*
X210253Y334678D01*
X210241D01*
X210113Y334631D01*
X209997Y334608D01*
X209880Y334584D01*
X209775Y334573D01*
X209682Y334561D01*
X209612D01*
X209565D01*
X209554D01*
Y339912D01*
X210509D01*
Y335937D01*
D02*
G37*
G36*
X217656Y331518D02*
X217458Y331401D01*
X217271Y331273D01*
X217085Y331122D01*
X216922Y330982D01*
X216782Y330842D01*
X216665Y330737D01*
X216630Y330690D01*
X216595Y330655D01*
X216584Y330644D01*
X216572Y330632D01*
X216374Y330387D01*
X216187Y330142D01*
X216024Y329909D01*
X215896Y329676D01*
X215779Y329478D01*
X215733Y329396D01*
X215698Y329326D01*
X215663Y329268D01*
X215651Y329221D01*
X215628Y329198D01*
Y329186D01*
X214672D01*
X214742Y329361D01*
X214823Y329536D01*
X214905Y329711D01*
X214986Y329874D01*
X215056Y330014D01*
X215115Y330131D01*
X215161Y330201D01*
X215173Y330212D01*
Y330224D01*
X215301Y330434D01*
X215429Y330620D01*
X215546Y330784D01*
X215651Y330912D01*
X215733Y331028D01*
X215802Y331098D01*
X215849Y331157D01*
X215861Y331168D01*
X209554D01*
Y332159D01*
X217656D01*
Y331518D01*
D02*
G37*
G36*
X212375Y326447D02*
X212188Y326400D01*
X212013Y326342D01*
X211850Y326283D01*
X211699Y326225D01*
X211559Y326155D01*
X211442Y326085D01*
X211326Y326003D01*
X211221Y325934D01*
X211127Y325875D01*
X211057Y325805D01*
X210987Y325747D01*
X210929Y325700D01*
X210894Y325654D01*
X210859Y325619D01*
X210848Y325607D01*
X210836Y325596D01*
X210743Y325479D01*
X210673Y325351D01*
X210544Y325094D01*
X210451Y324849D01*
X210393Y324604D01*
X210346Y324395D01*
X210335Y324313D01*
Y324231D01*
X210323Y324161D01*
Y324080D01*
X210335Y323812D01*
X210381Y323555D01*
X210440Y323322D01*
X210509Y323112D01*
X210579Y322949D01*
X210614Y322879D01*
X210638Y322821D01*
X210661Y322774D01*
X210684Y322739D01*
X210696Y322716D01*
Y322704D01*
X210859Y322483D01*
X211034Y322296D01*
X211232Y322133D01*
X211419Y322005D01*
X211582Y321900D01*
X211722Y321830D01*
X211780Y321806D01*
X211815Y321783D01*
X211839Y321772D01*
X211850D01*
X212153Y321678D01*
X212456Y321608D01*
X212760Y321550D01*
X213039Y321515D01*
X213168Y321503D01*
X213284Y321492D01*
X213389D01*
X213471Y321480D01*
X213541D01*
X213599D01*
X213634D01*
X213646D01*
X213949Y321492D01*
X214229Y321515D01*
X214485Y321562D01*
X214718Y321608D01*
X214916Y321643D01*
X214998Y321666D01*
X215068Y321690D01*
X215126Y321702D01*
X215161Y321713D01*
X215185Y321725D01*
X215196D01*
X215464Y321841D01*
X215709Y321970D01*
X215907Y322110D01*
X216082Y322261D01*
X216222Y322389D01*
X216315Y322494D01*
X216374Y322576D01*
X216397Y322588D01*
Y322599D01*
X216549Y322844D01*
X216665Y323112D01*
X216747Y323369D01*
X216793Y323614D01*
X216828Y323835D01*
X216840Y323928D01*
Y324010D01*
X216852Y324068D01*
Y324161D01*
X216840Y324453D01*
X216793Y324721D01*
X216724Y324943D01*
X216654Y325141D01*
X216572Y325292D01*
X216514Y325409D01*
X216467Y325479D01*
X216444Y325502D01*
X216269Y325689D01*
X216071Y325864D01*
X215861Y326003D01*
X215651Y326120D01*
X215464Y326213D01*
X215371Y326248D01*
X215301Y326272D01*
X215243Y326295D01*
X215196Y326318D01*
X215173Y326330D01*
X215161D01*
X215406Y327379D01*
X215616Y327309D01*
X215802Y327239D01*
X215977Y327146D01*
X216152Y327065D01*
X216304Y326971D01*
X216444Y326866D01*
X216584Y326773D01*
X216700Y326680D01*
X216793Y326586D01*
X216887Y326505D01*
X216968Y326423D01*
X217027Y326365D01*
X217085Y326307D01*
X217120Y326260D01*
X217132Y326237D01*
X217143Y326225D01*
X217248Y326062D01*
X217353Y325899D01*
X217435Y325735D01*
X217505Y325560D01*
X217610Y325211D01*
X217680Y324896D01*
X217715Y324744D01*
X217726Y324616D01*
X217738Y324488D01*
X217750Y324383D01*
X217761Y324301D01*
Y324185D01*
X217738Y323800D01*
X217680Y323427D01*
X217610Y323101D01*
X217563Y322949D01*
X217516Y322809D01*
X217470Y322681D01*
X217423Y322564D01*
X217388Y322471D01*
X217353Y322378D01*
X217318Y322319D01*
X217295Y322273D01*
X217283Y322238D01*
X217271Y322226D01*
X217073Y321911D01*
X216840Y321643D01*
X216607Y321410D01*
X216374Y321212D01*
X216164Y321060D01*
X216071Y321002D01*
X215989Y320955D01*
X215931Y320909D01*
X215884Y320885D01*
X215849Y320874D01*
X215837Y320862D01*
X215476Y320699D01*
X215103Y320582D01*
X214730Y320501D01*
X214392Y320442D01*
X214240Y320419D01*
X214089Y320407D01*
X213972Y320396D01*
X213856D01*
X213774Y320384D01*
X213704D01*
X213657D01*
X213646D01*
X213226Y320407D01*
X212818Y320454D01*
X212456Y320512D01*
X212282Y320559D01*
X212130Y320594D01*
X211990Y320629D01*
X211862Y320676D01*
X211745Y320710D01*
X211652Y320734D01*
X211582Y320769D01*
X211524Y320780D01*
X211489Y320804D01*
X211477D01*
X211127Y320979D01*
X210813Y321177D01*
X210544Y321387D01*
X210440Y321492D01*
X210335Y321585D01*
X210241Y321678D01*
X210160Y321772D01*
X210090Y321853D01*
X210043Y321923D01*
X209997Y321970D01*
X209962Y322016D01*
X209950Y322040D01*
X209938Y322051D01*
X209845Y322215D01*
X209763Y322378D01*
X209635Y322728D01*
X209542Y323077D01*
X209484Y323415D01*
X209460Y323579D01*
X209437Y323718D01*
X209425Y323847D01*
Y323952D01*
X209414Y324045D01*
Y324173D01*
X209425Y324406D01*
X209449Y324628D01*
X209472Y324838D01*
X209519Y325036D01*
X209577Y325222D01*
X209635Y325397D01*
X209693Y325560D01*
X209763Y325712D01*
X209822Y325840D01*
X209880Y325969D01*
X209938Y326062D01*
X209997Y326155D01*
X210043Y326213D01*
X210067Y326272D01*
X210090Y326295D01*
X210102Y326307D01*
X210241Y326470D01*
X210381Y326610D01*
X210544Y326738D01*
X210708Y326866D01*
X211034Y327076D01*
X211361Y327239D01*
X211512Y327309D01*
X211652Y327368D01*
X211780Y327414D01*
X211885Y327449D01*
X211978Y327484D01*
X212048Y327508D01*
X212095Y327519D01*
X212107D01*
X212375Y326447D01*
D02*
G37*
G36*
X284107Y374346D02*
X284308Y374055D01*
X284545Y373764D01*
X284763Y373509D01*
X284981Y373290D01*
X285145Y373108D01*
X285218Y373053D01*
X285273Y372999D01*
X285291Y372980D01*
X285309Y372962D01*
X285692Y372653D01*
X286074Y372361D01*
X286439Y372106D01*
X286803Y371906D01*
X287112Y371724D01*
X287240Y371651D01*
X287349Y371596D01*
X287440Y371542D01*
X287513Y371524D01*
X287549Y371487D01*
X287568D01*
Y369994D01*
X287294Y370103D01*
X287021Y370230D01*
X286748Y370358D01*
X286493Y370485D01*
X286275Y370595D01*
X286092Y370686D01*
X285983Y370759D01*
X285965Y370777D01*
X285947D01*
X285619Y370977D01*
X285328Y371177D01*
X285073Y371360D01*
X284872Y371524D01*
X284690Y371651D01*
X284581Y371760D01*
X284490Y371833D01*
X284472Y371851D01*
Y361999D01*
X282924D01*
Y374656D01*
X283925D01*
X284107Y374346D01*
D02*
G37*
G36*
X292521Y365914D02*
Y365532D01*
X292558Y365204D01*
X292576Y364931D01*
X292612Y364712D01*
X292649Y364548D01*
X292667Y364421D01*
X292703Y364348D01*
Y364330D01*
X292776Y364148D01*
X292867Y364002D01*
X292976Y363875D01*
X293068Y363747D01*
X293177Y363674D01*
X293250Y363601D01*
X293304Y363565D01*
X293323Y363547D01*
X293505Y363456D01*
X293687Y363383D01*
X293869Y363346D01*
X294033Y363310D01*
X294197Y363292D01*
X294306Y363274D01*
X294415D01*
X294707Y363292D01*
X294980Y363365D01*
X295198Y363437D01*
X295399Y363547D01*
X295544Y363638D01*
X295654Y363729D01*
X295727Y363783D01*
X295745Y363802D01*
X295836Y363911D01*
X295909Y364038D01*
X296018Y364330D01*
X296127Y364658D01*
X296182Y364986D01*
X296236Y365295D01*
Y365423D01*
X296255Y365532D01*
X296273Y365641D01*
Y365714D01*
Y365750D01*
Y365769D01*
X297784Y365550D01*
Y365204D01*
X297766Y364894D01*
X297712Y364585D01*
X297675Y364312D01*
X297602Y364057D01*
X297530Y363838D01*
X297457Y363620D01*
X297384Y363437D01*
X297293Y363274D01*
X297220Y363128D01*
X297147Y363000D01*
X297074Y362909D01*
X297020Y362836D01*
X296983Y362764D01*
X296965Y362745D01*
X296947Y362727D01*
X296765Y362563D01*
X296583Y362418D01*
X296382Y362290D01*
X296164Y362181D01*
X295745Y362017D01*
X295344Y361908D01*
X294962Y361835D01*
X294816Y361817D01*
X294670Y361798D01*
X294561Y361780D01*
X294397D01*
X293996Y361798D01*
X293632Y361853D01*
X293304Y361926D01*
X293013Y362017D01*
X292776Y362090D01*
X292612Y362163D01*
X292503Y362217D01*
X292467Y362235D01*
X292175Y362418D01*
X291920Y362636D01*
X291720Y362855D01*
X291538Y363055D01*
X291410Y363255D01*
X291319Y363401D01*
X291265Y363510D01*
X291246Y363529D01*
Y363547D01*
X291119Y363911D01*
X291010Y364293D01*
X290937Y364712D01*
X290900Y365113D01*
X290864Y365459D01*
Y365605D01*
X290846Y365750D01*
Y365860D01*
Y365933D01*
Y365987D01*
Y366005D01*
Y374601D01*
X292521D01*
Y365914D01*
D02*
G37*
%LPC*%
G36*
X159406Y474708D02*
X156492D01*
X156255Y474690D01*
X156018D01*
X155800Y474672D01*
X155436Y474617D01*
X155144Y474580D01*
X154907Y474526D01*
X154743Y474471D01*
X154652Y474453D01*
X154616Y474435D01*
X154288Y474271D01*
X153979Y474071D01*
X153705Y473834D01*
X153469Y473597D01*
X153287Y473378D01*
X153141Y473196D01*
X153104Y473124D01*
X153068Y473069D01*
X153032Y473032D01*
Y473014D01*
X152922Y472814D01*
X152813Y472577D01*
X152649Y472104D01*
X152540Y471594D01*
X152449Y471102D01*
X152431Y470883D01*
X152412Y470665D01*
X152394Y470483D01*
Y470319D01*
X152376Y470173D01*
Y470082D01*
Y470009D01*
Y469991D01*
X152394Y469481D01*
X152431Y469008D01*
X152485Y468589D01*
X152540Y468224D01*
X152576Y468079D01*
X152613Y467951D01*
X152649Y467824D01*
X152667Y467733D01*
X152686Y467660D01*
X152704Y467605D01*
X152722Y467569D01*
Y467551D01*
X152850Y467205D01*
X152995Y466895D01*
X153159Y466622D01*
X153305Y466385D01*
X153432Y466203D01*
X153541Y466076D01*
X153614Y466003D01*
X153633Y465966D01*
X153815Y465821D01*
X153997Y465693D01*
X154179Y465584D01*
X154361Y465475D01*
X154525Y465402D01*
X154652Y465347D01*
X154743Y465329D01*
X154780Y465311D01*
X155053Y465238D01*
X155381Y465183D01*
X155709Y465147D01*
X156018Y465129D01*
X156292Y465110D01*
X156419Y465092D01*
X159406D01*
Y474708D01*
D02*
G37*
G36*
X144053Y473688D02*
Y468042D01*
X148023D01*
X144053Y473688D01*
D02*
G37*
G36*
X146678Y563608D02*
X143764D01*
X143528Y563590D01*
X143291D01*
X143073Y563572D01*
X142708Y563517D01*
X142417Y563480D01*
X142180Y563426D01*
X142016Y563371D01*
X141925Y563353D01*
X141889Y563335D01*
X141561Y563171D01*
X141251Y562971D01*
X140978Y562734D01*
X140741Y562497D01*
X140559Y562279D01*
X140414Y562096D01*
X140377Y562024D01*
X140341Y561969D01*
X140304Y561932D01*
Y561914D01*
X140195Y561714D01*
X140086Y561477D01*
X139922Y561004D01*
X139812Y560494D01*
X139721Y560002D01*
X139703Y559783D01*
X139685Y559565D01*
X139667Y559383D01*
Y559219D01*
X139649Y559073D01*
Y558982D01*
Y558909D01*
Y558891D01*
X139667Y558381D01*
X139703Y557908D01*
X139758Y557489D01*
X139812Y557124D01*
X139849Y556979D01*
X139885Y556851D01*
X139922Y556724D01*
X139940Y556633D01*
X139958Y556560D01*
X139977Y556505D01*
X139995Y556469D01*
Y556451D01*
X140122Y556105D01*
X140268Y555795D01*
X140432Y555522D01*
X140577Y555285D01*
X140705Y555103D01*
X140814Y554976D01*
X140887Y554903D01*
X140905Y554866D01*
X141087Y554721D01*
X141270Y554593D01*
X141452Y554484D01*
X141634Y554375D01*
X141798Y554302D01*
X141925Y554247D01*
X142016Y554229D01*
X142053Y554211D01*
X142326Y554138D01*
X142654Y554083D01*
X142981Y554047D01*
X143291Y554029D01*
X143564Y554010D01*
X143692Y553992D01*
X146678D01*
Y563608D01*
D02*
G37*
G36*
X337242Y474708D02*
X334328D01*
X334091Y474690D01*
X333855D01*
X333636Y474672D01*
X333272Y474617D01*
X332981Y474580D01*
X332744Y474526D01*
X332580Y474471D01*
X332489Y474453D01*
X332452Y474435D01*
X332125Y474271D01*
X331815Y474071D01*
X331542Y473834D01*
X331305Y473597D01*
X331123Y473378D01*
X330977Y473196D01*
X330941Y473124D01*
X330904Y473069D01*
X330868Y473032D01*
Y473014D01*
X330759Y472814D01*
X330649Y472577D01*
X330486Y472104D01*
X330376Y471594D01*
X330285Y471102D01*
X330267Y470883D01*
X330249Y470665D01*
X330231Y470483D01*
Y470319D01*
X330212Y470173D01*
Y470082D01*
Y470009D01*
Y469991D01*
X330231Y469481D01*
X330267Y469008D01*
X330322Y468589D01*
X330376Y468224D01*
X330413Y468079D01*
X330449Y467951D01*
X330486Y467824D01*
X330504Y467733D01*
X330522Y467660D01*
X330540Y467605D01*
X330558Y467569D01*
Y467551D01*
X330686Y467205D01*
X330832Y466895D01*
X330995Y466622D01*
X331141Y466385D01*
X331269Y466203D01*
X331378Y466076D01*
X331451Y466003D01*
X331469Y465966D01*
X331651Y465821D01*
X331833Y465693D01*
X332015Y465584D01*
X332197Y465475D01*
X332361Y465402D01*
X332489Y465347D01*
X332580Y465329D01*
X332616Y465311D01*
X332890Y465238D01*
X333217Y465183D01*
X333545Y465147D01*
X333855Y465129D01*
X334128Y465110D01*
X334255Y465092D01*
X337242D01*
Y474708D01*
D02*
G37*
G36*
X351099Y550908D02*
X348185D01*
X347948Y550890D01*
X347711D01*
X347493Y550872D01*
X347128Y550817D01*
X346837Y550780D01*
X346600Y550726D01*
X346436Y550671D01*
X346345Y550653D01*
X346309Y550635D01*
X345981Y550471D01*
X345672Y550271D01*
X345398Y550034D01*
X345162Y549797D01*
X344979Y549579D01*
X344834Y549396D01*
X344797Y549324D01*
X344761Y549269D01*
X344725Y549232D01*
Y549214D01*
X344615Y549014D01*
X344506Y548777D01*
X344342Y548304D01*
X344233Y547794D01*
X344142Y547302D01*
X344123Y547083D01*
X344105Y546865D01*
X344087Y546683D01*
Y546519D01*
X344069Y546373D01*
Y546282D01*
Y546209D01*
Y546191D01*
X344087Y545681D01*
X344123Y545208D01*
X344178Y544789D01*
X344233Y544425D01*
X344269Y544279D01*
X344306Y544151D01*
X344342Y544024D01*
X344360Y543933D01*
X344378Y543860D01*
X344397Y543805D01*
X344415Y543769D01*
Y543751D01*
X344542Y543405D01*
X344688Y543095D01*
X344852Y542822D01*
X344998Y542585D01*
X345125Y542403D01*
X345234Y542276D01*
X345307Y542203D01*
X345325Y542166D01*
X345508Y542021D01*
X345690Y541893D01*
X345872Y541784D01*
X346054Y541674D01*
X346218Y541602D01*
X346345Y541547D01*
X346436Y541529D01*
X346473Y541511D01*
X346746Y541438D01*
X347074Y541383D01*
X347402Y541347D01*
X347711Y541329D01*
X347984Y541310D01*
X348112Y541292D01*
X351099D01*
Y550908D01*
D02*
G37*
%LPD*%
D10*
X189681Y376686D02*
X196588D01*
Y380140D01*
X195437Y381291D01*
X193135D01*
X191984Y380140D01*
Y376686D01*
Y378988D02*
X189681Y381291D01*
X196588Y388197D02*
X195437Y385895D01*
X193135Y383593D01*
X190832D01*
X189681Y384744D01*
Y387046D01*
X190832Y388197D01*
X191984D01*
X193135Y387046D01*
Y383593D01*
M02*
