G04*
G04 #@! TF.GenerationSoftware,Altium Limited,Altium Designer,26.1.1 (7)*
G04*
G04 Layer_Physical_Order=1*
G04 Layer_Color=255*
%FSLAX44Y44*%
%MOMM*%
G71*
G04*
G04 #@! TF.SameCoordinates,FB23F88C-E865-406B-BE6F-A8DC1CEE19A6*
G04*
G04*
G04 #@! TF.FilePolarity,Positive*
G04*
G01*
G75*
%ADD12R,0.8999X1.5001*%
%ADD13R,1.5001X0.8999*%
%ADD14R,0.8999X0.8999*%
%ADD15R,0.8001X0.2799*%
%ADD16R,1.5001X1.2400*%
%ADD17R,0.5499X1.1999*%
%ADD18R,1.2400X1.5001*%
%ADD19R,1.0000X1.1001*%
%ADD20R,1.5499X0.6000*%
%ADD21R,1.1001X1.0000*%
%ADD22R,0.8999X0.4501*%
%ADD23R,0.6350X1.0160*%
%ADD24R,0.5250X0.6000*%
%ADD25R,0.2799X0.8001*%
G04:AMPARAMS|DCode=26|XSize=1.5001mm|YSize=1.5001mm|CornerRadius=0.7501mm|HoleSize=0mm|Usage=FLASHONLY|Rotation=0.000|XOffset=0mm|YOffset=0mm|HoleType=Round|Shape=RoundedRectangle|*
%AMROUNDEDRECTD26*
21,1,1.5001,0.0000,0,0,0.0*
21,1,0.0000,1.5001,0,0,0.0*
1,1,1.5001,0.0000,0.0000*
1,1,1.5001,0.0000,0.0000*
1,1,1.5001,0.0000,0.0000*
1,1,1.5001,0.0000,0.0000*
%
%ADD26ROUNDEDRECTD26*%
%ADD27R,1.0000X4.5999*%
%ADD28R,1.6000X3.4000*%
%ADD29R,0.8001X0.8001*%
%ADD30R,1.1501X0.5751*%
G04:AMPARAMS|DCode=31|XSize=0.2751mm|YSize=0.2751mm|CornerRadius=0.1375mm|HoleSize=0mm|Usage=FLASHONLY|Rotation=90.000|XOffset=0mm|YOffset=0mm|HoleType=Round|Shape=RoundedRectangle|*
%AMROUNDEDRECTD31*
21,1,0.2751,0.0000,0,0,90.0*
21,1,0.0000,0.2751,0,0,90.0*
1,1,0.2751,0.0000,0.0000*
1,1,0.2751,0.0000,0.0000*
1,1,0.2751,0.0000,0.0000*
1,1,0.2751,0.0000,0.0000*
%
%ADD31ROUNDEDRECTD31*%
%ADD32R,1.8001X1.1999*%
%ADD33R,0.6000X0.8999*%
%ADD34R,1.5499X0.6500*%
%ADD35R,1.5001X1.5001*%
%ADD36R,1.1501X0.2751*%
%ADD37R,1.4001X1.4001*%
G04:AMPARAMS|DCode=38|XSize=1mm|YSize=1mm|CornerRadius=0.5mm|HoleSize=0mm|Usage=FLASHONLY|Rotation=270.000|XOffset=0mm|YOffset=0mm|HoleType=Round|Shape=RoundedRectangle|*
%AMROUNDEDRECTD38*
21,1,1.0000,0.0000,0,0,270.0*
21,1,0.0000,1.0000,0,0,270.0*
1,1,1.0000,0.0000,0.0000*
1,1,1.0000,0.0000,0.0000*
1,1,1.0000,0.0000,0.0000*
1,1,1.0000,0.0000,0.0000*
%
%ADD38ROUNDEDRECTD38*%
%ADD74C,0.1524*%
%ADD75C,0.3048*%
%ADD76C,0.4064*%
%ADD77C,0.2032*%
%ADD78C,1.6251*%
%ADD79C,1.9304*%
%ADD80O,1.3208X2.6416*%
%ADD81C,0.6500*%
%ADD82C,2.1999*%
%ADD83C,1.5080*%
%ADD84O,2.2159X1.1080*%
%ADD85C,0.8001*%
%ADD86C,0.8890*%
D12*
X561052Y265301D02*
D03*
X548352D02*
D03*
X535652D02*
D03*
X522952D02*
D03*
X510252D02*
D03*
X497552D02*
D03*
X484852D02*
D03*
X472152D02*
D03*
X459452D02*
D03*
X446752D02*
D03*
X434052D02*
D03*
X421352D02*
D03*
X408652D02*
D03*
X395952D02*
D03*
Y90300D02*
D03*
X408652D02*
D03*
X421352D02*
D03*
X434052D02*
D03*
X446752D02*
D03*
X459452D02*
D03*
X472152D02*
D03*
X484852D02*
D03*
X497552D02*
D03*
X510252D02*
D03*
X522952D02*
D03*
X535652D02*
D03*
X548352D02*
D03*
X561052D02*
D03*
D13*
X383450Y247650D02*
D03*
Y234950D02*
D03*
Y222250D02*
D03*
Y209550D02*
D03*
Y196850D02*
D03*
Y184150D02*
D03*
Y171450D02*
D03*
Y158750D02*
D03*
Y146050D02*
D03*
Y133350D02*
D03*
Y120650D02*
D03*
Y107950D02*
D03*
D14*
X483851Y192801D02*
D03*
X497852Y206799D02*
D03*
X483851D02*
D03*
X469851D02*
D03*
Y192801D02*
D03*
Y178801D02*
D03*
X483851D02*
D03*
X497852D02*
D03*
Y192801D02*
D03*
X167002Y135636D02*
D03*
X126001D02*
D03*
X268602Y136271D02*
D03*
X227601D02*
D03*
X167002Y119634D02*
D03*
X126001D02*
D03*
X268602Y120269D02*
D03*
X227601D02*
D03*
D15*
X87050Y83701D02*
D03*
Y78699D02*
D03*
Y73701D02*
D03*
X117052Y78699D02*
D03*
Y83701D02*
D03*
Y73701D02*
D03*
Y68699D02*
D03*
X87050D02*
D03*
D16*
X211929Y140218D02*
D03*
X225114Y186080D02*
D03*
X63951Y54000D02*
D03*
Y92100D02*
D03*
X167982Y160630D02*
D03*
X211929Y121219D02*
D03*
X225114Y205080D02*
D03*
X63951Y111100D02*
D03*
Y73000D02*
D03*
X167982Y179629D02*
D03*
D17*
X184500Y190802D02*
D03*
X193999Y164798D02*
D03*
X219653Y225758D02*
D03*
X210154Y251762D02*
D03*
X229153D02*
D03*
Y225758D02*
D03*
X210154D02*
D03*
X203499Y190802D02*
D03*
Y164798D02*
D03*
X184500D02*
D03*
D18*
X188437Y207518D02*
D03*
X309722Y254635D02*
D03*
Y235585D02*
D03*
X130652Y50800D02*
D03*
X263443Y236220D02*
D03*
X207436Y207518D02*
D03*
X328721Y254635D02*
D03*
Y235585D02*
D03*
X213151Y444500D02*
D03*
X232252D02*
D03*
X149651Y50800D02*
D03*
X175051Y76200D02*
D03*
Y101600D02*
D03*
X156052D02*
D03*
Y76200D02*
D03*
X111551Y25400D02*
D03*
X92552D02*
D03*
X149651D02*
D03*
X130652D02*
D03*
X251251Y444500D02*
D03*
X194152D02*
D03*
X244444Y236220D02*
D03*
D19*
X196031Y138039D02*
D03*
X419551Y499501D02*
D03*
X279851Y55001D02*
D03*
X180283Y137531D02*
D03*
X195269Y226451D02*
D03*
X120466Y150505D02*
D03*
X279851Y71999D02*
D03*
X254451Y55001D02*
D03*
X180283Y120533D02*
D03*
X196031Y121041D02*
D03*
X254451Y71999D02*
D03*
X368751Y529199D02*
D03*
Y512201D02*
D03*
X419551Y516499D02*
D03*
X120466Y167503D02*
D03*
X195269Y243449D02*
D03*
X95701Y272171D02*
D03*
Y289169D02*
D03*
D20*
X278932Y185499D02*
D03*
Y175499D02*
D03*
Y205501D02*
D03*
Y195501D02*
D03*
D21*
X513922Y312420D02*
D03*
X195152Y317500D02*
D03*
X402650Y419100D02*
D03*
X224850Y520700D02*
D03*
Y495300D02*
D03*
X309452Y50800D02*
D03*
X110677Y132842D02*
D03*
X80852Y248920D02*
D03*
X317707Y131445D02*
D03*
Y116205D02*
D03*
X530920Y312420D02*
D03*
X250250Y317500D02*
D03*
X245952Y546100D02*
D03*
X326450Y50800D02*
D03*
X402650D02*
D03*
X385652D02*
D03*
X334705Y131445D02*
D03*
Y116205D02*
D03*
X275650Y88900D02*
D03*
X258652D02*
D03*
X262950Y546100D02*
D03*
X207852Y495300D02*
D03*
Y520700D02*
D03*
X385652Y419100D02*
D03*
X233252Y317500D02*
D03*
X212150D02*
D03*
X97850Y248920D02*
D03*
X93679Y132842D02*
D03*
X233740Y164973D02*
D03*
X216742D02*
D03*
X110423Y117348D02*
D03*
X93425D02*
D03*
D22*
X316290Y208580D02*
D03*
Y199580D02*
D03*
X299292Y208580D02*
D03*
Y199580D02*
D03*
Y191579D02*
D03*
Y182580D02*
D03*
X316290D02*
D03*
Y191579D02*
D03*
D23*
X213151Y332900D02*
D03*
X194152D02*
D03*
X203651Y352900D02*
D03*
X133065Y161323D02*
D03*
X152064D02*
D03*
X142564Y181323D02*
D03*
D24*
X331952Y67201D02*
D03*
Y85199D02*
D03*
X323450D02*
D03*
Y67201D02*
D03*
X331952Y76200D02*
D03*
D25*
X104551Y61199D02*
D03*
X109552D02*
D03*
X99552Y91201D02*
D03*
X104551D02*
D03*
X94551D02*
D03*
X109552D02*
D03*
X99552Y61199D02*
D03*
X94551D02*
D03*
D26*
X279851Y25400D02*
D03*
X419551Y355600D02*
D03*
X330651Y444500D02*
D03*
D27*
X137771Y232875D02*
D03*
X157771D02*
D03*
D28*
X113771Y284876D02*
D03*
X181772D02*
D03*
D29*
X45656Y251460D02*
D03*
X60657D02*
D03*
X45656Y130810D02*
D03*
X60657D02*
D03*
D30*
X100672Y222499D02*
D03*
Y158501D02*
D03*
Y166500D02*
D03*
Y214501D02*
D03*
D31*
X251990Y251539D02*
D03*
X256991D02*
D03*
X261992Y256540D02*
D03*
Y251539D02*
D03*
Y261541D02*
D03*
X256991D02*
D03*
X251990D02*
D03*
X256991Y256540D02*
D03*
X251990D02*
D03*
D32*
X253451Y218501D02*
D03*
Y162499D02*
D03*
D33*
X213151Y420401D02*
D03*
X203651Y392399D02*
D03*
X194152Y420401D02*
D03*
D34*
X245952Y498399D02*
D03*
X262950Y508000D02*
D03*
X245952Y517601D02*
D03*
D35*
X102051Y76200D02*
D03*
D36*
X100672Y192999D02*
D03*
Y182999D02*
D03*
Y198001D02*
D03*
Y188001D02*
D03*
Y172999D02*
D03*
Y178001D02*
D03*
Y202999D02*
D03*
Y208001D02*
D03*
D37*
X134860Y196088D02*
D03*
X171858D02*
D03*
D38*
X515020Y124277D02*
D03*
X152851Y287020D02*
D03*
D74*
X80532Y90218D02*
X87050Y83701D01*
X80532Y90218D02*
Y90477D01*
X546551Y38100D02*
Y88501D01*
X548352Y90300D01*
X279851Y393700D02*
X406851D01*
Y342900D02*
Y393700D01*
Y342900D02*
X428695Y321056D01*
X446424D01*
X449981Y317500D01*
X486501D02*
X494453Y325453D01*
X565175D01*
X573554Y166703D02*
Y317073D01*
X571951Y165100D02*
X573554Y166703D01*
X432251Y152400D02*
X470351D01*
X400501Y146050D02*
X406851Y152400D01*
X383450Y146050D02*
X400501D01*
X449981Y317500D02*
X486501D01*
X565175Y325453D02*
X573554Y317073D01*
X355670Y303784D02*
X358655Y300800D01*
X374898Y215209D02*
X377791D01*
X383450Y209550D01*
X358655Y231455D02*
Y300800D01*
Y231455D02*
X374898Y215209D01*
X391911Y302560D02*
X402373Y292100D01*
X432251D01*
Y267099D02*
X434052Y265301D01*
X432251Y267099D02*
Y292100D01*
X354870Y342900D02*
X380270Y317500D01*
X444951D01*
X451111Y295168D02*
X457651Y288628D01*
X444951Y317500D02*
X451111Y311341D01*
Y295168D02*
Y311341D01*
X457651Y267099D02*
X459452Y265301D01*
X457651Y267099D02*
Y288628D01*
X514166Y285029D02*
X521238Y292100D01*
X546551D01*
X548352Y290299D01*
Y265301D02*
Y290299D01*
X514166Y285029D02*
Y312176D01*
X513922Y312420D02*
X514166Y312176D01*
X316290Y215900D02*
Y229014D01*
X309722Y235585D02*
X316290Y229014D01*
X313948Y199580D02*
X316290D01*
X306331Y191963D02*
X313948Y199580D01*
X304842Y177790D02*
X306331Y179278D01*
X293740Y177790D02*
X304842D01*
X292252Y179278D02*
X293740Y177790D01*
X306331Y179278D02*
Y191963D01*
X267151Y279400D02*
X277311Y269240D01*
X267151Y279400D02*
Y292100D01*
X254451Y304800D02*
X267151Y292100D01*
X190951Y304800D02*
X254451D01*
X190951D02*
Y313299D01*
X195152Y317500D01*
X203151Y342900D02*
X213151Y332900D01*
X181553Y342900D02*
X203151D01*
X181553Y331099D02*
Y342900D01*
Y331099D02*
X195152Y317500D01*
X244461Y400241D02*
X305251D01*
X213151Y332900D02*
X229051Y348800D01*
Y406400D01*
X224850Y495300D02*
Y520700D01*
X383791Y400241D02*
X402650Y419100D01*
X305251Y400241D02*
X383791D01*
X219062Y399860D02*
X222892Y403690D01*
X224850Y492493D02*
Y495300D01*
X185411Y453052D02*
X224850Y492493D01*
X185411Y418048D02*
Y453052D01*
X222892Y403690D02*
Y404071D01*
X185411Y418048D02*
X203601Y399860D01*
X219062D01*
X229051Y406400D02*
X238302D01*
X244461Y400241D01*
X222892Y404071D02*
X225221Y406400D01*
X229051D01*
X286862Y185501D02*
X292252Y180109D01*
Y179278D02*
Y180109D01*
X402650Y419100D02*
X419551Y436001D01*
Y499501D01*
X328617Y63866D02*
X331952Y67201D01*
X328617Y63147D02*
Y63866D01*
X309452Y50800D02*
X312485D01*
X320024Y58341D01*
X323809D02*
X328617Y63147D01*
X320024Y58341D02*
X323809D01*
X284052Y50800D02*
X309452D01*
X281952Y52901D02*
X284052Y50800D01*
X279851Y55001D02*
X281952Y52901D01*
X270453Y41402D02*
X281952Y52901D01*
X241751Y41402D02*
X270453D01*
X109552Y61199D02*
X120250D01*
X104551D02*
X109552D01*
X103491Y56147D02*
Y60140D01*
X104551Y61199D01*
X63951Y54000D02*
X76651D01*
X101343D01*
X103491Y56147D01*
X241751Y41402D02*
Y62672D01*
X194401Y88900D02*
X200941Y82360D01*
X222064D01*
X241751Y62672D01*
X140151Y88900D02*
X194401D01*
X120250Y61199D02*
X130652Y50800D01*
X76651Y38100D02*
Y54000D01*
X133166Y95885D02*
X140151Y88900D01*
X53911Y65748D02*
Y80251D01*
X63951Y90292D02*
Y92100D01*
Y54000D02*
Y55707D01*
X53911Y80251D02*
X63951Y90292D01*
X53911Y65748D02*
X63951Y55707D01*
X279851Y25400D02*
Y55001D01*
X559251Y267099D02*
X561052Y265301D01*
X559251Y267099D02*
Y292100D01*
X551581D02*
X559251D01*
X548024Y295656D02*
X551581Y292100D01*
X533851Y295656D02*
X548024D01*
X530920Y298587D02*
X533851Y295656D01*
X530920Y298587D02*
Y312420D01*
X328721Y235585D02*
X343351Y220955D01*
Y176339D02*
Y220955D01*
X432251Y203200D02*
X435850Y206799D01*
X469851D01*
X555391Y95961D02*
X561052Y90300D01*
X497852Y156599D02*
Y178801D01*
X555391Y95961D02*
Y99058D01*
X497852Y156599D02*
X555391Y99058D01*
X483851Y192801D02*
X497852Y178801D01*
X469851Y206799D02*
X483851Y192801D01*
X555391Y259639D02*
X561052Y265301D01*
X497852Y206799D02*
X513468D01*
X555391Y248724D01*
Y259639D01*
X328721Y235585D02*
Y254000D01*
Y254635D01*
X268602Y136271D02*
X275942Y143609D01*
X284731Y152400D01*
X292551D01*
Y114300D02*
X294456Y116205D01*
X317707D01*
Y131445D01*
X278932Y175499D02*
X292551Y161879D01*
Y152400D02*
Y161879D01*
X225114Y205080D02*
X226143Y206108D01*
X238533Y218501D01*
X253451D01*
X207436Y207518D02*
X224733D01*
X226143Y206108D01*
X120466Y150505D02*
X126001Y144968D01*
Y135636D02*
Y144968D01*
X167002Y135636D02*
X168899Y137531D01*
X180283D01*
X126001Y135636D02*
X167002D01*
X227601Y136271D02*
X232938Y141605D01*
X251276D01*
X267235Y152316D02*
Y152484D01*
Y152316D02*
X275942Y143609D01*
X70609Y248920D02*
X80852D01*
X66611Y244919D02*
X70609Y248920D01*
X52196Y244919D02*
X66611D01*
X45656Y251460D02*
X52196Y244919D01*
X117482Y246210D02*
Y251630D01*
X80852Y248920D02*
X83885D01*
X91424Y256461D01*
X112651D01*
X117482Y251630D01*
X117291Y246019D02*
X117482Y246210D01*
X117291Y241300D02*
Y246019D01*
X178251Y139563D02*
X180283Y137531D01*
X178251Y139563D02*
Y153670D01*
X180283Y137531D02*
X182572D01*
X203021Y130124D02*
X211929Y121219D01*
X182572Y137531D02*
X189979Y130124D01*
X203021D01*
X301050Y266700D02*
X330651D01*
Y255930D02*
Y266700D01*
X328721Y254000D02*
X330651Y255930D01*
X250250Y317500D02*
X301050Y266700D01*
X237550Y330200D02*
X250250Y317500D01*
X229051Y330200D02*
X237550D01*
X213151Y444500D02*
X229051D01*
X232252D01*
X213151Y420401D02*
Y444500D01*
Y409600D02*
Y420401D01*
Y409600D02*
X216351Y406400D01*
X241751Y355600D02*
Y381000D01*
X235211Y429090D02*
X239041Y425260D01*
X268543Y444500D02*
X279851D01*
X229051D02*
X235211Y438340D01*
Y429090D02*
Y438340D01*
X249303Y425260D02*
X268543Y444500D01*
X239041Y425260D02*
X249303D01*
X245952Y478399D02*
Y498399D01*
Y478399D02*
X279851Y444500D01*
X241751Y541899D02*
X245952Y546100D01*
X235660Y513298D02*
Y521901D01*
X245952Y532191D02*
Y546100D01*
Y498399D02*
Y503009D01*
X235660Y521901D02*
X245952Y532191D01*
X235660Y513298D02*
X245952Y503009D01*
X279851Y71999D02*
X284052Y76200D01*
X310852D01*
Y83299D01*
X302236Y91915D02*
X310852Y83299D01*
X220552Y88900D02*
X254451Y55001D01*
X203651Y88900D02*
X220552D01*
X211929Y111371D02*
X216351Y106952D01*
X211929Y111371D02*
Y121219D01*
X330651Y50800D02*
X343351Y63500D01*
X326450Y50800D02*
X330651D01*
X399617D02*
X402650D01*
X392079Y43261D02*
X399617Y50800D01*
X343351Y63500D02*
X363592Y43261D01*
X392079D01*
X175051Y76200D02*
X203270D01*
X203651Y75819D01*
X175051Y101600D02*
X190951D01*
X203651Y88900D01*
X85991Y79761D02*
X87050Y78699D01*
X81998Y79761D02*
X85991D01*
X63951Y109393D02*
Y111100D01*
Y109393D02*
X73992Y99352D01*
Y87767D02*
X81998Y79761D01*
X73992Y87767D02*
Y99352D01*
X149651Y50800D02*
X152851Y47600D01*
Y38679D02*
Y47600D01*
X175051Y54000D02*
X178251Y50800D01*
X175051Y54000D02*
Y76200D01*
X99552Y78699D02*
X102051Y76200D01*
X99552Y78699D02*
Y91201D01*
Y73701D02*
X102051Y76200D01*
X87050Y73701D02*
X99552D01*
X89552Y76200D02*
X102051D01*
X87050Y78699D02*
X89552Y76200D01*
X102051D02*
X104551Y78699D01*
X117052D01*
X126001Y135636D02*
X136087D01*
X138881Y138430D01*
X123400Y40759D02*
X137903D01*
X73941Y31560D02*
X79362D01*
X147944Y50800D02*
X149651D01*
X137903Y40759D02*
X147944Y50800D01*
X51251Y38100D02*
X67401D01*
X73941Y31560D01*
X118940Y45220D02*
X123400Y40759D01*
X93019Y45220D02*
X118940D01*
X79362Y31560D02*
X93019Y45220D01*
X51251Y38100D02*
Y63378D01*
X50355Y64275D02*
X51251Y63378D01*
X50355Y64275D02*
Y97503D01*
X63951Y111100D01*
X466491Y81747D02*
Y84640D01*
X381451Y85199D02*
X385459D01*
X331952D02*
X381451D01*
X466491Y84640D02*
X472152Y90300D01*
X459188Y74445D02*
X466491Y81747D01*
X396216Y74445D02*
X459188D01*
X385459Y85199D02*
X396216Y74445D01*
X103491Y92260D02*
X104551Y91201D01*
X103491Y92260D02*
Y96253D01*
X102051Y97691D02*
X103491Y96253D01*
X102051Y97691D02*
Y101600D01*
X381451Y85199D02*
X381827Y84826D01*
Y63876D02*
Y84826D01*
X397390Y12700D02*
X419551Y34862D01*
X381451Y12700D02*
X397390D01*
X395952Y250452D02*
X408088Y238316D01*
X395952Y250452D02*
Y265301D01*
X446752Y78001D02*
Y90300D01*
X452411Y95961D01*
Y98852D01*
X453900Y100340D01*
X456391D01*
X470351Y114300D01*
X483051Y25400D02*
X495751Y12700D01*
X483051Y25400D02*
Y38100D01*
X374898Y227909D02*
X377791D01*
X383450Y222250D01*
X356051Y313563D02*
X362211Y307404D01*
Y240599D02*
Y307404D01*
Y240599D02*
X374898Y227909D01*
X383450Y247650D02*
X384720Y248920D01*
X368751Y254000D02*
X377100D01*
X383450Y247650D01*
X295952Y256309D02*
X296996Y255265D01*
Y238125D02*
Y255265D01*
X270247Y262255D02*
Y271277D01*
X263595Y277927D02*
X270247Y271277D01*
X254451Y292100D02*
X263595Y282956D01*
Y277927D02*
Y282956D01*
X457651Y297878D02*
X470351Y285179D01*
Y267099D02*
X472152Y265301D01*
X470351Y267099D02*
Y285179D01*
X535652Y238234D02*
Y265301D01*
X531311Y233893D02*
X535652Y238234D01*
X533851Y267099D02*
X535652Y265301D01*
X533851Y267099D02*
Y279400D01*
X394151Y342900D02*
X406851Y330200D01*
X394151Y342900D02*
Y381000D01*
X279851D02*
X394151D01*
X419551Y342900D02*
Y355600D01*
X522952Y90300D02*
Y99799D01*
X521151Y101600D02*
X522952Y99799D01*
X342335Y292839D02*
X351543Y283632D01*
X374898Y189809D02*
X377791D01*
X383450Y184150D01*
X351543Y213167D02*
Y283632D01*
Y213167D02*
X374898Y189809D01*
X323450Y85199D02*
X326785Y88534D01*
Y89253D01*
X329275Y91740D01*
X356051D01*
Y63500D02*
X372952D01*
X383552Y52901D01*
X385652Y50800D01*
X479190Y84640D02*
X484852Y90300D01*
X479190Y81747D02*
Y84640D01*
X460943Y63500D02*
X479190Y81747D01*
X394151Y63500D02*
X460943D01*
X383552Y52901D02*
X394151Y63500D01*
X377791Y177109D02*
X383450Y171450D01*
X374898Y177109D02*
X377791D01*
X347987Y204023D02*
X374898Y177109D01*
X279851Y331831D02*
Y355600D01*
X347987Y204023D02*
Y263695D01*
X279851Y331831D02*
X347987Y263695D01*
X235211Y352890D02*
X239041Y349059D01*
X257162D01*
X235211Y352890D02*
Y387160D01*
X263702Y355600D02*
X279851D01*
X257162Y349059D02*
X263702Y355600D01*
X235211Y387160D02*
X241751Y393700D01*
X267151Y469900D02*
X292551D01*
X254451Y419100D02*
X267151Y431800D01*
X228670Y419481D02*
X229051Y419100D01*
X228670Y419481D02*
Y431221D01*
X229051Y419100D02*
X254451D01*
X405756Y262405D02*
X408652Y265301D01*
X414311Y259639D01*
Y256748D02*
Y259639D01*
Y256748D02*
X417060Y254000D01*
X432251D01*
Y249746D02*
Y254000D01*
X470351Y304419D02*
X483051Y291719D01*
Y267099D02*
X484852Y265301D01*
X483051Y267099D02*
Y291719D01*
X495751Y317500D02*
X506005Y307246D01*
X508451Y279400D02*
Y281493D01*
Y275341D02*
Y279400D01*
X506005Y283939D02*
Y307246D01*
Y283939D02*
X508451Y281493D01*
Y267099D02*
X510252Y265301D01*
X508451Y267099D02*
Y275341D01*
X457651Y88501D02*
X459452Y90300D01*
X465111Y95961D01*
Y98852D01*
X480560Y114300D01*
X495751D01*
X508451Y25400D02*
X521151Y12700D01*
X508451Y25400D02*
Y38100D01*
X495751D02*
X508451D01*
X352114Y292839D02*
X355099Y289855D01*
X374898Y202509D02*
X377791D01*
X383450Y196850D01*
X355099Y222311D02*
Y289855D01*
Y222311D02*
X374898Y202509D01*
X380938Y304287D02*
X405823Y279400D01*
X419551D01*
Y267099D02*
X421352Y265301D01*
X419551Y267099D02*
Y279400D01*
X491890Y84640D02*
X497552Y90300D01*
X491890Y81747D02*
Y84640D01*
X460943Y50800D02*
X491890Y81747D01*
X444951Y50800D02*
X460943D01*
X315269Y65535D02*
X316933Y67201D01*
X323450D01*
X292551Y63500D02*
X294586Y65535D01*
X315269D01*
X72503Y119840D02*
X73992Y118351D01*
X55399Y119840D02*
X72503D01*
X53911Y118351D02*
X55399Y119840D01*
X53911Y106088D02*
Y118351D01*
X73992Y111760D02*
Y118351D01*
Y111760D02*
X94551Y91201D01*
X46626Y20775D02*
Y98804D01*
X53911Y106088D01*
X374911Y9990D02*
Y15410D01*
Y9990D02*
X378741Y6159D01*
X384161D01*
X374911Y15410D02*
X400903Y41402D01*
X384161Y6159D02*
X384543Y6540D01*
X400481D01*
X435553Y41402D02*
X444951Y50800D01*
X400903Y41402D02*
X435553D01*
X285820Y120269D02*
X317951Y152400D01*
X401611Y95961D02*
Y98852D01*
X395952Y90300D02*
X401611Y95961D01*
X406851Y104092D02*
Y127000D01*
X401611Y98852D02*
X406851Y104092D01*
X268602Y120269D02*
X285820D01*
X334705Y116205D02*
X366846D01*
X374898Y127691D02*
X377791D01*
X383450Y133350D01*
X366846Y116205D02*
Y119636D01*
X374898Y127691D01*
X304809Y292542D02*
X311411Y285940D01*
Y281770D02*
Y285940D01*
Y281770D02*
X322925Y270256D01*
X332124D01*
X341446Y260934D01*
Y241300D02*
Y260934D01*
X330651Y203200D02*
X336811Y197041D01*
Y173629D02*
Y197041D01*
Y173629D02*
X351690Y158750D01*
X383450D01*
X267151Y80401D02*
X275650Y88900D01*
X267151Y63500D02*
Y80401D01*
X470351Y44640D02*
X505970Y80259D01*
X528505D02*
X529991Y81747D01*
Y84640D01*
X535652Y90300D01*
X505970Y80259D02*
X528505D01*
X510252Y90300D02*
Y99799D01*
X508451Y101600D02*
X510252Y99799D01*
X356051Y330200D02*
X362541D01*
X378797Y313944D02*
X435807D01*
X444951Y304800D01*
X362541Y330200D02*
X378797Y313944D01*
X444951Y267099D02*
X446752Y265301D01*
X444951Y267099D02*
Y304800D01*
X483051Y310959D02*
X495751Y298260D01*
Y267099D02*
X497552Y265301D01*
X495751Y267099D02*
Y298260D01*
X510991Y236220D02*
X522952Y248181D01*
Y265301D01*
X267151Y313687D02*
X307598Y273241D01*
X267151Y313687D02*
Y330200D01*
X195127Y48181D02*
X205206Y38100D01*
X215952D01*
X194190Y48181D02*
X195127D01*
X190951Y51420D02*
X194190Y48181D01*
X182303Y111641D02*
X185803Y108140D01*
X190951D01*
X157759Y101600D02*
X167799Y111641D01*
X156052Y101600D02*
X157759D01*
X167799Y111641D02*
X182303D01*
X215952Y37701D02*
Y38100D01*
X203651Y25400D02*
X215952Y37701D01*
X149651Y25400D02*
X178251D01*
X165551Y38100D02*
X190951D01*
X156052Y61691D02*
X158391Y59352D01*
X156052Y61691D02*
Y76200D01*
X158391Y45260D02*
X165551Y38100D01*
X158391Y45260D02*
Y59352D01*
X190951Y16002D02*
Y38100D01*
X178251Y3302D02*
X190951Y16002D01*
X135457Y3302D02*
X178251D01*
X113359Y25400D02*
X135457Y3302D01*
X111551Y25400D02*
X113359D01*
X117052Y68699D02*
X132651D01*
X118803Y35441D02*
X128843Y25400D01*
X130652D01*
X117990Y35441D02*
X118803D01*
X114751Y38679D02*
X117990Y35441D01*
X132651Y68699D02*
X140151Y76200D01*
X92552Y25400D02*
Y28600D01*
X102051Y38100D01*
X133237Y81986D02*
Y83114D01*
X127451Y76200D02*
X133237Y81986D01*
X123542Y76200D02*
X127451D01*
X122105Y74760D02*
X123542Y76200D01*
X118112Y74760D02*
X122105D01*
X117052Y73701D02*
X118112Y74760D01*
X63951Y73000D02*
X68252Y68699D01*
X87050D01*
X331952Y76200D02*
X356051D01*
X241751Y88900D02*
X258652D01*
X254451Y84699D02*
X258652Y88900D01*
X254451Y71999D02*
Y84699D01*
X292551Y546100D02*
X330651D01*
X365818D01*
X376292Y535628D01*
X368751Y515234D02*
X376292Y522773D01*
X368751Y512201D02*
Y515234D01*
X376292Y522773D02*
Y535628D01*
X347552Y508000D02*
X368751Y529199D01*
X279851Y508000D02*
X347552D01*
X273692Y514160D02*
Y523410D01*
X267151Y529951D02*
X273692Y523410D01*
Y514160D02*
X279851Y508000D01*
X267151Y529951D02*
Y546100D01*
X262950D02*
X267151D01*
X245952Y517601D02*
X262950Y534599D01*
Y546100D01*
Y508000D02*
X267151Y512201D01*
Y520700D01*
X190951Y478399D02*
X207852Y495300D01*
X190951Y469900D02*
Y478399D01*
X207852Y520700D02*
Y529199D01*
X190951Y546100D02*
X207852Y529199D01*
X381451Y444500D02*
X385652Y440299D01*
Y419100D02*
Y440299D01*
X419551Y516499D02*
Y533400D01*
X330651Y450365D02*
X339795Y459509D01*
X330651Y444500D02*
Y450365D01*
X251741Y413321D02*
X257924D01*
X321507Y476905D01*
Y480291D01*
X246399Y412560D02*
X250979D01*
X251741Y413321D01*
X321507Y480291D02*
X326864Y485648D01*
X334438D01*
X339795Y480291D01*
Y459509D02*
Y480291D01*
X241751Y431800D02*
X251251Y441300D01*
Y444500D01*
X205899Y454541D02*
X239503D01*
X249544Y444500D01*
X195859D02*
X205899Y454541D01*
X249544Y444500D02*
X251251D01*
X194152D02*
X195859D01*
X194152Y420401D02*
Y444500D01*
X203651Y352900D02*
Y392399D01*
X212150Y317500D02*
X233252D01*
X212150D02*
Y321701D01*
X203651Y330200D02*
X212150Y321701D01*
X196852Y330200D02*
X203651D01*
X194152Y332900D02*
X196852Y330200D01*
X267532Y406781D02*
X330651Y469900D01*
X254451Y406781D02*
X267532D01*
X254451Y393700D02*
X267151D01*
X254451Y355600D02*
Y393700D01*
D75*
X184500Y203581D02*
X188437Y207518D01*
X184500Y190800D02*
Y203581D01*
Y184252D02*
Y190800D01*
X188411Y180340D02*
X212541D01*
X218282Y186080D01*
X225114D01*
X184500Y184252D02*
X188411Y180340D01*
X316290Y208580D02*
Y215900D01*
Y216291D01*
X262231Y128468D02*
X274469D01*
X260159Y130541D02*
X262231Y128468D01*
X274606Y128605D02*
X274797D01*
X274469Y128468D02*
X274606Y128605D01*
X236671Y153035D02*
X256356D01*
X233740Y155966D02*
X236671Y153035D01*
X260159Y130541D02*
Y149233D01*
X256356Y153035D02*
X260159Y149233D01*
X233740Y155966D02*
Y164973D01*
X223336Y175260D02*
X233623Y164973D01*
X233740D01*
X187141Y175260D02*
X223336D01*
X184500Y172618D02*
X187141Y175260D01*
X184500Y164800D02*
Y172618D01*
X172612Y179629D02*
X184500Y167742D01*
Y164800D02*
Y167742D01*
X167982Y179629D02*
X172612D01*
X152064Y166218D02*
X165475Y179629D01*
X152064Y161323D02*
Y166218D01*
X165475Y179629D02*
X167982D01*
Y192212D01*
X171858Y196088D01*
X244444Y258597D02*
X247388Y261541D01*
X251993D01*
X244444Y236220D02*
Y258597D01*
X242945Y233738D02*
X244230D01*
X244444Y236220D01*
X235163Y225760D02*
X242945Y233738D01*
X229153Y225760D02*
X235163D01*
X156661Y219710D02*
Y231765D01*
X153359Y216408D02*
X156661Y219710D01*
Y231765D02*
X157771Y232875D01*
X153359Y192118D02*
Y216408D01*
X142564Y181323D02*
X153359Y192118D01*
X77055Y146586D02*
X79826Y143815D01*
Y138331D02*
Y143815D01*
X80461Y170094D02*
X91414D01*
X81206Y138331D02*
X86694Y132842D01*
X93679D01*
X133065Y161323D02*
X134860Y163119D01*
Y196088D01*
X126946Y204975D02*
Y227836D01*
X123771Y231010D02*
X126946Y227836D01*
Y204975D02*
X134860Y197061D01*
Y196088D02*
Y197061D01*
X120992Y228470D02*
X121231D01*
X123771Y231010D01*
X100672Y214501D02*
X107022D01*
X120992Y228470D01*
X77055Y146586D02*
Y162791D01*
X79826Y138331D02*
X81206D01*
X50637D02*
X79826D01*
X45656Y133350D02*
X50637Y138331D01*
X80461Y199956D02*
X95005Y214501D01*
X100672D01*
X77055Y162791D02*
X80461Y166195D01*
Y170094D02*
Y199956D01*
Y166195D02*
Y170094D01*
X91414D02*
X95005Y166500D01*
X100672D01*
D76*
X514166Y285029D02*
X514565D01*
X187802Y208153D02*
X188437Y207518D01*
X182188Y208153D02*
X187802D01*
X177616Y212725D02*
X182188Y208153D01*
X175711Y212725D02*
X177616D01*
X309722Y235585D02*
Y254635D01*
X234665Y176530D02*
X241751D01*
X225114Y186080D02*
X234665Y176530D01*
X198208Y140218D02*
X211929D01*
X196031Y138039D02*
X198208Y140218D01*
X309722Y235585D02*
Y249293D01*
X309325Y250561D02*
X309722Y249293D01*
X277311Y269240D02*
X290646D01*
X309325Y250561D01*
X278932Y185501D02*
X286862D01*
X316290Y199580D02*
Y208580D01*
X100672Y158501D02*
X102945D01*
X110941Y150505D02*
X120466D01*
X102945Y158501D02*
X110941Y150505D01*
X100672Y222499D02*
X103570D01*
X115429Y234358D02*
Y234465D01*
X116021Y235057D01*
Y240030D01*
X117291Y241300D01*
X135071D01*
X137771Y238600D01*
Y232875D02*
Y238600D01*
X103570Y222499D02*
X115429Y234358D01*
X207436Y207518D02*
Y213233D01*
X195269Y225400D02*
X207436Y213233D01*
X195269Y225400D02*
Y226451D01*
X227601Y132992D02*
Y136271D01*
X224817Y130208D02*
X227601Y132992D01*
X220918Y130208D02*
X224817D01*
X211929Y121219D02*
X220918Y130208D01*
X187190Y154988D02*
X189463D01*
X193999Y159525D02*
Y164800D01*
X189463Y154988D02*
X193999Y159525D01*
X178251Y153670D02*
X185871D01*
X167982D02*
X178251D01*
X167982D02*
Y160630D01*
X185871Y153670D02*
X187190Y154988D01*
X219653Y210541D02*
Y225760D01*
Y210541D02*
X225114Y205080D01*
X110677Y132842D02*
X123209D01*
X126001Y135636D01*
X263443Y228493D02*
Y236220D01*
X253451Y218501D02*
X263443Y228493D01*
X206191Y262890D02*
Y263525D01*
X164281Y256540D02*
X199206D01*
X214434Y262890D02*
X217985Y259339D01*
X206191Y262890D02*
X214434D01*
X199206Y256540D02*
X206191Y263525D01*
X217985Y244107D02*
X229153Y232938D01*
Y225760D02*
Y232938D01*
X217985Y244107D02*
Y259339D01*
X157771Y232875D02*
Y250030D01*
X164281Y256540D01*
X229153Y257658D02*
X235274Y263779D01*
X236671Y265176D01*
Y299720D01*
X229153Y251762D02*
Y257658D01*
X45656Y130810D02*
Y133350D01*
D77*
X197936Y139944D02*
Y149860D01*
X196031Y138039D02*
X197936Y139944D01*
X256991Y242672D02*
Y251541D01*
Y242672D02*
X263443Y236220D01*
X111040Y179169D02*
X126915D01*
X107213Y182999D02*
X111040Y179169D01*
X100672Y182999D02*
X107213D01*
X90502D02*
X100672D01*
X89351Y184150D02*
X90502Y182999D01*
X89351Y184150D02*
Y191770D01*
X90581Y192999D01*
X100672D01*
X264533Y256540D02*
X270247Y262255D01*
X261992Y256540D02*
X264533D01*
X270247Y262255D02*
X290006D01*
X295952Y256309D01*
X278932Y205501D02*
X296211D01*
X299292Y208580D01*
X295091Y212781D02*
X299292Y208580D01*
X295091Y212781D02*
Y217170D01*
X126001Y119634D02*
X167002D01*
X179387D02*
X180283Y120533D01*
X167002Y119634D02*
X179387D01*
X180283Y120533D02*
X195523D01*
X196031Y121041D01*
Y113030D02*
Y121041D01*
X348845Y100157D02*
X355371Y106680D01*
X196031Y113030D02*
X208904Y100157D01*
X348845D01*
X100672Y188001D02*
X109671D01*
X114609D01*
X116021Y186588D01*
X100672Y198001D02*
X108521D01*
X109671Y196850D01*
Y188001D02*
Y196850D01*
X236491Y129159D02*
X245561D01*
X227601Y120269D02*
X236491Y129159D01*
X245561D02*
X254632D01*
X263522Y120269D01*
X243021Y130302D02*
X244418D01*
X245561Y129159D01*
X334705Y116205D02*
Y131445D01*
X261992Y251541D02*
X269138D01*
X274771Y257175D01*
X285302D02*
X287398Y255079D01*
X274771Y257175D02*
X285302D01*
X278932Y195499D02*
X289496D01*
X293577Y199580D01*
X299292D01*
X307156D01*
Y214884D01*
X304870Y217170D02*
X307156Y214884D01*
X84271Y297729D02*
X87144D01*
X95701Y289169D01*
X113618Y167503D02*
X120466D01*
X100672Y172999D02*
X108122D01*
X113618Y167503D01*
X97850Y248920D02*
X110941D01*
X106931Y202999D02*
X116120Y212189D01*
X100672Y202999D02*
X106931D01*
X67761Y251460D02*
X88472Y272171D01*
X95701D01*
X60657Y251460D02*
X67761D01*
X215081Y153670D02*
X216742Y155331D01*
Y164973D01*
X223395Y266360D02*
X229051Y272016D01*
X216567Y164800D02*
X216742Y164973D01*
X203499Y164800D02*
X216567D01*
X195269Y243449D02*
X201843D01*
X210154Y251762D01*
X115386Y105410D02*
Y112385D01*
X110423Y117348D02*
X115386Y112385D01*
X210154Y225760D02*
Y239298D01*
X210001Y239451D02*
X210154Y239298D01*
X60657Y130810D02*
X70588D01*
X84050Y117348D02*
X93425D01*
X70588Y130810D02*
X84050Y117348D01*
D78*
X310852Y76200D02*
D03*
D79*
X495751Y12700D02*
D03*
X571951D02*
D03*
X521151D02*
D03*
X546551D02*
D03*
X470351D02*
D03*
X444951D02*
D03*
X419551D02*
D03*
D80*
X292551Y469900D02*
D03*
Y546100D02*
D03*
X330651Y469900D02*
D03*
Y546100D02*
D03*
D81*
X89920Y219400D02*
D03*
Y161600D02*
D03*
D82*
X38551Y311150D02*
D03*
X25851Y43815D02*
D03*
X597351Y311150D02*
D03*
Y43815D02*
D03*
D83*
X215952Y38100D02*
D03*
X190951D02*
D03*
D84*
X94922Y233700D02*
D03*
Y147300D02*
D03*
X53121D02*
D03*
Y233700D02*
D03*
D85*
X80532Y90477D02*
D03*
X546551Y38100D02*
D03*
X279851Y393700D02*
D03*
X571951Y165100D02*
D03*
X470351Y152400D02*
D03*
X432251D02*
D03*
X406851D02*
D03*
X355670Y303784D02*
D03*
X391911Y302560D02*
D03*
X354870Y342900D02*
D03*
X514166Y285029D02*
D03*
X175711Y212725D02*
D03*
X277311Y269240D02*
D03*
X241751Y176530D02*
D03*
X197936Y149860D02*
D03*
X305251Y400241D02*
D03*
X229051Y406400D02*
D03*
X76651Y38100D02*
D03*
X133166Y95885D02*
D03*
X251276Y141605D02*
D03*
X256991Y205740D02*
D03*
X138881Y138430D02*
D03*
X60141Y215900D02*
D03*
X61411Y170180D02*
D03*
X270326Y215265D02*
D03*
X290011Y279400D02*
D03*
X317951Y284480D02*
D03*
X254451Y183515D02*
D03*
X187141Y151130D02*
D03*
X276676Y236220D02*
D03*
X270961Y165100D02*
D03*
X343351Y176339D02*
D03*
X432251Y203200D02*
D03*
X292551Y152400D02*
D03*
Y114300D02*
D03*
X267235Y152484D02*
D03*
X229051Y330200D02*
D03*
X216351Y406400D02*
D03*
X241751Y381000D02*
D03*
Y355600D02*
D03*
X279851Y444500D02*
D03*
X245952Y478399D02*
D03*
X302236Y91915D02*
D03*
X203651Y88900D02*
D03*
X216351Y106952D02*
D03*
X343351Y63500D02*
D03*
X203651Y75819D02*
D03*
X152851Y38679D02*
D03*
X178251Y50800D02*
D03*
X102051Y101600D02*
D03*
X381827Y63876D02*
D03*
X419551Y34862D02*
D03*
X381451Y12700D02*
D03*
X126915Y179169D02*
D03*
X408088Y238316D02*
D03*
X470351Y114300D02*
D03*
X483051Y38100D02*
D03*
X356051Y313563D02*
D03*
X296996Y238125D02*
D03*
X295091Y217170D02*
D03*
X368751Y254000D02*
D03*
X254451Y292100D02*
D03*
X457651Y297878D02*
D03*
X355371Y106680D02*
D03*
X531311Y233893D02*
D03*
X533851Y279400D02*
D03*
X406851Y330200D02*
D03*
X279851Y381000D02*
D03*
X419551Y342900D02*
D03*
X521151Y101600D02*
D03*
X342335Y292839D02*
D03*
X356051Y91740D02*
D03*
Y63500D02*
D03*
X241751Y393700D02*
D03*
X267151Y469900D02*
D03*
Y431800D02*
D03*
X228670Y431221D02*
D03*
X116021Y186588D02*
D03*
X432251Y249746D02*
D03*
X470351Y304419D02*
D03*
X495751Y317500D02*
D03*
Y114300D02*
D03*
Y38100D02*
D03*
X352114Y292839D02*
D03*
X380938Y304287D02*
D03*
X444951Y50800D02*
D03*
X292551Y63500D02*
D03*
X46626Y20775D02*
D03*
X400481Y6540D02*
D03*
X317951Y152400D02*
D03*
X406851Y127000D02*
D03*
X304809Y292542D02*
D03*
X341446Y241300D02*
D03*
X330651Y203200D02*
D03*
X267151Y63500D02*
D03*
X470351Y44640D02*
D03*
X508451Y101600D02*
D03*
X356051Y330200D02*
D03*
X483051Y310959D02*
D03*
X510991Y236220D02*
D03*
X287398Y255079D02*
D03*
X304870Y217170D02*
D03*
X307598Y273241D02*
D03*
X267151Y330200D02*
D03*
X190951Y51420D02*
D03*
Y108140D02*
D03*
X203651Y25400D02*
D03*
X178251D02*
D03*
X114751Y38679D02*
D03*
X140151Y76200D02*
D03*
X102051Y38100D02*
D03*
X133237Y83114D02*
D03*
X356051Y76200D02*
D03*
X241751Y88900D02*
D03*
X267151Y520700D02*
D03*
X190951Y469900D02*
D03*
Y546100D02*
D03*
X381451Y444500D02*
D03*
X419551Y533400D02*
D03*
X246399Y412560D02*
D03*
X241751Y431800D02*
D03*
X254451Y406781D02*
D03*
X267151Y393700D02*
D03*
X254451Y355600D02*
D03*
X84271Y297729D02*
D03*
X110941Y248920D02*
D03*
X116120Y212189D02*
D03*
X215081Y153670D02*
D03*
X223395Y266360D02*
D03*
X115386Y105410D02*
D03*
X210001Y239451D02*
D03*
D86*
X235274Y263779D02*
D03*
X123771Y231010D02*
D03*
M02*
